%TF.GenerationSoftware,KiCad,Pcbnew,8.0.4*%
%TF.CreationDate,2024-10-18T18:06:38+03:00*%
%TF.ProjectId,beepy,62656570-792e-46b6-9963-61645f706362,rev?*%
%TF.SameCoordinates,Original*%
%TF.FileFunction,Soldermask,Bot*%
%TF.FilePolarity,Negative*%
%FSLAX46Y46*%
G04 Gerber Fmt 4.6, Leading zero omitted, Abs format (unit mm)*
G04 Created by KiCad (PCBNEW 8.0.4) date 2024-10-18 18:06:38*
%MOMM*%
%LPD*%
G01*
G04 APERTURE LIST*
G04 Aperture macros list*
%AMRoundRect*
0 Rectangle with rounded corners*
0 $1 Rounding radius*
0 $2 $3 $4 $5 $6 $7 $8 $9 X,Y pos of 4 corners*
0 Add a 4 corners polygon primitive as box body*
4,1,4,$2,$3,$4,$5,$6,$7,$8,$9,$2,$3,0*
0 Add four circle primitives for the rounded corners*
1,1,$1+$1,$2,$3*
1,1,$1+$1,$4,$5*
1,1,$1+$1,$6,$7*
1,1,$1+$1,$8,$9*
0 Add four rect primitives between the rounded corners*
20,1,$1+$1,$2,$3,$4,$5,0*
20,1,$1+$1,$4,$5,$6,$7,0*
20,1,$1+$1,$6,$7,$8,$9,0*
20,1,$1+$1,$8,$9,$2,$3,0*%
%AMFreePoly0*
4,1,19,0.500000,-0.750000,0.000000,-0.750000,0.000000,-0.744911,-0.071157,-0.744911,-0.207708,-0.704816,-0.327430,-0.627875,-0.420627,-0.520320,-0.479746,-0.390866,-0.500000,-0.250000,-0.500000,0.250000,-0.479746,0.390866,-0.420627,0.520320,-0.327430,0.627875,-0.207708,0.704816,-0.071157,0.744911,0.000000,0.744911,0.000000,0.750000,0.500000,0.750000,0.500000,-0.750000,0.500000,-0.750000,
$1*%
%AMFreePoly1*
4,1,19,0.000000,0.744911,0.071157,0.744911,0.207708,0.704816,0.327430,0.627875,0.420627,0.520320,0.479746,0.390866,0.500000,0.250000,0.500000,-0.250000,0.479746,-0.390866,0.420627,-0.520320,0.327430,-0.627875,0.207708,-0.704816,0.071157,-0.744911,0.000000,-0.744911,0.000000,-0.750000,-0.500000,-0.750000,-0.500000,0.750000,0.000000,0.750000,0.000000,0.744911,0.000000,0.744911,
$1*%
G04 Aperture macros list end*
%ADD10C,0.000000*%
%ADD11C,0.010000*%
%ADD12R,1.700000X1.700000*%
%ADD13O,1.700000X1.700000*%
%ADD14C,2.500000*%
%ADD15C,2.200000*%
%ADD16C,2.700000*%
%ADD17RoundRect,0.200000X0.200000X0.275000X-0.200000X0.275000X-0.200000X-0.275000X0.200000X-0.275000X0*%
%ADD18RoundRect,0.200000X0.275000X-0.200000X0.275000X0.200000X-0.275000X0.200000X-0.275000X-0.200000X0*%
%ADD19RoundRect,0.200000X-0.275000X0.200000X-0.275000X-0.200000X0.275000X-0.200000X0.275000X0.200000X0*%
%ADD20RoundRect,0.150000X-0.150000X0.587500X-0.150000X-0.587500X0.150000X-0.587500X0.150000X0.587500X0*%
%ADD21RoundRect,0.150000X0.150000X-0.512500X0.150000X0.512500X-0.150000X0.512500X-0.150000X-0.512500X0*%
%ADD22RoundRect,0.150000X0.150000X-0.587500X0.150000X0.587500X-0.150000X0.587500X-0.150000X-0.587500X0*%
%ADD23R,2.460000X2.310000*%
%ADD24RoundRect,0.100000X0.687500X0.100000X-0.687500X0.100000X-0.687500X-0.100000X0.687500X-0.100000X0*%
%ADD25RoundRect,0.150000X-0.712500X-0.150000X0.712500X-0.150000X0.712500X0.150000X-0.712500X0.150000X0*%
%ADD26RoundRect,0.225000X0.250000X-0.225000X0.250000X0.225000X-0.250000X0.225000X-0.250000X-0.225000X0*%
%ADD27C,2.000000*%
%ADD28RoundRect,0.250000X0.325000X0.650000X-0.325000X0.650000X-0.325000X-0.650000X0.325000X-0.650000X0*%
%ADD29R,1.400000X0.800000*%
%ADD30R,1.270000X0.800000*%
%ADD31RoundRect,0.225000X-0.225000X-0.250000X0.225000X-0.250000X0.225000X0.250000X-0.225000X0.250000X0*%
%ADD32R,2.950000X3.500000*%
%ADD33R,1.500000X1.500000*%
%ADD34RoundRect,0.150000X-0.150000X0.512500X-0.150000X-0.512500X0.150000X-0.512500X0.150000X0.512500X0*%
%ADD35C,1.500000*%
%ADD36RoundRect,0.225000X-0.250000X0.225000X-0.250000X-0.225000X0.250000X-0.225000X0.250000X0.225000X0*%
%ADD37FreePoly0,0.000000*%
%ADD38FreePoly1,0.000000*%
%ADD39RoundRect,0.200000X-0.200000X-0.275000X0.200000X-0.275000X0.200000X0.275000X-0.200000X0.275000X0*%
%ADD40RoundRect,0.102000X0.375000X-0.150000X0.375000X0.150000X-0.375000X0.150000X-0.375000X-0.150000X0*%
%ADD41R,0.800000X0.700000*%
%ADD42R,1.400000X1.200000*%
%ADD43RoundRect,0.250000X-0.412500X-0.925000X0.412500X-0.925000X0.412500X0.925000X-0.412500X0.925000X0*%
%ADD44RoundRect,0.225000X0.225000X0.250000X-0.225000X0.250000X-0.225000X-0.250000X0.225000X-0.250000X0*%
%ADD45RoundRect,0.250000X-0.250000X-1.500000X0.250000X-1.500000X0.250000X1.500000X-0.250000X1.500000X0*%
%ADD46RoundRect,0.250001X-0.499999X-1.449999X0.499999X-1.449999X0.499999X1.449999X-0.499999X1.449999X0*%
%ADD47C,0.650000*%
%ADD48R,0.600000X1.450000*%
%ADD49R,0.300000X1.450000*%
%ADD50O,1.000000X1.600000*%
%ADD51O,1.000000X2.100000*%
%ADD52RoundRect,0.150000X0.587500X0.150000X-0.587500X0.150000X-0.587500X-0.150000X0.587500X-0.150000X0*%
%ADD53R,1.200000X0.900000*%
%ADD54RoundRect,0.112500X-0.112500X0.187500X-0.112500X-0.187500X0.112500X-0.187500X0.112500X0.187500X0*%
%ADD55R,1.000000X0.800000*%
%ADD56C,0.900000*%
%ADD57R,0.700000X1.500000*%
%ADD58RoundRect,0.050000X-0.387500X-0.050000X0.387500X-0.050000X0.387500X0.050000X-0.387500X0.050000X0*%
%ADD59RoundRect,0.050000X-0.050000X-0.387500X0.050000X-0.387500X0.050000X0.387500X-0.050000X0.387500X0*%
%ADD60R,3.200000X3.200000*%
%ADD61R,0.740000X2.400000*%
G04 APERTURE END LIST*
D10*
%TO.C,G\u002A\u002A\u002A*%
G36*
X9763190Y-88086712D02*
G01*
X9763190Y-88906629D01*
X9536405Y-88906629D01*
X9309619Y-88906629D01*
X9309619Y-88086712D01*
X9309619Y-87266794D01*
X9536405Y-87266794D01*
X9763190Y-87266794D01*
X9763190Y-88086712D01*
G37*
G36*
X-922552Y-87274330D02*
G01*
X-546837Y-87284239D01*
X-546837Y-87441245D01*
X-546837Y-87598250D01*
X-695120Y-87608979D01*
X-843403Y-87619707D01*
X-843403Y-88264833D01*
X-843403Y-88909959D01*
X-1061466Y-88899572D01*
X-1279529Y-88889184D01*
X-1288898Y-88076802D01*
X-1298266Y-87264420D01*
X-922552Y-87274330D01*
G37*
G36*
X-3053032Y-88547024D02*
G01*
X-2973775Y-88635862D01*
X-2949814Y-88683419D01*
X-2944931Y-88742668D01*
X-2983302Y-88815384D01*
X-2984489Y-88817172D01*
X-3061882Y-88884424D01*
X-3160346Y-88910797D01*
X-3255141Y-88894844D01*
X-3321524Y-88835124D01*
X-3346454Y-88773472D01*
X-3350191Y-88666672D01*
X-3308105Y-88582255D01*
X-3234809Y-88528593D01*
X-3144914Y-88514059D01*
X-3053032Y-88547024D01*
G37*
G36*
X1058108Y-81038909D02*
G01*
X1058108Y-81213360D01*
X822600Y-81223677D01*
X587091Y-81233993D01*
X587091Y-81858680D01*
X587091Y-82483367D01*
X386473Y-82493830D01*
X299778Y-82497222D01*
X206388Y-82497682D01*
X159688Y-82493512D01*
X152000Y-82462612D01*
X144610Y-82372176D01*
X138758Y-82233536D01*
X134907Y-82057972D01*
X133520Y-81856768D01*
X133520Y-81230805D01*
X-112534Y-81230805D01*
X-358588Y-81230805D01*
X-348042Y-81047632D01*
X-337496Y-80864459D01*
X360306Y-80864459D01*
X1058108Y-80864459D01*
X1058108Y-81038909D01*
G37*
G36*
X-4471974Y-84388360D02*
G01*
X-4471974Y-84719816D01*
X-4157963Y-84719816D01*
X-3843952Y-84719816D01*
X-3843952Y-84388360D01*
X-3843952Y-84056904D01*
X-3617167Y-84056904D01*
X-3390381Y-84056904D01*
X-3390381Y-84878486D01*
X-3390381Y-85700069D01*
X-3608444Y-85689681D01*
X-3826507Y-85679294D01*
X-3836588Y-85374006D01*
X-3846669Y-85068717D01*
X-4159322Y-85068717D01*
X-4471974Y-85068717D01*
X-4471974Y-85384393D01*
X-4471974Y-85700069D01*
X-4690038Y-85689681D01*
X-4908101Y-85679294D01*
X-4917466Y-84868099D01*
X-4926832Y-84056904D01*
X-4699403Y-84056904D01*
X-4471974Y-84056904D01*
X-4471974Y-84388360D01*
G37*
G36*
X4878575Y-84876822D02*
G01*
X4878575Y-85696739D01*
X4215663Y-85696739D01*
X3552751Y-85696739D01*
X3552751Y-85522289D01*
X3552751Y-85347838D01*
X3988877Y-85347838D01*
X4425004Y-85347838D01*
X4425004Y-85190833D01*
X4425004Y-85033827D01*
X4041212Y-85033827D01*
X3657421Y-85033827D01*
X3657421Y-84859377D01*
X3657421Y-84684926D01*
X4041212Y-84684926D01*
X4425004Y-84684926D01*
X4425004Y-84545366D01*
X4425004Y-84405805D01*
X4006322Y-84405805D01*
X3587641Y-84405805D01*
X3587641Y-84231355D01*
X3587641Y-84056904D01*
X4233108Y-84056904D01*
X4878575Y-84056904D01*
X4878575Y-84876822D01*
G37*
G36*
X-502583Y-81674864D02*
G01*
X-493220Y-82485270D01*
X-1130605Y-82494782D01*
X-1323916Y-82496648D01*
X-1506139Y-82496295D01*
X-1653348Y-82493742D01*
X-1753962Y-82489197D01*
X-1796396Y-82482867D01*
X-1803575Y-82471589D01*
X-1814597Y-82406140D01*
X-1813841Y-82308416D01*
X-1802881Y-82155393D01*
X-1375477Y-82145597D01*
X-948073Y-82135800D01*
X-948073Y-81997314D01*
X-948073Y-81858827D01*
X-1331865Y-81858827D01*
X-1715656Y-81858827D01*
X-1715656Y-81684377D01*
X-1715656Y-81509926D01*
X-1331865Y-81509926D01*
X-948073Y-81509926D01*
X-948073Y-81370366D01*
X-948073Y-81230805D01*
X-1368578Y-81230805D01*
X-1789083Y-81230805D01*
X-1778537Y-81047632D01*
X-1767991Y-80864459D01*
X-1139969Y-80864459D01*
X-511947Y-80864459D01*
X-502583Y-81674864D01*
G37*
G36*
X7390663Y-88062682D02*
G01*
X7390375Y-88188017D01*
X7388418Y-88405721D01*
X7384854Y-88594263D01*
X7379972Y-88743487D01*
X7374059Y-88843240D01*
X7367403Y-88883369D01*
X7329856Y-88890448D01*
X7233180Y-88896925D01*
X7089098Y-88902049D01*
X6909054Y-88905417D01*
X6704491Y-88906629D01*
X6064839Y-88906629D01*
X6064839Y-88732179D01*
X6064839Y-88557728D01*
X6500965Y-88557728D01*
X6937091Y-88557728D01*
X6937091Y-88400723D01*
X6937091Y-88243717D01*
X6553300Y-88243717D01*
X6169509Y-88243717D01*
X6169509Y-88069267D01*
X6169509Y-87894816D01*
X6553300Y-87894816D01*
X6937091Y-87894816D01*
X6937091Y-87756329D01*
X6937091Y-87617843D01*
X6509688Y-87608047D01*
X6082284Y-87598250D01*
X6082284Y-87441245D01*
X6082284Y-87284239D01*
X6736473Y-87274747D01*
X7390663Y-87265254D01*
X7390663Y-88062682D01*
G37*
G36*
X11936276Y-80853954D02*
G01*
X12118273Y-80864459D01*
X12127634Y-81673808D01*
X12136995Y-82483158D01*
X11953183Y-82493726D01*
X11882716Y-82496357D01*
X11790786Y-82494562D01*
X11744307Y-82486207D01*
X11742633Y-82484034D01*
X11732537Y-82433894D01*
X11722960Y-82329931D01*
X11714916Y-82185809D01*
X11709417Y-82015191D01*
X11699591Y-81562261D01*
X11359648Y-82015833D01*
X11019705Y-82469404D01*
X10823421Y-82487602D01*
X10754039Y-82492235D01*
X10655513Y-82488611D01*
X10613156Y-82469367D01*
X10611265Y-82456239D01*
X10608190Y-82382333D01*
X10606326Y-82254156D01*
X10605732Y-82082177D01*
X10606466Y-81876868D01*
X10608587Y-81648697D01*
X10617998Y-80864459D01*
X10809894Y-80864459D01*
X11001789Y-80864459D01*
X11011500Y-81344715D01*
X11021210Y-81824972D01*
X11387744Y-81334210D01*
X11754278Y-80843449D01*
X11936276Y-80853954D01*
G37*
G36*
X177641Y-88111479D02*
G01*
X188392Y-88137373D01*
X179075Y-88191830D01*
X148655Y-88284071D01*
X96095Y-88423316D01*
X20359Y-88618786D01*
X-117969Y-88976409D01*
X-245178Y-88976397D01*
X-372387Y-88976385D01*
X-521602Y-88583883D01*
X-579317Y-88429137D01*
X-626637Y-88296646D01*
X-658452Y-88201077D01*
X-669885Y-88156492D01*
X-669633Y-88154416D01*
X-634301Y-88131171D01*
X-557700Y-88121602D01*
X-511944Y-88123343D01*
X-470045Y-88137757D01*
X-437154Y-88178351D01*
X-403350Y-88258605D01*
X-358713Y-88392000D01*
X-345233Y-88432813D01*
X-303554Y-88549907D01*
X-269804Y-88631662D01*
X-250271Y-88662398D01*
X-246149Y-88659309D01*
X-221598Y-88611173D01*
X-184801Y-88516842D01*
X-142036Y-88392000D01*
X-100373Y-88266040D01*
X-66285Y-88182066D01*
X-32554Y-88137490D01*
X11729Y-88118326D01*
X77474Y-88110590D01*
X100084Y-88108500D01*
X147860Y-88104928D01*
X177641Y-88111479D01*
G37*
G36*
X4763626Y-80854128D02*
G01*
X4998849Y-80864459D01*
X5209111Y-81328907D01*
X5419372Y-81793356D01*
X5542213Y-81538248D01*
X5616209Y-81381556D01*
X5694913Y-81210000D01*
X5759974Y-81063476D01*
X5854892Y-80843812D01*
X6090703Y-80854135D01*
X6326515Y-80864459D01*
X6335876Y-81673808D01*
X6345237Y-82483158D01*
X6161425Y-82493726D01*
X6091099Y-82496881D01*
X5998624Y-82497744D01*
X5951446Y-82493512D01*
X5948574Y-82489464D01*
X5939323Y-82434883D01*
X5931717Y-82327283D01*
X5926478Y-82179671D01*
X5924326Y-82005051D01*
X5923374Y-81527371D01*
X5750136Y-81928607D01*
X5742945Y-81945269D01*
X5678172Y-82096020D01*
X5625349Y-82220125D01*
X5589746Y-82305126D01*
X5576638Y-82338566D01*
X5571131Y-82340894D01*
X5518085Y-82345470D01*
X5427023Y-82347289D01*
X5277669Y-82347289D01*
X5104289Y-81941322D01*
X4930910Y-81535356D01*
X4913465Y-82016158D01*
X4896020Y-82496960D01*
X4721570Y-82496906D01*
X4547119Y-82496853D01*
X4537761Y-81670325D01*
X4528403Y-80843797D01*
X4763626Y-80854128D01*
G37*
G36*
X1646972Y-87579929D02*
G01*
X1695851Y-87671238D01*
X1761530Y-87789188D01*
X1811436Y-87873016D01*
X1837481Y-87908766D01*
X1855509Y-87895589D01*
X1900533Y-87832431D01*
X1963306Y-87728565D01*
X2036184Y-87596024D01*
X2209482Y-87267580D01*
X2427545Y-87267187D01*
X2530983Y-87269296D01*
X2613839Y-87276035D01*
X2645608Y-87285852D01*
X2632765Y-87315166D01*
X2591493Y-87396980D01*
X2526917Y-87520814D01*
X2444335Y-87676522D01*
X2349042Y-87853957D01*
X2319483Y-87908700D01*
X2221358Y-88091797D01*
X2150806Y-88228923D01*
X2103280Y-88332359D01*
X2074232Y-88414385D01*
X2059113Y-88487283D01*
X2053378Y-88563333D01*
X2052476Y-88654816D01*
X2052476Y-88906629D01*
X1843135Y-88906629D01*
X1633795Y-88906629D01*
X1633795Y-88635272D01*
X1630208Y-88510388D01*
X1614225Y-88374772D01*
X1587094Y-88295093D01*
X1574612Y-88274942D01*
X1528968Y-88194606D01*
X1461432Y-88071337D01*
X1378885Y-87917769D01*
X1288212Y-87746533D01*
X1036031Y-87266794D01*
X1258950Y-87266794D01*
X1481869Y-87266794D01*
X1646972Y-87579929D01*
G37*
G36*
X11333245Y-88060938D02*
G01*
X11332952Y-88187807D01*
X11330988Y-88405625D01*
X11327423Y-88594232D01*
X11322543Y-88743486D01*
X11316634Y-88843246D01*
X11309985Y-88883369D01*
X11280292Y-88893331D01*
X11196802Y-88902922D01*
X11083200Y-88906629D01*
X10879674Y-88906629D01*
X10879674Y-88684432D01*
X10879674Y-88462234D01*
X10621999Y-88445698D01*
X10411669Y-88419142D01*
X10239296Y-88362017D01*
X10110725Y-88269652D01*
X10014761Y-88136345D01*
X9981194Y-88063802D01*
X9942691Y-87885884D01*
X10363821Y-87885884D01*
X10420306Y-88000992D01*
X10465935Y-88043296D01*
X10549946Y-88077657D01*
X10681982Y-88096403D01*
X10879674Y-88112798D01*
X10879674Y-87864246D01*
X10879674Y-87615695D01*
X10687778Y-87615695D01*
X10591583Y-87619291D01*
X10493338Y-87640352D01*
X10426102Y-87685475D01*
X10371481Y-87770207D01*
X10363821Y-87885884D01*
X9942691Y-87885884D01*
X9939113Y-87869348D01*
X9962448Y-87679243D01*
X10048651Y-87504511D01*
X10195171Y-87356175D01*
X10230557Y-87332818D01*
X10282282Y-87310916D01*
X10353832Y-87295667D01*
X10457694Y-87285387D01*
X10606359Y-87278393D01*
X10812314Y-87273003D01*
X11333245Y-87261767D01*
X11333245Y-87864246D01*
X11333245Y-88060938D01*
G37*
G36*
X7007801Y-84060403D02*
G01*
X7059581Y-84077731D01*
X7105685Y-84117953D01*
X7156229Y-84190467D01*
X7221331Y-84304674D01*
X7311106Y-84469970D01*
X7450353Y-84726031D01*
X7638571Y-84391476D01*
X7826789Y-84056922D01*
X8046080Y-84056913D01*
X8087105Y-84056949D01*
X8187886Y-84059238D01*
X8235643Y-84069259D01*
X8243364Y-84092739D01*
X8224037Y-84135407D01*
X8212639Y-84156897D01*
X8168292Y-84239927D01*
X8101185Y-84365204D01*
X8018205Y-84519872D01*
X7926243Y-84691076D01*
X7849492Y-84834327D01*
X7774314Y-84978762D01*
X7723712Y-85086619D01*
X7692822Y-85171994D01*
X7676780Y-85248978D01*
X7670722Y-85331668D01*
X7669784Y-85434156D01*
X7669784Y-85700069D01*
X7451721Y-85689681D01*
X7233657Y-85679294D01*
X7215770Y-85382728D01*
X7209679Y-85290848D01*
X7199395Y-85196243D01*
X7181363Y-85111886D01*
X7150392Y-85023508D01*
X7101290Y-84916839D01*
X7028865Y-84777610D01*
X6927927Y-84591551D01*
X6867259Y-84479882D01*
X6784135Y-84325000D01*
X6717795Y-84199062D01*
X6673865Y-84112793D01*
X6657971Y-84076921D01*
X6680743Y-84067853D01*
X6756324Y-84059947D01*
X6866507Y-84056904D01*
X6940230Y-84056570D01*
X7007801Y-84060403D01*
G37*
G36*
X-2132401Y-87235619D02*
G01*
X-1999699Y-87264696D01*
X-1848977Y-87314706D01*
X-1708929Y-87375377D01*
X-1608251Y-87436443D01*
X-1532876Y-87497478D01*
X-1607530Y-87643812D01*
X-1632283Y-87690426D01*
X-1675462Y-87761966D01*
X-1700771Y-87790146D01*
X-1710978Y-87786713D01*
X-1766225Y-87755706D01*
X-1847721Y-87702920D01*
X-1917601Y-87662692D01*
X-2041287Y-87621966D01*
X-2153882Y-87617511D01*
X-2241886Y-87646547D01*
X-2291800Y-87706297D01*
X-2290125Y-87793981D01*
X-2283500Y-87808118D01*
X-2236430Y-87876488D01*
X-2154113Y-87979929D01*
X-2045839Y-88107058D01*
X-1920896Y-88246488D01*
X-1913966Y-88254038D01*
X-1780544Y-88400884D01*
X-1687624Y-88508505D01*
X-1627964Y-88587780D01*
X-1594319Y-88649589D01*
X-1579444Y-88704812D01*
X-1576095Y-88764329D01*
X-1576095Y-88906629D01*
X-2186672Y-88906629D01*
X-2797249Y-88906629D01*
X-2797249Y-88733488D01*
X-2797249Y-88560347D01*
X-2478450Y-88550315D01*
X-2159651Y-88540283D01*
X-2403928Y-88271500D01*
X-2552737Y-88098668D01*
X-2675194Y-87927377D01*
X-2744411Y-87781934D01*
X-2762608Y-87654855D01*
X-2732003Y-87538658D01*
X-2654818Y-87425861D01*
X-2566420Y-87345727D01*
X-2391004Y-87261186D01*
X-2179259Y-87232099D01*
X-2132401Y-87235619D01*
G37*
G36*
X1604532Y-81400866D02*
G01*
X1607677Y-81541896D01*
X1612849Y-81713091D01*
X1619890Y-81833886D01*
X1630585Y-81916107D01*
X1646718Y-81971580D01*
X1670075Y-82012130D01*
X1702439Y-82049584D01*
X1759858Y-82101239D01*
X1833994Y-82129866D01*
X1943159Y-82130827D01*
X2013879Y-82122917D01*
X2102897Y-82090481D01*
X2171081Y-82022084D01*
X2198839Y-81978906D01*
X2219614Y-81926076D01*
X2234098Y-81852584D01*
X2243933Y-81746150D01*
X2250762Y-81594495D01*
X2256226Y-81385340D01*
X2268079Y-80847014D01*
X2474289Y-80847014D01*
X2680498Y-80847014D01*
X2680498Y-81423821D01*
X2679393Y-81624563D01*
X2673448Y-81824647D01*
X2660008Y-81975826D01*
X2636479Y-82089719D01*
X2600263Y-82177947D01*
X2548765Y-82252127D01*
X2479388Y-82323880D01*
X2469461Y-82332896D01*
X2358462Y-82412042D01*
X2239583Y-82470632D01*
X2226777Y-82475085D01*
X2011955Y-82519174D01*
X1799210Y-82511237D01*
X1600999Y-82456286D01*
X1429780Y-82359336D01*
X1298009Y-82225400D01*
X1218145Y-82059494D01*
X1204701Y-81986515D01*
X1192020Y-81834837D01*
X1186104Y-81631789D01*
X1187429Y-81387811D01*
X1197668Y-80864459D01*
X1395192Y-80854088D01*
X1592715Y-80843716D01*
X1604532Y-81400866D01*
G37*
G36*
X1627075Y-85224278D02*
G01*
X1700746Y-85400524D01*
X1757983Y-85539682D01*
X1795058Y-85632753D01*
X1808245Y-85670740D01*
X1784467Y-85682686D01*
X1707941Y-85692837D01*
X1596943Y-85696739D01*
X1385640Y-85696739D01*
X1316189Y-85539734D01*
X1246738Y-85382728D01*
X915675Y-85382728D01*
X584612Y-85382728D01*
X517311Y-85539734D01*
X450011Y-85696739D01*
X219078Y-85696739D01*
X218241Y-85696739D01*
X103912Y-85692317D01*
X25442Y-85680828D01*
X-225Y-85664741D01*
X9070Y-85641736D01*
X42524Y-85560988D01*
X96417Y-85431747D01*
X166915Y-85263188D01*
X248410Y-85068717D01*
X697708Y-85068717D01*
X904076Y-85068717D01*
X996529Y-85066019D01*
X1078765Y-85056843D01*
X1110443Y-85043413D01*
X1108031Y-85024942D01*
X1086308Y-84952848D01*
X1048612Y-84855008D01*
X1003043Y-84749637D01*
X957703Y-84654949D01*
X920691Y-84589159D01*
X900109Y-84570480D01*
X899082Y-84571749D01*
X874116Y-84620088D01*
X833992Y-84713569D01*
X786892Y-84833209D01*
X697708Y-85068717D01*
X248410Y-85068717D01*
X250182Y-85064488D01*
X342384Y-84844824D01*
X673364Y-84056904D01*
X901160Y-84056904D01*
X1128956Y-84056904D01*
X1468601Y-84850822D01*
X1540697Y-85019941D01*
X1550619Y-85043413D01*
X1627075Y-85224278D01*
G37*
G36*
X8280036Y-81694145D02*
G01*
X8263875Y-81880039D01*
X8214144Y-82033278D01*
X8086782Y-82221783D01*
X7901890Y-82382173D01*
X7670010Y-82491213D01*
X7593122Y-82504031D01*
X7471942Y-82510483D01*
X7333928Y-82508886D01*
X7298866Y-82506927D01*
X7079416Y-82469384D01*
X6896748Y-82384334D01*
X6731745Y-82243347D01*
X6659103Y-82153640D01*
X6561047Y-81956294D01*
X6520018Y-81740911D01*
X6527817Y-81633629D01*
X6972415Y-81633629D01*
X6987669Y-81802730D01*
X7053873Y-81960085D01*
X7166677Y-82085048D01*
X7271550Y-82129421D01*
X7410106Y-82138055D01*
X7551017Y-82110289D01*
X7666448Y-82048176D01*
X7754159Y-81945330D01*
X7814465Y-81793006D01*
X7824502Y-81628136D01*
X7783590Y-81470296D01*
X7691050Y-81339065D01*
X7577876Y-81266912D01*
X7427763Y-81235665D01*
X7273620Y-81255867D01*
X7134784Y-81324594D01*
X7030589Y-81438923D01*
X7012458Y-81473430D01*
X6972415Y-81633629D01*
X6527817Y-81633629D01*
X6535931Y-81522017D01*
X6608700Y-81314138D01*
X6738242Y-81131800D01*
X6824878Y-81052581D01*
X7023695Y-80932366D01*
X7241681Y-80867067D01*
X7466905Y-80855208D01*
X7687437Y-80895315D01*
X7891347Y-80985912D01*
X8066705Y-81125527D01*
X8201580Y-81312683D01*
X8213622Y-81337383D01*
X8263121Y-81503844D01*
X8274169Y-81628136D01*
X8280036Y-81694145D01*
G37*
G36*
X9255145Y-80883351D02*
G01*
X9454862Y-80964466D01*
X9626568Y-81090071D01*
X9760835Y-81254907D01*
X9848236Y-81453716D01*
X9879343Y-81681237D01*
X9872187Y-81790072D01*
X9811922Y-82012617D01*
X9697403Y-82209137D01*
X9537161Y-82367098D01*
X9339726Y-82473970D01*
X9278301Y-82491923D01*
X9099486Y-82514730D01*
X8908521Y-82507906D01*
X8741524Y-82471595D01*
X8687344Y-82450034D01*
X8574023Y-82393281D01*
X8471384Y-82329044D01*
X8397199Y-82269087D01*
X8369242Y-82225173D01*
X8373930Y-82210110D01*
X8411556Y-82148942D01*
X8474297Y-82068739D01*
X8485829Y-82055347D01*
X8549907Y-81989788D01*
X8594685Y-81971229D01*
X8638607Y-81990938D01*
X8686441Y-82023513D01*
X8869201Y-82109838D01*
X9042796Y-82131459D01*
X9201500Y-82087396D01*
X9230857Y-82070365D01*
X9339893Y-81962978D01*
X9406202Y-81820530D01*
X9426741Y-81661709D01*
X9398469Y-81505205D01*
X9318341Y-81369704D01*
X9297989Y-81348605D01*
X9161403Y-81260411D01*
X9004425Y-81231266D01*
X8842046Y-81261597D01*
X8689257Y-81351829D01*
X8586868Y-81437984D01*
X8471717Y-81294694D01*
X8434758Y-81246387D01*
X8388782Y-81160986D01*
X8395328Y-81093551D01*
X8458903Y-81030589D01*
X8584017Y-80958604D01*
X8809386Y-80875630D01*
X9036844Y-80851986D01*
X9255145Y-80883351D01*
G37*
G36*
X14064348Y-81875363D02*
G01*
X13981605Y-82073645D01*
X13831528Y-82260974D01*
X13804848Y-82287053D01*
X13649648Y-82412931D01*
X13512674Y-82477999D01*
X13460126Y-82490488D01*
X13184595Y-82516294D01*
X12910173Y-82480547D01*
X12814251Y-82443795D01*
X12666079Y-82348783D01*
X12526235Y-82221340D01*
X12413933Y-82079861D01*
X12348387Y-81942739D01*
X12317883Y-81795782D01*
X12318235Y-81684377D01*
X12763740Y-81684377D01*
X12775449Y-81779844D01*
X12842903Y-81935803D01*
X12959644Y-82065087D01*
X13040870Y-82110738D01*
X13199866Y-82137948D01*
X13214294Y-82137713D01*
X13370803Y-82102086D01*
X13496920Y-82015524D01*
X13585594Y-81891883D01*
X13629773Y-81745025D01*
X13622406Y-81588808D01*
X13556443Y-81437091D01*
X13479818Y-81344213D01*
X13346027Y-81258883D01*
X13178404Y-81231319D01*
X13127677Y-81235131D01*
X12988659Y-81287421D01*
X12872683Y-81389537D01*
X12793221Y-81526761D01*
X12763740Y-81684377D01*
X12318235Y-81684377D01*
X12318619Y-81562937D01*
X12386121Y-81348728D01*
X12521054Y-81150106D01*
X12658120Y-81024432D01*
X12852919Y-80916878D01*
X13063888Y-80861767D01*
X13280116Y-80856651D01*
X13490696Y-80899079D01*
X13684717Y-80986603D01*
X13851272Y-81116773D01*
X13979451Y-81287141D01*
X14058345Y-81495256D01*
X14082144Y-81658072D01*
X14075023Y-81745025D01*
X14064348Y-81875363D01*
G37*
G36*
X4242502Y-81664458D02*
G01*
X4243416Y-81759040D01*
X4243807Y-81992164D01*
X4241399Y-82189835D01*
X4236429Y-82343478D01*
X4229136Y-82444517D01*
X4219758Y-82484375D01*
X4193905Y-82491540D01*
X4111805Y-82498885D01*
X4001023Y-82499892D01*
X3814427Y-82495490D01*
X3804156Y-82286318D01*
X3793885Y-82077146D01*
X3539144Y-82060797D01*
X3524829Y-82059818D01*
X3281052Y-82019697D01*
X3093158Y-81938262D01*
X2960164Y-81814620D01*
X2881089Y-81647873D01*
X2854949Y-81437127D01*
X2855305Y-81426257D01*
X3277518Y-81426257D01*
X3286725Y-81539039D01*
X3338625Y-81627711D01*
X3339261Y-81628280D01*
X3407266Y-81664068D01*
X3509409Y-81693238D01*
X3620705Y-81711638D01*
X3716168Y-81715117D01*
X3770814Y-81699524D01*
X3783055Y-81661162D01*
X3793119Y-81570924D01*
X3796982Y-81451776D01*
X3796982Y-81230805D01*
X3593048Y-81230805D01*
X3483725Y-81234879D01*
X3389793Y-81254530D01*
X3331373Y-81294610D01*
X3311691Y-81320973D01*
X3277518Y-81426257D01*
X2855305Y-81426257D01*
X2856818Y-81380002D01*
X2897598Y-81195217D01*
X2994327Y-81050034D01*
X3150483Y-80938585D01*
X3167256Y-80930172D01*
X3234591Y-80902834D01*
X3312960Y-80884475D01*
X3417041Y-80873345D01*
X3561514Y-80867694D01*
X3761060Y-80865769D01*
X4233108Y-80864459D01*
X4240005Y-81451776D01*
X4242502Y-81664458D01*
G37*
G36*
X-145601Y-84876822D02*
G01*
X-145601Y-85696739D01*
X-354941Y-85696739D01*
X-564282Y-85696739D01*
X-564282Y-85469953D01*
X-564282Y-85243168D01*
X-719363Y-85243168D01*
X-772050Y-85243659D01*
X-835880Y-85252384D01*
X-882357Y-85282615D01*
X-928108Y-85347761D01*
X-989761Y-85461231D01*
X-1105079Y-85679294D01*
X-1340587Y-85689611D01*
X-1451881Y-85691108D01*
X-1543268Y-85682755D01*
X-1576095Y-85664299D01*
X-1574725Y-85657472D01*
X-1547820Y-85600645D01*
X-1493587Y-85506799D01*
X-1421341Y-85392307D01*
X-1266587Y-85155942D01*
X-1355868Y-85088837D01*
X-1361588Y-85084427D01*
X-1456897Y-84969248D01*
X-1518549Y-84813591D01*
X-1543399Y-84638727D01*
X-1543103Y-84635338D01*
X-1121990Y-84635338D01*
X-1112581Y-84729483D01*
X-1067786Y-84804927D01*
X-971260Y-84857194D01*
X-949633Y-84864318D01*
X-840411Y-84885672D01*
X-719016Y-84894267D01*
X-564282Y-84894267D01*
X-564282Y-84650036D01*
X-564282Y-84405805D01*
X-785660Y-84405805D01*
X-934797Y-84415787D01*
X-1044738Y-84453573D01*
X-1104394Y-84524885D01*
X-1121990Y-84635338D01*
X-1543103Y-84635338D01*
X-1528301Y-84465923D01*
X-1470109Y-84316451D01*
X-1420932Y-84247734D01*
X-1335599Y-84170330D01*
X-1223798Y-84115809D01*
X-1074876Y-84080908D01*
X-878176Y-84062361D01*
X-623047Y-84056904D01*
X-145601Y-84056904D01*
X-145601Y-84650036D01*
X-145601Y-84876822D01*
G37*
G36*
X4145883Y-88086712D02*
G01*
X4145883Y-88906629D01*
X3936542Y-88906629D01*
X3727201Y-88906629D01*
X3727201Y-88679844D01*
X3727201Y-88453058D01*
X3573199Y-88453058D01*
X3513845Y-88453871D01*
X3453381Y-88464072D01*
X3406973Y-88496526D01*
X3358632Y-88564147D01*
X3292370Y-88679844D01*
X3165544Y-88906629D01*
X2940466Y-88906629D01*
X2834435Y-88902828D01*
X2747683Y-88890147D01*
X2715388Y-88870884D01*
X2715981Y-88866689D01*
X2739330Y-88813229D01*
X2789882Y-88721577D01*
X2858280Y-88608886D01*
X3001172Y-88382633D01*
X2894638Y-88261298D01*
X2792275Y-88106645D01*
X2736761Y-87927265D01*
X2736499Y-87881869D01*
X3175372Y-87881869D01*
X3179195Y-87916584D01*
X3208766Y-88005784D01*
X3273630Y-88059228D01*
X3311872Y-88073495D01*
X3420091Y-88094965D01*
X3544028Y-88103642D01*
X3727201Y-88104157D01*
X3727201Y-87859926D01*
X3727201Y-87615695D01*
X3505823Y-87615695D01*
X3469893Y-87616087D01*
X3319526Y-87632465D01*
X3225841Y-87677772D01*
X3180551Y-87758682D01*
X3175372Y-87881869D01*
X2736499Y-87881869D01*
X2735722Y-87747204D01*
X2787097Y-87579699D01*
X2888824Y-87437990D01*
X3038843Y-87335312D01*
X3112502Y-87307130D01*
X3197656Y-87287728D01*
X3308536Y-87275722D01*
X3459809Y-87269527D01*
X3666144Y-87267560D01*
X4145883Y-87266794D01*
X4145883Y-87859926D01*
X4145883Y-88086712D01*
G37*
G36*
X-3529941Y-88070007D02*
G01*
X-3530227Y-88102236D01*
X-3559145Y-88367336D01*
X-3635550Y-88581409D01*
X-3759531Y-88744631D01*
X-3931178Y-88857177D01*
X-3938189Y-88860209D01*
X-4085925Y-88896704D01*
X-4264470Y-88904451D01*
X-4443276Y-88884366D01*
X-4591797Y-88837367D01*
X-4713355Y-88755823D01*
X-4842044Y-88603889D01*
X-4926497Y-88414851D01*
X-4938787Y-88360265D01*
X-4955541Y-88204710D01*
X-4958156Y-88040565D01*
X-4523131Y-88040565D01*
X-4516475Y-88220520D01*
X-4481731Y-88376980D01*
X-4422439Y-88495257D01*
X-4342139Y-88560663D01*
X-4267302Y-88585344D01*
X-4210364Y-88584444D01*
X-4131288Y-88556453D01*
X-4110647Y-88546761D01*
X-4050615Y-88491776D01*
X-4011376Y-88398026D01*
X-3989988Y-88255517D01*
X-3983513Y-88054255D01*
X-3986039Y-87947364D01*
X-4008042Y-87777039D01*
X-4055670Y-87663595D01*
X-4132551Y-87600396D01*
X-4242314Y-87580805D01*
X-4298679Y-87585554D01*
X-4393590Y-87629908D01*
X-4460162Y-87727135D01*
X-4504975Y-87884852D01*
X-4523131Y-88040565D01*
X-4958156Y-88040565D01*
X-4958413Y-88024413D01*
X-4947546Y-87849321D01*
X-4923086Y-87709377D01*
X-4900896Y-87645631D01*
X-4799689Y-87486298D01*
X-4651821Y-87361433D01*
X-4470966Y-87278125D01*
X-4270795Y-87243461D01*
X-4064981Y-87264529D01*
X-3893986Y-87325809D01*
X-3731702Y-87439809D01*
X-3618273Y-87599825D01*
X-3551689Y-87808883D01*
X-3531253Y-88054255D01*
X-3529941Y-88070007D01*
G37*
G36*
X3308520Y-84878486D02*
G01*
X3308520Y-85700069D01*
X3090457Y-85689681D01*
X2872394Y-85679294D01*
X2872394Y-85461167D01*
X2872394Y-85243040D01*
X2727114Y-85243104D01*
X2676311Y-85243886D01*
X2616672Y-85254005D01*
X2570292Y-85286399D01*
X2521596Y-85354053D01*
X2455008Y-85469953D01*
X2328182Y-85696739D01*
X2103104Y-85696739D01*
X2014884Y-85694728D01*
X1912301Y-85681373D01*
X1878026Y-85655559D01*
X1878494Y-85651522D01*
X1901725Y-85596666D01*
X1953005Y-85504420D01*
X2022668Y-85392374D01*
X2167310Y-85170369D01*
X2079266Y-85075930D01*
X2030482Y-85020590D01*
X1958166Y-84909810D01*
X1922517Y-84787793D01*
X1914300Y-84647558D01*
X2333351Y-84647558D01*
X2345166Y-84753461D01*
X2386868Y-84826923D01*
X2428868Y-84847432D01*
X2527054Y-84872124D01*
X2648544Y-84887724D01*
X2854949Y-84902654D01*
X2854949Y-84654229D01*
X2854949Y-84405805D01*
X2651016Y-84405805D01*
X2541692Y-84409879D01*
X2447760Y-84429530D01*
X2389340Y-84469610D01*
X2351214Y-84539730D01*
X2333351Y-84647558D01*
X1914300Y-84647558D01*
X1913046Y-84626162D01*
X1917487Y-84531692D01*
X1961065Y-84354414D01*
X2054399Y-84221300D01*
X2201480Y-84125422D01*
X2275139Y-84097239D01*
X2360294Y-84077838D01*
X2471173Y-84065832D01*
X2622446Y-84059637D01*
X2828781Y-84057670D01*
X3308520Y-84056904D01*
X3308520Y-84654229D01*
X3308520Y-84878486D01*
G37*
G36*
X5820608Y-88088377D02*
G01*
X5820608Y-88909959D01*
X5602545Y-88899572D01*
X5384482Y-88889184D01*
X5374094Y-88671121D01*
X5363707Y-88453058D01*
X5217089Y-88453965D01*
X5173883Y-88454629D01*
X5110478Y-88463317D01*
X5064603Y-88493277D01*
X5020092Y-88558263D01*
X4960781Y-88672028D01*
X4851091Y-88889184D01*
X4603157Y-88899435D01*
X4590060Y-88899952D01*
X4471248Y-88902129D01*
X4387143Y-88899233D01*
X4355223Y-88891801D01*
X4357555Y-88885152D01*
X4386668Y-88832566D01*
X4442083Y-88741624D01*
X4514908Y-88627068D01*
X4674593Y-88380221D01*
X4554530Y-88247326D01*
X4531219Y-88219865D01*
X4435229Y-88047105D01*
X4406880Y-87894959D01*
X4825006Y-87894959D01*
X4870508Y-87998188D01*
X4880583Y-88010060D01*
X4937875Y-88055633D01*
X5021251Y-88082075D01*
X5152507Y-88097026D01*
X5367037Y-88112544D01*
X5367037Y-87864119D01*
X5367037Y-87615695D01*
X5164364Y-87615695D01*
X5077077Y-87619468D01*
X4969042Y-87635308D01*
X4903159Y-87659308D01*
X4878372Y-87681940D01*
X4828558Y-87779874D01*
X4825006Y-87894959D01*
X4406880Y-87894959D01*
X4399200Y-87853741D01*
X4427099Y-87658124D01*
X4445072Y-87606828D01*
X4505840Y-87487285D01*
X4589834Y-87398151D01*
X4706193Y-87335518D01*
X4864058Y-87295480D01*
X5072570Y-87274130D01*
X5340869Y-87267560D01*
X5820608Y-87266794D01*
X5820608Y-87864119D01*
X5820608Y-88088377D01*
G37*
G36*
X20166418Y-80891709D02*
G01*
X20378585Y-80985849D01*
X20558242Y-81128668D01*
X20691095Y-81312683D01*
X20746357Y-81471015D01*
X20768737Y-81674220D01*
X20750382Y-81878781D01*
X20691286Y-82055696D01*
X20689260Y-82059564D01*
X20598601Y-82190733D01*
X20474717Y-82318724D01*
X20339332Y-82423917D01*
X20214165Y-82486690D01*
X20190730Y-82493268D01*
X20020874Y-82514239D01*
X19827118Y-82504540D01*
X19639644Y-82467508D01*
X19488638Y-82406480D01*
X19379441Y-82339408D01*
X19298856Y-82274720D01*
X19272826Y-82217910D01*
X19296748Y-82156678D01*
X19366021Y-82078725D01*
X19490796Y-81953950D01*
X19602021Y-82033149D01*
X19616321Y-82042709D01*
X19733451Y-82097468D01*
X19858341Y-82128229D01*
X20013255Y-82116552D01*
X20145258Y-82051335D01*
X20244810Y-81945037D01*
X20306094Y-81810539D01*
X20323296Y-81660724D01*
X20290598Y-81508473D01*
X20202185Y-81366668D01*
X20170272Y-81334850D01*
X20035068Y-81258118D01*
X19875513Y-81239531D01*
X19702501Y-81278933D01*
X19526924Y-81376174D01*
X19526837Y-81376237D01*
X19483087Y-81394284D01*
X19436844Y-81371936D01*
X19369918Y-81300415D01*
X19345006Y-81269194D01*
X19291904Y-81188401D01*
X19270745Y-81132348D01*
X19279352Y-81107090D01*
X19338513Y-81049318D01*
X19439430Y-80987017D01*
X19565070Y-80928667D01*
X19698399Y-80882748D01*
X19822382Y-80857738D01*
X19936036Y-80853735D01*
X20166418Y-80891709D01*
G37*
G36*
X9026024Y-84033384D02*
G01*
X9195007Y-84077936D01*
X9304066Y-84120820D01*
X9507541Y-84247489D01*
X9655921Y-84414787D01*
X9746588Y-84619211D01*
X9776925Y-84857254D01*
X9776703Y-84876686D01*
X9741242Y-85122459D01*
X9647085Y-85332913D01*
X9496800Y-85503947D01*
X9292948Y-85631457D01*
X9169601Y-85673026D01*
X8956996Y-85697903D01*
X8740751Y-85676740D01*
X8549599Y-85610354D01*
X8531911Y-85601012D01*
X8380403Y-85513638D01*
X8291771Y-85445562D01*
X8262916Y-85394449D01*
X8268469Y-85379077D01*
X8310491Y-85321908D01*
X8380240Y-85247812D01*
X8497563Y-85134097D01*
X8629339Y-85223523D01*
X8732492Y-85280279D01*
X8896453Y-85317825D01*
X9051236Y-85289954D01*
X9188241Y-85197073D01*
X9198927Y-85186117D01*
X9300595Y-85034612D01*
X9336175Y-84867457D01*
X9303822Y-84692705D01*
X9272773Y-84630552D01*
X9174628Y-84517190D01*
X9049091Y-84436525D01*
X8919278Y-84405805D01*
X8884295Y-84408630D01*
X8780128Y-84435816D01*
X8670037Y-84482498D01*
X8578695Y-84537099D01*
X8530777Y-84588045D01*
X8515807Y-84592979D01*
X8467778Y-84564708D01*
X8403036Y-84507356D01*
X8337175Y-84436698D01*
X8285786Y-84368514D01*
X8264464Y-84318580D01*
X8272912Y-84295706D01*
X8329903Y-84240520D01*
X8426030Y-84177771D01*
X8544090Y-84118008D01*
X8666879Y-84071782D01*
X8712113Y-84058748D01*
X8876778Y-84027124D01*
X9026024Y-84033384D01*
G37*
G36*
X-2348088Y-84059393D02*
G01*
X-2118197Y-84154140D01*
X-2109901Y-84158736D01*
X-1924905Y-84301056D01*
X-1790408Y-84489861D01*
X-1710255Y-84719816D01*
X-1694449Y-84915907D01*
X-1735629Y-85136377D01*
X-1835051Y-85336910D01*
X-1986522Y-85505600D01*
X-2183853Y-85630541D01*
X-2186384Y-85631681D01*
X-2348912Y-85678700D01*
X-2548135Y-85695973D01*
X-2588507Y-85695746D01*
X-2723272Y-85684911D01*
X-2841410Y-85651181D01*
X-2979260Y-85585224D01*
X-3085437Y-85523507D01*
X-3168513Y-85465291D01*
X-3207162Y-85425033D01*
X-3206755Y-85402560D01*
X-3172326Y-85335543D01*
X-3104247Y-85254762D01*
X-2982652Y-85133168D01*
X-2850192Y-85223058D01*
X-2746407Y-85280183D01*
X-2582348Y-85317832D01*
X-2427613Y-85289999D01*
X-2290605Y-85197073D01*
X-2279919Y-85186117D01*
X-2178251Y-85034612D01*
X-2142671Y-84867457D01*
X-2175025Y-84692705D01*
X-2205914Y-84630796D01*
X-2304099Y-84517287D01*
X-2429802Y-84436547D01*
X-2559911Y-84405805D01*
X-2561504Y-84405811D01*
X-2684055Y-84429001D01*
X-2821308Y-84487522D01*
X-2939636Y-84567089D01*
X-2954946Y-84579153D01*
X-2991995Y-84588214D01*
X-3036787Y-84557281D01*
X-3105364Y-84477702D01*
X-3144069Y-84427686D01*
X-3195701Y-84352900D01*
X-3215930Y-84310976D01*
X-3215603Y-84307611D01*
X-3180204Y-84263155D01*
X-3098916Y-84205794D01*
X-2989623Y-84145500D01*
X-2870208Y-84092242D01*
X-2758557Y-84055992D01*
X-2573954Y-84031395D01*
X-2348088Y-84059393D01*
G37*
G36*
X19244256Y-82483637D02*
G01*
X19048160Y-82493965D01*
X19031598Y-82494798D01*
X18900872Y-82494833D01*
X18818999Y-82473232D01*
X18767783Y-82420478D01*
X18729028Y-82327053D01*
X18689647Y-82207728D01*
X18342588Y-82207728D01*
X17995529Y-82207728D01*
X17961524Y-82303676D01*
X17950874Y-82333396D01*
X17910399Y-82427132D01*
X17862863Y-82475872D01*
X17787440Y-82492669D01*
X17663306Y-82490572D01*
X17570471Y-82484973D01*
X17482415Y-82476340D01*
X17443270Y-82467827D01*
X17444197Y-82459269D01*
X17464426Y-82399006D01*
X17505894Y-82290524D01*
X17564082Y-82144617D01*
X17634468Y-81972082D01*
X17681404Y-81858827D01*
X18140093Y-81858827D01*
X18334133Y-81858827D01*
X18443604Y-81857201D01*
X18499186Y-81847223D01*
X18515059Y-81821262D01*
X18506301Y-81771684D01*
X18493384Y-81729023D01*
X18455087Y-81624792D01*
X18406571Y-81507960D01*
X18328712Y-81331379D01*
X18234403Y-81595103D01*
X18140093Y-81858827D01*
X17681404Y-81858827D01*
X17712534Y-81783713D01*
X17793758Y-81590305D01*
X17873621Y-81402654D01*
X17947603Y-81231554D01*
X18011183Y-81087802D01*
X18059842Y-80982191D01*
X18089059Y-80925517D01*
X18095962Y-80915026D01*
X18140048Y-80872321D01*
X18209074Y-80852111D01*
X18325245Y-80847014D01*
X18389427Y-80849237D01*
X18491468Y-80864512D01*
X18545919Y-80890627D01*
X18558445Y-80913110D01*
X18597149Y-80994145D01*
X18656075Y-81123670D01*
X18731005Y-81292260D01*
X18817723Y-81490490D01*
X18912015Y-81708938D01*
X18960187Y-81821262D01*
X19244256Y-82483637D01*
G37*
G36*
X9030498Y-88086712D02*
G01*
X9030498Y-88400723D01*
X9030498Y-88906629D01*
X8533314Y-88905863D01*
X8380389Y-88904261D01*
X8163491Y-88893966D01*
X7997929Y-88871807D01*
X7872265Y-88835072D01*
X7775066Y-88781048D01*
X7694895Y-88707024D01*
X7652851Y-88648792D01*
X7602622Y-88504152D01*
X7604339Y-88370621D01*
X8056238Y-88370621D01*
X8067434Y-88458684D01*
X8121061Y-88521610D01*
X8160631Y-88535158D01*
X8261390Y-88551394D01*
X8382737Y-88557728D01*
X8576927Y-88557728D01*
X8576927Y-88400723D01*
X8576927Y-88243717D01*
X8357119Y-88243717D01*
X8256536Y-88247741D01*
X8152163Y-88262757D01*
X8095443Y-88285585D01*
X8091034Y-88290236D01*
X8056238Y-88370621D01*
X7604339Y-88370621D01*
X7604614Y-88349207D01*
X7656715Y-88204916D01*
X7756816Y-88092236D01*
X7846423Y-88026962D01*
X7760396Y-87947234D01*
X7742890Y-87929596D01*
X7669662Y-87805236D01*
X7664010Y-87771718D01*
X8091110Y-87771718D01*
X8130333Y-87852948D01*
X8166048Y-87870317D01*
X8257207Y-87887975D01*
X8374564Y-87894816D01*
X8576927Y-87894816D01*
X8576927Y-87732929D01*
X8576927Y-87571043D01*
X8382621Y-87591097D01*
X8303396Y-87602125D01*
X8199615Y-87626005D01*
X8138391Y-87652585D01*
X8109604Y-87685958D01*
X8091110Y-87771718D01*
X7664010Y-87771718D01*
X7645214Y-87660248D01*
X7675180Y-87522715D01*
X7687998Y-87500508D01*
X7766751Y-87417831D01*
X7877795Y-87345297D01*
X7928162Y-87321477D01*
X7996559Y-87297143D01*
X8076612Y-87281250D01*
X8182850Y-87272057D01*
X8329798Y-87267819D01*
X8531984Y-87266794D01*
X9030498Y-87266794D01*
X9030498Y-87732929D01*
X9030498Y-88086712D01*
G37*
G36*
X-2037718Y-81664458D02*
G01*
X-2036804Y-81759040D01*
X-2036413Y-81992164D01*
X-2038821Y-82189835D01*
X-2043791Y-82343478D01*
X-2051084Y-82444517D01*
X-2060462Y-82484375D01*
X-2086314Y-82491540D01*
X-2168414Y-82498885D01*
X-2279196Y-82499892D01*
X-2465793Y-82495490D01*
X-2476181Y-82281829D01*
X-2486568Y-82068168D01*
X-2641406Y-82068168D01*
X-2685320Y-82068436D01*
X-2753040Y-82075793D01*
X-2800185Y-82103827D01*
X-2844047Y-82166434D01*
X-2901920Y-82277508D01*
X-3007594Y-82486849D01*
X-3251323Y-82486849D01*
X-3260594Y-82486837D01*
X-3379068Y-82484297D01*
X-3463111Y-82478192D01*
X-3495051Y-82469761D01*
X-3493399Y-82464681D01*
X-3466240Y-82414873D01*
X-3412655Y-82326081D01*
X-3341627Y-82213315D01*
X-3188202Y-81973956D01*
X-3292392Y-81875618D01*
X-3336489Y-81831058D01*
X-3411240Y-81724277D01*
X-3449410Y-81598326D01*
X-3460031Y-81429152D01*
X-3459855Y-81425278D01*
X-3037723Y-81425278D01*
X-3028038Y-81539206D01*
X-2974277Y-81629709D01*
X-2948156Y-81647854D01*
X-2842752Y-81685987D01*
X-2695156Y-81709742D01*
X-2483238Y-81728958D01*
X-2483238Y-81479882D01*
X-2483238Y-81230805D01*
X-2704616Y-81230805D01*
X-2709240Y-81230809D01*
X-2844726Y-81236670D01*
X-2930072Y-81256531D01*
X-2983737Y-81294610D01*
X-3002447Y-81319309D01*
X-3037723Y-81425278D01*
X-3459855Y-81425278D01*
X-3456552Y-81352463D01*
X-3411857Y-81177270D01*
X-3312367Y-81042605D01*
X-3153942Y-80941878D01*
X-3136211Y-80933994D01*
X-3058453Y-80904953D01*
X-2973372Y-80885477D01*
X-2865362Y-80873697D01*
X-2718816Y-80867743D01*
X-2518128Y-80865749D01*
X-2047112Y-80864459D01*
X-2039885Y-81479882D01*
X-2037718Y-81664458D01*
G37*
G36*
X6518410Y-84876822D02*
G01*
X6518410Y-85190833D01*
X6518410Y-85696739D01*
X6021226Y-85695973D01*
X6013777Y-85695960D01*
X5804709Y-85693933D01*
X5650957Y-85687811D01*
X5538535Y-85676165D01*
X5453458Y-85657563D01*
X5381739Y-85630576D01*
X5354319Y-85617543D01*
X5204335Y-85514032D01*
X5116525Y-85381883D01*
X5087916Y-85216913D01*
X5088117Y-85194369D01*
X5092051Y-85160731D01*
X5544150Y-85160731D01*
X5555346Y-85248794D01*
X5608974Y-85311720D01*
X5648543Y-85325268D01*
X5749302Y-85341504D01*
X5870649Y-85347838D01*
X6064839Y-85347838D01*
X6064839Y-85190833D01*
X6064839Y-85033827D01*
X5845031Y-85033827D01*
X5744448Y-85037851D01*
X5640075Y-85052866D01*
X5583355Y-85075695D01*
X5578946Y-85080346D01*
X5544150Y-85160731D01*
X5092051Y-85160731D01*
X5099449Y-85097468D01*
X5138308Y-85019912D01*
X5218754Y-84930977D01*
X5349591Y-84801447D01*
X5254926Y-84724150D01*
X5240963Y-84712172D01*
X5157133Y-84596596D01*
X5143177Y-84523918D01*
X5591534Y-84523918D01*
X5612620Y-84617673D01*
X5620674Y-84630997D01*
X5660758Y-84664356D01*
X5733274Y-84680633D01*
X5856726Y-84684926D01*
X6064839Y-84684926D01*
X6064839Y-84527920D01*
X6064839Y-84370915D01*
X5927550Y-84370915D01*
X5879402Y-84372133D01*
X5730849Y-84396507D01*
X5632918Y-84448649D01*
X5591534Y-84523918D01*
X5143177Y-84523918D01*
X5131940Y-84465404D01*
X5162373Y-84333254D01*
X5245421Y-84214803D01*
X5378073Y-84124709D01*
X5385974Y-84121177D01*
X5458659Y-84094671D01*
X5544342Y-84076545D01*
X5657208Y-84065322D01*
X5811441Y-84059524D01*
X6021226Y-84057670D01*
X6518410Y-84056904D01*
X6518410Y-84527920D01*
X6518410Y-84876822D01*
G37*
G36*
X17291420Y-81648697D02*
G01*
X17292621Y-81760623D01*
X17294096Y-81979022D01*
X17294237Y-82169477D01*
X17293099Y-82321533D01*
X17290736Y-82424731D01*
X17287200Y-82468614D01*
X17262692Y-82483025D01*
X17181370Y-82493588D01*
X17059726Y-82492473D01*
X16845883Y-82480651D01*
X16845883Y-82274409D01*
X16845883Y-82068168D01*
X16695292Y-82068168D01*
X16655247Y-82068399D01*
X16588177Y-82075535D01*
X16541999Y-82103345D01*
X16499796Y-82165959D01*
X16444646Y-82277508D01*
X16391172Y-82381745D01*
X16344479Y-82458737D01*
X16316116Y-82488901D01*
X16282134Y-82489804D01*
X16194660Y-82490634D01*
X16078300Y-82490954D01*
X15983161Y-82490737D01*
X15893171Y-82489993D01*
X15851743Y-82488901D01*
X15851140Y-82484813D01*
X15872583Y-82439156D01*
X15921874Y-82353765D01*
X15991304Y-82242261D01*
X16016445Y-82202770D01*
X16083633Y-82094203D01*
X16130483Y-82013879D01*
X16148080Y-81976884D01*
X16148076Y-81976665D01*
X16122973Y-81942382D01*
X16063598Y-81889641D01*
X16039446Y-81868943D01*
X15942927Y-81736293D01*
X15890793Y-81571464D01*
X15888152Y-81499784D01*
X16308154Y-81499784D01*
X16360388Y-81605263D01*
X16464361Y-81673685D01*
X16465391Y-81674041D01*
X16588143Y-81703797D01*
X16715045Y-81717297D01*
X16845883Y-81719267D01*
X16845883Y-81475036D01*
X16845883Y-81230805D01*
X16656841Y-81230805D01*
X16523462Y-81234877D01*
X16421044Y-81252995D01*
X16359024Y-81290924D01*
X16321986Y-81354353D01*
X16315218Y-81374207D01*
X16308154Y-81499784D01*
X15888152Y-81499784D01*
X15884237Y-81393511D01*
X15924450Y-81221491D01*
X16012623Y-81074458D01*
X16068515Y-81017314D01*
X16155444Y-80955101D01*
X16262585Y-80912002D01*
X16402254Y-80884866D01*
X16586766Y-80870547D01*
X16828438Y-80865894D01*
X17282009Y-80864459D01*
X17289336Y-81475036D01*
X17291420Y-81648697D01*
G37*
G36*
X-4157729Y-80871633D02*
G01*
X-3962157Y-80935338D01*
X-3820182Y-81041097D01*
X-3733647Y-81187246D01*
X-3704392Y-81372122D01*
X-3724083Y-81491342D01*
X-3806887Y-81623095D01*
X-3954911Y-81732239D01*
X-4168740Y-81819340D01*
X-4316713Y-81867001D01*
X-4433762Y-81912137D01*
X-4502293Y-81952510D01*
X-4532643Y-81994468D01*
X-4535149Y-82044361D01*
X-4531246Y-82064258D01*
X-4507275Y-82101283D01*
X-4449425Y-82120908D01*
X-4339753Y-82131097D01*
X-4314795Y-82132320D01*
X-4196457Y-82127893D01*
X-4088865Y-82098337D01*
X-3958736Y-82035283D01*
X-3862638Y-81984809D01*
X-3786798Y-81948239D01*
X-3755067Y-81937464D01*
X-3754179Y-81938598D01*
X-3729830Y-81981479D01*
X-3690489Y-82059060D01*
X-3647877Y-82147149D01*
X-3613714Y-82221554D01*
X-3599722Y-82258086D01*
X-3616106Y-82275722D01*
X-3680910Y-82315957D01*
X-3777580Y-82366611D01*
X-3887311Y-82418469D01*
X-3991299Y-82462314D01*
X-4070738Y-82488932D01*
X-4133063Y-82502451D01*
X-4355110Y-82521776D01*
X-4557958Y-82496906D01*
X-4733364Y-82433134D01*
X-4873083Y-82335756D01*
X-4968870Y-82210065D01*
X-5012482Y-82061358D01*
X-4995674Y-81894929D01*
X-4991606Y-81881310D01*
X-4938165Y-81765751D01*
X-4851099Y-81674015D01*
X-4718409Y-81596583D01*
X-4528098Y-81523935D01*
X-4482438Y-81508651D01*
X-4353219Y-81462499D01*
X-4253398Y-81422634D01*
X-4201576Y-81396326D01*
X-4163695Y-81346827D01*
X-4173016Y-81280735D01*
X-4244267Y-81224876D01*
X-4290272Y-81213560D01*
X-4414984Y-81222661D01*
X-4585500Y-81269010D01*
X-4794399Y-81350909D01*
X-4800165Y-81353253D01*
X-4840866Y-81352431D01*
X-4879554Y-81308372D01*
X-4927292Y-81209287D01*
X-4962015Y-81125669D01*
X-4980222Y-81062528D01*
X-4971369Y-81025792D01*
X-4936324Y-80994795D01*
X-4936191Y-80994698D01*
X-4811751Y-80931789D01*
X-4643464Y-80884172D01*
X-4456506Y-80857141D01*
X-4276056Y-80855987D01*
X-4157729Y-80871633D01*
G37*
G36*
X15624729Y-81656306D02*
G01*
X15624500Y-81801810D01*
X15623236Y-82019732D01*
X15622838Y-82053410D01*
X15621016Y-82207359D01*
X15618010Y-82354819D01*
X15614388Y-82452242D01*
X15610322Y-82489757D01*
X15594570Y-82492451D01*
X15519880Y-82494774D01*
X15395024Y-82494574D01*
X15232138Y-82491911D01*
X15043358Y-82486849D01*
X15013686Y-82485903D01*
X14809554Y-82478423D01*
X14661370Y-82470019D01*
X14556830Y-82458924D01*
X14483627Y-82443369D01*
X14429457Y-82421586D01*
X14382015Y-82391806D01*
X14297522Y-82314489D01*
X14219045Y-82175323D01*
X14199806Y-82022145D01*
X14211708Y-81977902D01*
X14656317Y-81977902D01*
X14673939Y-82060092D01*
X14752476Y-82127838D01*
X14832221Y-82154718D01*
X14944271Y-82170404D01*
X15056870Y-82170344D01*
X15147129Y-82154748D01*
X15192156Y-82123824D01*
X15192670Y-82122429D01*
X15202223Y-82053410D01*
X15199783Y-81958096D01*
X15190711Y-81893582D01*
X15166816Y-81856047D01*
X15110154Y-81839065D01*
X15002256Y-81830726D01*
X14998025Y-81830491D01*
X14838733Y-81836614D01*
X14729720Y-81876544D01*
X14701198Y-81898801D01*
X14656317Y-81977902D01*
X14211708Y-81977902D01*
X14240713Y-81870083D01*
X14342669Y-81734266D01*
X14458632Y-81627150D01*
X14380271Y-81568043D01*
X14340861Y-81531692D01*
X14273038Y-81411273D01*
X14270237Y-81389506D01*
X14721183Y-81389506D01*
X14759454Y-81468058D01*
X14795168Y-81485427D01*
X14886328Y-81503085D01*
X15003685Y-81509926D01*
X15206048Y-81509926D01*
X15206048Y-81352920D01*
X15206048Y-81195915D01*
X15029303Y-81195915D01*
X14969832Y-81197783D01*
X14858954Y-81210761D01*
X14785072Y-81232033D01*
X14779832Y-81235042D01*
X14729163Y-81300896D01*
X14721183Y-81389506D01*
X14270237Y-81389506D01*
X14254756Y-81269203D01*
X14290912Y-81129514D01*
X14295019Y-81121404D01*
X14352210Y-81033876D01*
X14428095Y-80968055D01*
X14532858Y-80920571D01*
X14676682Y-80888056D01*
X14869750Y-80867139D01*
X15122245Y-80854451D01*
X15624729Y-80837392D01*
X15624729Y-81352920D01*
X15624729Y-81656306D01*
G37*
D11*
%TO.C,J9*%
X15010000Y-66065000D02*
X14489999Y-66065000D01*
X14490000Y-65735000D01*
X15009998Y-65735000D01*
X15010000Y-66065000D01*
G36*
X15010000Y-66065000D02*
G01*
X14489999Y-66065000D01*
X14490000Y-65735000D01*
X15009998Y-65735000D01*
X15010000Y-66065000D01*
G37*
X15010000Y-58865000D02*
X14490000Y-58865000D01*
X14490000Y-58535001D01*
X15009999Y-58535000D01*
X15010000Y-58865000D01*
G36*
X15010000Y-58865000D02*
G01*
X14490000Y-58865000D01*
X14490000Y-58535001D01*
X15009999Y-58535000D01*
X15010000Y-58865000D01*
G37*
X15010001Y-60864999D02*
X14490000Y-60865000D01*
X14490001Y-60535000D01*
X15009999Y-60534999D01*
X15010001Y-60864999D01*
G36*
X15010001Y-60864999D02*
G01*
X14490000Y-60865000D01*
X14490001Y-60535000D01*
X15009999Y-60534999D01*
X15010001Y-60864999D01*
G37*
X15010000Y-63665000D02*
X14490001Y-63665000D01*
X14489999Y-63335000D01*
X15009999Y-63334999D01*
X15010000Y-63665000D01*
G36*
X15010000Y-63665000D02*
G01*
X14490001Y-63665000D01*
X14489999Y-63335000D01*
X15009999Y-63334999D01*
X15010000Y-63665000D01*
G37*
X15009999Y-64935001D02*
X15010000Y-65265000D01*
X14490000Y-65265000D01*
X14490001Y-64934999D01*
X15009999Y-64935001D01*
G36*
X15009999Y-64935001D02*
G01*
X15010000Y-65265000D01*
X14490000Y-65265000D01*
X14490001Y-64934999D01*
X15009999Y-64935001D01*
G37*
X15010000Y-58465000D02*
X14490001Y-58464999D01*
X14489999Y-58135000D01*
X15010000Y-58134999D01*
X15010000Y-58465000D01*
G36*
X15010000Y-58465000D02*
G01*
X14490001Y-58464999D01*
X14489999Y-58135000D01*
X15010000Y-58134999D01*
X15010000Y-58465000D01*
G37*
X15010000Y-58935001D02*
X15010001Y-59264999D01*
X14490001Y-59265001D01*
X14490000Y-58935000D01*
X15010000Y-58935001D01*
G36*
X15010000Y-58935001D02*
G01*
X15010001Y-59264999D01*
X14490001Y-59265001D01*
X14490000Y-58935000D01*
X15010000Y-58935001D01*
G37*
X15010000Y-59665001D02*
X14489999Y-59664999D01*
X14490000Y-59335000D01*
X15010000Y-59335000D01*
X15010000Y-59665001D01*
G36*
X15010000Y-59665001D02*
G01*
X14489999Y-59664999D01*
X14490000Y-59335000D01*
X15010000Y-59335000D01*
X15010000Y-59665001D01*
G37*
X15010000Y-60065000D02*
X14490000Y-60065000D01*
X14490001Y-59735001D01*
X15010000Y-59735000D01*
X15010000Y-60065000D01*
G36*
X15010000Y-60065000D02*
G01*
X14490000Y-60065000D01*
X14490001Y-59735001D01*
X15010000Y-59735000D01*
X15010000Y-60065000D01*
G37*
X15010000Y-60135001D02*
X15010000Y-60465000D01*
X14490000Y-60465000D01*
X14489999Y-60135000D01*
X15010000Y-60135001D01*
G36*
X15010000Y-60135001D02*
G01*
X15010000Y-60465000D01*
X14490000Y-60465000D01*
X14489999Y-60135000D01*
X15010000Y-60135001D01*
G37*
X15010000Y-61335001D02*
X15010000Y-61665000D01*
X14490000Y-61665000D01*
X14490000Y-61335000D01*
X15010000Y-61335001D01*
G36*
X15010000Y-61335001D02*
G01*
X15010000Y-61665000D01*
X14490000Y-61665000D01*
X14490000Y-61335000D01*
X15010000Y-61335001D01*
G37*
X15010000Y-62065000D02*
X14490000Y-62065000D01*
X14490001Y-61735000D01*
X15010000Y-61735000D01*
X15010000Y-62065000D01*
G36*
X15010000Y-62065000D02*
G01*
X14490000Y-62065000D01*
X14490001Y-61735000D01*
X15010000Y-61735000D01*
X15010000Y-62065000D01*
G37*
X15010000Y-62135000D02*
X15009999Y-62465001D01*
X14490001Y-62465000D01*
X14489999Y-62134999D01*
X15010000Y-62135000D01*
G36*
X15010000Y-62135000D02*
G01*
X15009999Y-62465001D01*
X14490001Y-62465000D01*
X14489999Y-62134999D01*
X15010000Y-62135000D01*
G37*
X15010000Y-62535001D02*
X15010000Y-62864999D01*
X14489999Y-62865000D01*
X14490000Y-62535000D01*
X15010000Y-62535001D01*
G36*
X15010000Y-62535001D02*
G01*
X15010000Y-62864999D01*
X14489999Y-62865000D01*
X14490000Y-62535000D01*
X15010000Y-62535001D01*
G37*
X15009999Y-63264999D02*
X14490000Y-63265000D01*
X14490000Y-62935001D01*
X15010000Y-62935000D01*
X15009999Y-63264999D01*
G36*
X15009999Y-63264999D02*
G01*
X14490000Y-63265000D01*
X14490000Y-62935001D01*
X15010000Y-62935000D01*
X15009999Y-63264999D01*
G37*
X15010000Y-64465000D02*
X14490001Y-64465000D01*
X14490001Y-64135001D01*
X15010000Y-64135000D01*
X15010000Y-64465000D01*
G36*
X15010000Y-64465000D02*
G01*
X14490001Y-64465000D01*
X14490001Y-64135001D01*
X15010000Y-64135000D01*
X15010000Y-64465000D01*
G37*
X15010000Y-64535000D02*
X15010000Y-64865000D01*
X14489999Y-64864999D01*
X14489999Y-64534999D01*
X15010000Y-64535000D01*
G36*
X15010000Y-64535000D02*
G01*
X15010000Y-64865000D01*
X14489999Y-64864999D01*
X14489999Y-64534999D01*
X15010000Y-64535000D01*
G37*
X15010000Y-65665000D02*
X14490000Y-65664999D01*
X14489999Y-65335000D01*
X15010000Y-65334999D01*
X15010000Y-65665000D01*
G36*
X15010000Y-65665000D02*
G01*
X14490000Y-65664999D01*
X14489999Y-65335000D01*
X15010000Y-65334999D01*
X15010000Y-65665000D01*
G37*
X15010000Y-61265000D02*
X14490001Y-61265000D01*
X14490000Y-60935000D01*
X15010001Y-60934999D01*
X15010000Y-61265000D01*
G36*
X15010000Y-61265000D02*
G01*
X14490001Y-61265000D01*
X14490000Y-60935000D01*
X15010001Y-60934999D01*
X15010000Y-61265000D01*
G37*
X15010000Y-64065000D02*
X14489999Y-64064999D01*
X14490001Y-63735000D01*
X15010001Y-63735000D01*
X15010000Y-64065000D01*
G36*
X15010000Y-64065000D02*
G01*
X14489999Y-64064999D01*
X14490001Y-63735000D01*
X15010001Y-63735000D01*
X15010000Y-64065000D01*
G37*
X17190000Y-61665001D02*
X16669999Y-61665002D01*
X16670001Y-61335001D01*
X17189999Y-61334999D01*
X17190000Y-61665001D01*
G36*
X17190000Y-61665001D02*
G01*
X16669999Y-61665002D01*
X16670001Y-61335001D01*
X17189999Y-61334999D01*
X17190000Y-61665001D01*
G37*
X17189999Y-62535000D02*
X17190000Y-62865001D01*
X16670000Y-62865001D01*
X16670000Y-62534999D01*
X17189999Y-62535000D01*
G36*
X17189999Y-62535000D02*
G01*
X17190000Y-62865001D01*
X16670000Y-62865001D01*
X16670000Y-62534999D01*
X17189999Y-62535000D01*
G37*
X17190001Y-64465000D02*
X16670001Y-64465001D01*
X16670000Y-64135000D01*
X17189999Y-64134999D01*
X17190001Y-64465000D01*
G36*
X17190001Y-64465000D02*
G01*
X16670001Y-64465001D01*
X16670000Y-64135000D01*
X17189999Y-64134999D01*
X17190001Y-64465000D01*
G37*
X17190000Y-64864999D02*
X16670001Y-64864999D01*
X16669999Y-64535001D01*
X17189999Y-64535001D01*
X17190000Y-64864999D01*
G36*
X17190000Y-64864999D02*
G01*
X16670001Y-64864999D01*
X16669999Y-64535001D01*
X17189999Y-64535001D01*
X17190000Y-64864999D01*
G37*
X17189999Y-65335000D02*
X17190000Y-65665000D01*
X16670000Y-65665000D01*
X16670001Y-65334999D01*
X17189999Y-65335000D01*
G36*
X17189999Y-65335000D02*
G01*
X17190000Y-65665000D01*
X16670000Y-65665000D01*
X16670001Y-65334999D01*
X17189999Y-65335000D01*
G37*
X17190000Y-58865000D02*
X16670000Y-58865000D01*
X16670001Y-58535000D01*
X17190000Y-58535000D01*
X17190000Y-58865000D01*
G36*
X17190000Y-58865000D02*
G01*
X16670000Y-58865000D01*
X16670001Y-58535000D01*
X17190000Y-58535000D01*
X17190000Y-58865000D01*
G37*
X17190001Y-59265001D02*
X16669999Y-59265000D01*
X16670000Y-58935000D01*
X17190000Y-58935000D01*
X17190001Y-59265001D01*
G36*
X17190001Y-59265001D02*
G01*
X16669999Y-59265000D01*
X16670000Y-58935000D01*
X17190000Y-58935000D01*
X17190001Y-59265001D01*
G37*
X17189999Y-59664999D02*
X16669999Y-59665001D01*
X16670000Y-59335000D01*
X17190000Y-59335000D01*
X17189999Y-59664999D01*
G36*
X17189999Y-59664999D02*
G01*
X16669999Y-59665001D01*
X16670000Y-59335000D01*
X17190000Y-59335000D01*
X17189999Y-59664999D01*
G37*
X17190000Y-60064999D02*
X16670000Y-60065001D01*
X16670000Y-59735000D01*
X17190000Y-59735000D01*
X17190000Y-60064999D01*
G36*
X17190000Y-60064999D02*
G01*
X16670000Y-60065001D01*
X16670000Y-59735000D01*
X17190000Y-59735000D01*
X17190000Y-60064999D01*
G37*
X17190000Y-60465001D02*
X16670000Y-60465000D01*
X16670000Y-60135000D01*
X17190000Y-60135000D01*
X17190000Y-60465001D01*
G36*
X17190000Y-60465001D02*
G01*
X16670000Y-60465000D01*
X16670000Y-60135000D01*
X17190000Y-60135000D01*
X17190000Y-60465001D01*
G37*
X17189999Y-60864999D02*
X16670001Y-60865001D01*
X16670000Y-60535001D01*
X17190000Y-60535000D01*
X17189999Y-60864999D01*
G36*
X17189999Y-60864999D02*
G01*
X16670001Y-60865001D01*
X16670000Y-60535001D01*
X17190000Y-60535000D01*
X17189999Y-60864999D01*
G37*
X17190000Y-60935000D02*
X17190001Y-61265001D01*
X16669999Y-61265000D01*
X16670000Y-60934999D01*
X17190000Y-60935000D01*
G36*
X17190000Y-60935000D02*
G01*
X17190001Y-61265001D01*
X16669999Y-61265000D01*
X16670000Y-60934999D01*
X17190000Y-60935000D01*
G37*
X17190000Y-61735001D02*
X17189999Y-62064999D01*
X16670000Y-62065000D01*
X16670000Y-61734999D01*
X17190000Y-61735001D01*
G36*
X17190000Y-61735001D02*
G01*
X17189999Y-62064999D01*
X16670000Y-62065000D01*
X16670000Y-61734999D01*
X17190000Y-61735001D01*
G37*
X17190001Y-62464999D02*
X16670001Y-62465001D01*
X16670000Y-62135000D01*
X17190000Y-62135000D01*
X17190001Y-62464999D01*
G36*
X17190001Y-62464999D02*
G01*
X16670001Y-62465001D01*
X16670000Y-62135000D01*
X17190000Y-62135000D01*
X17190001Y-62464999D01*
G37*
X17190000Y-63665000D02*
X16670000Y-63665000D01*
X16670001Y-63335001D01*
X17190000Y-63335000D01*
X17190000Y-63665000D01*
G36*
X17190000Y-63665000D02*
G01*
X16670000Y-63665000D01*
X16670001Y-63335001D01*
X17190000Y-63335000D01*
X17190000Y-63665000D01*
G37*
X17189999Y-66065000D02*
X16670000Y-66065000D01*
X16669999Y-65735001D01*
X17190000Y-65735000D01*
X17189999Y-66065000D01*
G36*
X17189999Y-66065000D02*
G01*
X16670000Y-66065000D01*
X16669999Y-65735001D01*
X17190000Y-65735000D01*
X17189999Y-66065000D01*
G37*
X17190001Y-58135001D02*
X17190000Y-58465000D01*
X16670000Y-58465000D01*
X16670001Y-58134999D01*
X17190001Y-58135001D01*
G36*
X17190001Y-58135001D02*
G01*
X17190000Y-58465000D01*
X16670000Y-58465000D01*
X16670001Y-58134999D01*
X17190001Y-58135001D01*
G37*
X17190001Y-63265001D02*
X16670000Y-63265000D01*
X16670000Y-62935000D01*
X17190001Y-62934999D01*
X17190001Y-63265001D01*
G36*
X17190001Y-63265001D02*
G01*
X16670000Y-63265000D01*
X16670000Y-62935000D01*
X17190001Y-62934999D01*
X17190001Y-63265001D01*
G37*
X17190001Y-63735001D02*
X17189999Y-64065000D01*
X16670000Y-64065000D01*
X16669999Y-63734999D01*
X17190001Y-63735001D01*
G36*
X17190001Y-63735001D02*
G01*
X17189999Y-64065000D01*
X16670000Y-64065000D01*
X16669999Y-63734999D01*
X17190001Y-63735001D01*
G37*
X17190000Y-65265000D02*
X16670000Y-65265000D01*
X16669999Y-64935000D01*
X17190001Y-64935000D01*
X17190000Y-65265000D01*
G36*
X17190000Y-65265000D02*
G01*
X16670000Y-65265000D01*
X16669999Y-64935000D01*
X17190001Y-64935000D01*
X17190000Y-65265000D01*
G37*
D10*
%TO.C,G\u002A\u002A\u002A*%
G36*
X-2796610Y-96706912D02*
G01*
X-2755350Y-96727359D01*
X-2679544Y-96817586D01*
X-2658584Y-96934109D01*
X-2701882Y-97043490D01*
X-2763695Y-97083306D01*
X-2867984Y-97104027D01*
X-2976501Y-97082433D01*
X-3055514Y-97002055D01*
X-3070774Y-96869007D01*
X-3025498Y-96747723D01*
X-2931031Y-96691551D01*
X-2796610Y-96706912D01*
G37*
G36*
X-2319144Y-97947238D02*
G01*
X-2261963Y-98045776D01*
X-2271287Y-98164083D01*
X-2354605Y-98270997D01*
X-2414118Y-98308800D01*
X-2499611Y-98315293D01*
X-2606309Y-98258099D01*
X-2679350Y-98173364D01*
X-2692703Y-98056193D01*
X-2630175Y-97937885D01*
X-2550754Y-97878424D01*
X-2436500Y-97871878D01*
X-2319144Y-97947238D01*
G37*
G36*
X-2786819Y-97494108D02*
G01*
X-2708183Y-97532967D01*
X-2665370Y-97615701D01*
X-2667794Y-97733775D01*
X-2723802Y-97836950D01*
X-2811385Y-97888514D01*
X-2929835Y-97898243D01*
X-3027785Y-97852570D01*
X-3059890Y-97795322D01*
X-3078249Y-97692769D01*
X-3065489Y-97602939D01*
X-2996274Y-97512807D01*
X-2867984Y-97482504D01*
X-2786819Y-97494108D01*
G37*
G36*
X-2394786Y-103051707D02*
G01*
X-2298249Y-103135810D01*
X-2261407Y-103237812D01*
X-2290144Y-103353884D01*
X-2392944Y-103447892D01*
X-2413992Y-103458090D01*
X-2520286Y-103466296D01*
X-2611428Y-103415508D01*
X-2671808Y-103326694D01*
X-2685817Y-103220827D01*
X-2637845Y-103118877D01*
X-2624752Y-103105276D01*
X-2511245Y-103041149D01*
X-2394786Y-103051707D01*
G37*
G36*
X-2382652Y-97097160D02*
G01*
X-2315636Y-97148719D01*
X-2269626Y-97254917D01*
X-2281363Y-97372966D01*
X-2353267Y-97471991D01*
X-2413929Y-97509879D01*
X-2499759Y-97516245D01*
X-2606309Y-97459093D01*
X-2661775Y-97404122D01*
X-2694517Y-97302301D01*
X-2670429Y-97200390D01*
X-2602057Y-97118695D01*
X-2501950Y-97077517D01*
X-2382652Y-97097160D01*
G37*
G36*
X-1615634Y-94311121D02*
G01*
X-1559772Y-94341583D01*
X-1494384Y-94436187D01*
X-1488200Y-94554654D01*
X-1546681Y-94668673D01*
X-1618328Y-94730766D01*
X-1700544Y-94740663D01*
X-1807302Y-94683596D01*
X-1841293Y-94654732D01*
X-1893930Y-94554433D01*
X-1886202Y-94447610D01*
X-1829589Y-94356575D01*
X-1735573Y-94303642D01*
X-1615634Y-94311121D01*
G37*
G36*
X-348569Y-95534899D02*
G01*
X-285387Y-95625927D01*
X-272531Y-95735980D01*
X-325312Y-95844132D01*
X-336364Y-95855691D01*
X-448998Y-95919299D01*
X-565737Y-95908072D01*
X-662720Y-95823470D01*
X-706716Y-95699345D01*
X-677603Y-95582968D01*
X-577768Y-95499124D01*
X-564663Y-95493618D01*
X-446765Y-95483821D01*
X-348569Y-95534899D01*
G37*
G36*
X403981Y-95501643D02*
G01*
X489517Y-95577390D01*
X521879Y-95694503D01*
X477746Y-95823470D01*
X468834Y-95836252D01*
X368528Y-95912900D01*
X251076Y-95916013D01*
X140338Y-95844132D01*
X119229Y-95816880D01*
X86671Y-95707653D01*
X114516Y-95601186D01*
X187116Y-95517809D01*
X288820Y-95477852D01*
X403981Y-95501643D01*
G37*
G36*
X2376441Y-101867688D02*
G01*
X2399249Y-101879600D01*
X2482975Y-101969195D01*
X2502113Y-102083601D01*
X2450185Y-102194132D01*
X2439133Y-102205688D01*
X2326624Y-102269206D01*
X2209967Y-102258246D01*
X2113275Y-102174231D01*
X2080792Y-102096367D01*
X2090330Y-101983971D01*
X2154368Y-101894897D01*
X2255531Y-101849389D01*
X2376441Y-101867688D01*
G37*
G36*
X2411724Y-103472536D02*
G01*
X2493234Y-103561932D01*
X2507985Y-103678866D01*
X2445200Y-103797653D01*
X2424432Y-103818214D01*
X2317844Y-103869747D01*
X2211092Y-103856973D01*
X2124377Y-103793161D01*
X2077897Y-103691584D01*
X2091853Y-103565511D01*
X2094135Y-103559699D01*
X2172052Y-103458973D01*
X2284392Y-103428036D01*
X2411724Y-103472536D01*
G37*
G36*
X3571846Y-104644270D02*
G01*
X3661978Y-104713485D01*
X3692281Y-104841775D01*
X3680676Y-104922940D01*
X3641817Y-105001577D01*
X3584569Y-105033681D01*
X3482016Y-105052040D01*
X3392186Y-105039280D01*
X3302054Y-104970065D01*
X3271751Y-104841775D01*
X3284511Y-104751946D01*
X3353726Y-104661813D01*
X3482016Y-104631510D01*
X3571846Y-104644270D01*
G37*
G36*
X3587149Y-99896683D02*
G01*
X3670221Y-99986972D01*
X3685630Y-100104063D01*
X3622684Y-100223149D01*
X3559610Y-100274270D01*
X3446682Y-100294508D01*
X3337835Y-100233970D01*
X3331522Y-100227414D01*
X3275679Y-100114295D01*
X3291897Y-99994573D01*
X3376884Y-99896683D01*
X3440127Y-99859385D01*
X3504843Y-99852188D01*
X3587149Y-99896683D01*
G37*
G36*
X5562282Y-95912940D02*
G01*
X5651612Y-95989623D01*
X5688910Y-96052866D01*
X5696107Y-96117582D01*
X5651612Y-96199888D01*
X5583488Y-96270399D01*
X5473012Y-96307612D01*
X5364226Y-96283398D01*
X5281259Y-96204959D01*
X5248241Y-96079497D01*
X5269287Y-95995534D01*
X5345032Y-95921709D01*
X5451393Y-95892240D01*
X5562282Y-95912940D01*
G37*
G36*
X7146349Y-101069767D02*
G01*
X7236481Y-101138982D01*
X7266784Y-101267272D01*
X7255180Y-101348437D01*
X7216321Y-101427073D01*
X7159073Y-101459178D01*
X7056519Y-101477537D01*
X6966690Y-101464777D01*
X6876557Y-101395562D01*
X6846255Y-101267272D01*
X6859014Y-101177442D01*
X6928230Y-101087310D01*
X7056519Y-101057007D01*
X7146349Y-101069767D01*
G37*
G36*
X7549834Y-98293586D02*
G01*
X7639137Y-98363165D01*
X7671601Y-98472601D01*
X7626753Y-98598967D01*
X7617840Y-98611748D01*
X7517534Y-98688396D01*
X7400082Y-98691510D01*
X7289344Y-98619629D01*
X7279455Y-98608026D01*
X7233693Y-98499318D01*
X7253156Y-98394361D01*
X7322538Y-98312314D01*
X7426533Y-98272336D01*
X7549834Y-98293586D01*
G37*
G36*
X-4360865Y-98298670D02*
G01*
X-4299466Y-98359334D01*
X-4256915Y-98468170D01*
X-4265951Y-98577669D01*
X-4329325Y-98656619D01*
X-4338624Y-98661832D01*
X-4462237Y-98694272D01*
X-4568233Y-98665356D01*
X-4644366Y-98593211D01*
X-4678389Y-98495963D01*
X-4658059Y-98391740D01*
X-4571130Y-98298670D01*
X-4507887Y-98261372D01*
X-4443171Y-98254175D01*
X-4360865Y-98298670D01*
G37*
G36*
X-2791517Y-99882324D02*
G01*
X-2776882Y-99891051D01*
X-2686842Y-99987695D01*
X-2667652Y-100104841D01*
X-2723937Y-100219415D01*
X-2771753Y-100263712D01*
X-2872792Y-100297090D01*
X-2996907Y-100256521D01*
X-3041311Y-100217815D01*
X-3076137Y-100117252D01*
X-3059293Y-100000251D01*
X-2991269Y-99897949D01*
X-2938380Y-99855407D01*
X-2877641Y-99843290D01*
X-2791517Y-99882324D01*
G37*
G36*
X-1974697Y-101078629D02*
G01*
X-1891730Y-101157068D01*
X-1858712Y-101282530D01*
X-1871006Y-101331217D01*
X-1924796Y-101411454D01*
X-1931352Y-101417766D01*
X-2044471Y-101473609D01*
X-2164193Y-101457391D01*
X-2262083Y-101372404D01*
X-2299381Y-101309162D01*
X-2306578Y-101244446D01*
X-2262083Y-101162140D01*
X-2193959Y-101091629D01*
X-2083483Y-101054416D01*
X-1974697Y-101078629D01*
G37*
G36*
X12645Y-95119885D02*
G01*
X78638Y-95170988D01*
X119892Y-95273982D01*
X102100Y-95387678D01*
X24315Y-95482603D01*
X-44376Y-95526475D01*
X-92487Y-95548067D01*
X-132373Y-95531085D01*
X-209289Y-95482603D01*
X-273013Y-95419981D01*
X-309185Y-95315190D01*
X-286759Y-95213260D01*
X-217681Y-95133717D01*
X-113897Y-95096083D01*
X12645Y-95119885D01*
G37*
G36*
X-6389Y-95906079D02*
G01*
X83078Y-95972727D01*
X117778Y-96085443D01*
X104927Y-96177183D01*
X67314Y-96254557D01*
X56157Y-96264203D01*
X-42695Y-96299951D01*
X-161210Y-96296735D01*
X-252288Y-96254557D01*
X-279734Y-96218325D01*
X-306027Y-96107089D01*
X-276690Y-95995207D01*
X-197620Y-95918892D01*
X-128677Y-95897086D01*
X-6389Y-95906079D01*
G37*
G36*
X2448714Y-101123090D02*
G01*
X2488983Y-101174598D01*
X2508786Y-101285319D01*
X2445200Y-101400633D01*
X2436559Y-101409740D01*
X2325820Y-101471369D01*
X2209017Y-101458212D01*
X2111427Y-101372404D01*
X2074129Y-101309162D01*
X2066932Y-101244446D01*
X2111427Y-101162140D01*
X2116660Y-101154462D01*
X2216871Y-101073921D01*
X2337034Y-101062367D01*
X2448714Y-101123090D01*
G37*
G36*
X3556882Y-97885609D02*
G01*
X3642492Y-97944034D01*
X3689098Y-98047540D01*
X3676504Y-98161521D01*
X3601181Y-98256444D01*
X3582756Y-98269305D01*
X3506169Y-98314178D01*
X3447855Y-98310343D01*
X3365214Y-98258099D01*
X3331234Y-98229246D01*
X3278589Y-98128948D01*
X3286313Y-98022124D01*
X3342923Y-97931085D01*
X3436940Y-97878143D01*
X3556882Y-97885609D01*
G37*
G36*
X6362645Y-99097676D02*
G01*
X6424043Y-99158341D01*
X6466595Y-99267176D01*
X6457559Y-99376676D01*
X6394185Y-99455625D01*
X6384886Y-99460838D01*
X6261273Y-99493279D01*
X6155277Y-99464363D01*
X6079144Y-99392217D01*
X6045121Y-99294969D01*
X6065451Y-99190747D01*
X6152380Y-99097676D01*
X6215623Y-99060378D01*
X6280339Y-99053182D01*
X6362645Y-99097676D01*
G37*
G36*
X7129140Y-102250232D02*
G01*
X7223195Y-102319739D01*
X7267305Y-102422695D01*
X7253378Y-102534763D01*
X7173321Y-102631609D01*
X7104631Y-102675481D01*
X7056519Y-102697073D01*
X7031416Y-102692752D01*
X6948844Y-102639954D01*
X6876976Y-102553371D01*
X6846255Y-102466401D01*
X6872868Y-102361915D01*
X6946328Y-102271420D01*
X7041261Y-102234491D01*
X7129140Y-102250232D01*
G37*
G36*
X7936691Y-100269605D02*
G01*
X8015327Y-100308464D01*
X8024974Y-100319621D01*
X8060721Y-100418473D01*
X8057506Y-100536988D01*
X8015327Y-100628067D01*
X7958079Y-100660171D01*
X7855526Y-100678530D01*
X7765696Y-100665771D01*
X7675564Y-100596555D01*
X7645261Y-100468265D01*
X7658021Y-100378436D01*
X7727236Y-100288303D01*
X7855526Y-100258000D01*
X7936691Y-100269605D01*
G37*
G36*
X7944899Y-98677038D02*
G01*
X8022167Y-98749882D01*
X8057094Y-98855496D01*
X8042780Y-98966897D01*
X7972328Y-99057106D01*
X7903638Y-99100978D01*
X7855526Y-99122570D01*
X7815640Y-99105588D01*
X7738724Y-99057106D01*
X7676928Y-98994414D01*
X7642504Y-98884606D01*
X7668734Y-98776041D01*
X7747525Y-98693057D01*
X7870784Y-98659987D01*
X7944899Y-98677038D01*
G37*
G36*
X7136650Y-97876986D02*
G01*
X7220088Y-97948625D01*
X7259073Y-98053764D01*
X7246015Y-98165793D01*
X7173321Y-98258099D01*
X7104631Y-98301971D01*
X7056519Y-98323563D01*
X7031469Y-98318968D01*
X6950011Y-98267084D01*
X6877554Y-98184124D01*
X6846255Y-98103712D01*
X6846439Y-98095923D01*
X6882765Y-97986190D01*
X6963119Y-97897481D01*
X7060033Y-97860981D01*
X7136650Y-97876986D01*
G37*
G36*
X-4823436Y-97864305D02*
G01*
X-4737667Y-97916420D01*
X-4664913Y-98006481D01*
X-4634209Y-98101629D01*
X-4656220Y-98159779D01*
X-4718315Y-98239457D01*
X-4790879Y-98295725D01*
X-4865500Y-98323563D01*
X-4929430Y-98301835D01*
X-5012686Y-98239457D01*
X-5068953Y-98166893D01*
X-5096792Y-98092272D01*
X-5090852Y-98059038D01*
X-5033667Y-97968785D01*
X-4941649Y-97892876D01*
X-4846858Y-97860981D01*
X-4823436Y-97864305D01*
G37*
G36*
X-4002564Y-99060193D02*
G01*
X-3919308Y-99122570D01*
X-3863041Y-99195134D01*
X-3835202Y-99269755D01*
X-3856931Y-99333685D01*
X-3919308Y-99416941D01*
X-3989946Y-99473519D01*
X-4057137Y-99501047D01*
X-4083643Y-99498109D01*
X-4180705Y-99452058D01*
X-4263039Y-99372475D01*
X-4297785Y-99288397D01*
X-4292288Y-99252484D01*
X-4239368Y-99154957D01*
X-4154214Y-99072931D01*
X-4066494Y-99038464D01*
X-4002564Y-99060193D01*
G37*
G36*
X-1248932Y-97864305D02*
G01*
X-1163164Y-97916420D01*
X-1090410Y-98006481D01*
X-1059706Y-98101629D01*
X-1081716Y-98159779D01*
X-1143812Y-98239457D01*
X-1216376Y-98295725D01*
X-1290997Y-98323563D01*
X-1354927Y-98301835D01*
X-1438183Y-98239457D01*
X-1494450Y-98166893D01*
X-1522288Y-98092272D01*
X-1516349Y-98059038D01*
X-1459163Y-97968785D01*
X-1367146Y-97892876D01*
X-1272355Y-97860981D01*
X-1248932Y-97864305D01*
G37*
G36*
X1930954Y-102243432D02*
G01*
X2023420Y-102296431D01*
X2102689Y-102373378D01*
X2136321Y-102446667D01*
X2135920Y-102450946D01*
X2102906Y-102512396D01*
X2033100Y-102593852D01*
X2000094Y-102626173D01*
X1922956Y-102684356D01*
X1856346Y-102684603D01*
X1767201Y-102631609D01*
X1711345Y-102573742D01*
X1678740Y-102464914D01*
X1702458Y-102354498D01*
X1774534Y-102268892D01*
X1887007Y-102234491D01*
X1930954Y-102243432D01*
G37*
G36*
X3945449Y-96284696D02*
G01*
X4028705Y-96347073D01*
X4084973Y-96419638D01*
X4112811Y-96494259D01*
X4091082Y-96558188D01*
X4028705Y-96641444D01*
X3958068Y-96698022D01*
X3890877Y-96725550D01*
X3864370Y-96722613D01*
X3767308Y-96676561D01*
X3684975Y-96596978D01*
X3650228Y-96512901D01*
X3655725Y-96476988D01*
X3708645Y-96379460D01*
X3793799Y-96297434D01*
X3881519Y-96262967D01*
X3945449Y-96284696D01*
G37*
G36*
X3945449Y-103433703D02*
G01*
X4028705Y-103496080D01*
X4084973Y-103568644D01*
X4112811Y-103643265D01*
X4091082Y-103707195D01*
X4028705Y-103790451D01*
X3954701Y-103846478D01*
X3874318Y-103874557D01*
X3869466Y-103874456D01*
X3769835Y-103837009D01*
X3685672Y-103754059D01*
X3650228Y-103657774D01*
X3655899Y-103622571D01*
X3709356Y-103527056D01*
X3794671Y-103446116D01*
X3881519Y-103411974D01*
X3945449Y-103433703D01*
G37*
G36*
X6690226Y-100643026D02*
G01*
X6778596Y-100698636D01*
X6855461Y-100784387D01*
X6888308Y-100867769D01*
X6866579Y-100931698D01*
X6804202Y-101014954D01*
X6731637Y-101071222D01*
X6657016Y-101099060D01*
X6623806Y-101092512D01*
X6535436Y-101036902D01*
X6458571Y-100951150D01*
X6425725Y-100867769D01*
X6432273Y-100834559D01*
X6487883Y-100746189D01*
X6573635Y-100669324D01*
X6657016Y-100636477D01*
X6690226Y-100643026D01*
G37*
G36*
X7489233Y-100643026D02*
G01*
X7577603Y-100698636D01*
X7654468Y-100784387D01*
X7687314Y-100867769D01*
X7665585Y-100931698D01*
X7603208Y-101014954D01*
X7530644Y-101071222D01*
X7456023Y-101099060D01*
X7422813Y-101092512D01*
X7334443Y-101036902D01*
X7257578Y-100951150D01*
X7224731Y-100867769D01*
X7231280Y-100834559D01*
X7286890Y-100746189D01*
X7372641Y-100669324D01*
X7456023Y-100636477D01*
X7489233Y-100643026D01*
G37*
G36*
X-4711113Y-98729584D02*
G01*
X-4691034Y-98754237D01*
X-4650511Y-98865551D01*
X-4631214Y-99017852D01*
X-4633457Y-99181486D01*
X-4657550Y-99326800D01*
X-4703806Y-99424143D01*
X-4781740Y-99482883D01*
X-4896099Y-99490786D01*
X-5012686Y-99416941D01*
X-5057658Y-99341850D01*
X-5091799Y-99198914D01*
X-5099383Y-99032136D01*
X-5079522Y-98873115D01*
X-5031328Y-98753450D01*
X-4946593Y-98680409D01*
X-4829422Y-98667056D01*
X-4711113Y-98729584D01*
G37*
G36*
X1489703Y-103432717D02*
G01*
X1629355Y-103489655D01*
X1706840Y-103574789D01*
X1714878Y-103680121D01*
X1646194Y-103797653D01*
X1640438Y-103803756D01*
X1574443Y-103846383D01*
X1469176Y-103868336D01*
X1302568Y-103874557D01*
X1149998Y-103867079D01*
X992779Y-103828402D01*
X903170Y-103753601D01*
X874731Y-103639132D01*
X881806Y-103587808D01*
X951481Y-103492104D01*
X1091133Y-103432502D01*
X1295261Y-103411974D01*
X1489703Y-103432717D01*
G37*
G36*
X5854643Y-98261877D02*
G01*
X5992565Y-98319852D01*
X6072392Y-98405309D01*
X6085455Y-98508931D01*
X6023083Y-98621402D01*
X6004919Y-98639414D01*
X5937317Y-98677634D01*
X5831702Y-98696796D01*
X5665257Y-98702040D01*
X5462853Y-98689124D01*
X5332246Y-98647017D01*
X5266124Y-98570892D01*
X5256471Y-98455923D01*
X5261447Y-98429087D01*
X5329363Y-98326296D01*
X5466929Y-98262565D01*
X5668771Y-98240697D01*
X5854643Y-98261877D01*
G37*
G36*
X-740313Y-104299502D02*
G01*
X-733000Y-104308423D01*
X-687448Y-104415587D01*
X-662133Y-104568019D01*
X-658085Y-104734276D01*
X-676337Y-104882916D01*
X-717918Y-104982497D01*
X-764572Y-105020813D01*
X-872859Y-105050767D01*
X-982932Y-105033639D01*
X-1058226Y-104970699D01*
X-1065436Y-104955452D01*
X-1093734Y-104836388D01*
X-1103409Y-104680048D01*
X-1095607Y-104516484D01*
X-1071475Y-104375746D01*
X-1032162Y-104287885D01*
X-955369Y-104228570D01*
X-848500Y-104222299D01*
X-740313Y-104299502D01*
G37*
G36*
X-63347Y-92708359D02*
G01*
X40874Y-92758061D01*
X101269Y-92848713D01*
X110595Y-92973496D01*
X51694Y-93084964D01*
X31693Y-93100783D01*
X-79747Y-93140335D01*
X-232718Y-93155940D01*
X-397055Y-93148384D01*
X-542596Y-93118456D01*
X-639176Y-93066941D01*
X-695444Y-92994377D01*
X-723282Y-92919755D01*
X-701553Y-92855826D01*
X-639176Y-92772570D01*
X-636863Y-92770318D01*
X-533442Y-92717067D01*
X-382232Y-92688538D01*
X-214958Y-92685410D01*
X-63347Y-92708359D01*
G37*
G36*
X-491375Y-97491167D02*
G01*
X-399309Y-97501925D01*
X-349185Y-97523998D01*
X-284539Y-97607016D01*
X-274808Y-97716429D01*
X-326783Y-97822247D01*
X-375408Y-97864234D01*
X-443525Y-97888847D01*
X-550940Y-97897463D01*
X-719874Y-97894145D01*
X-819578Y-97889938D01*
X-943267Y-97879918D01*
X-1014210Y-97860471D01*
X-1052501Y-97824309D01*
X-1078235Y-97764142D01*
X-1084935Y-97743980D01*
X-1100173Y-97630993D01*
X-1056727Y-97555675D01*
X-946716Y-97511207D01*
X-762260Y-97490771D01*
X-633220Y-97487608D01*
X-491375Y-97491167D01*
G37*
G36*
X-788327Y-94722879D02*
G01*
X-754197Y-94751097D01*
X-681001Y-94872792D01*
X-645140Y-95033378D01*
X-647328Y-95205453D01*
X-688282Y-95361619D01*
X-768715Y-95474474D01*
X-777731Y-95481817D01*
X-857377Y-95536422D01*
X-920453Y-95536217D01*
X-1008296Y-95482603D01*
X-1011340Y-95480452D01*
X-1059022Y-95436061D01*
X-1086375Y-95373287D01*
X-1098815Y-95270257D01*
X-1101759Y-95105095D01*
X-1101637Y-95054097D01*
X-1097397Y-94909843D01*
X-1082559Y-94821546D01*
X-1051008Y-94767041D01*
X-996626Y-94724166D01*
X-934904Y-94687675D01*
X-869680Y-94679452D01*
X-788327Y-94722879D01*
G37*
G36*
X3587149Y-95523173D02*
G01*
X3600836Y-95532361D01*
X3650298Y-95576388D01*
X3677825Y-95637031D01*
X3689718Y-95736767D01*
X3692281Y-95898076D01*
X3687000Y-96050337D01*
X3669296Y-96184499D01*
X3641817Y-96254557D01*
X3630661Y-96264203D01*
X3531809Y-96299951D01*
X3413293Y-96296735D01*
X3322215Y-96254557D01*
X3297977Y-96198293D01*
X3278773Y-96071728D01*
X3271751Y-95898076D01*
X3271827Y-95858187D01*
X3275818Y-95711596D01*
X3290456Y-95621883D01*
X3322043Y-95566568D01*
X3376884Y-95523173D01*
X3440127Y-95485875D01*
X3504843Y-95478678D01*
X3587149Y-95523173D01*
G37*
G36*
X4171727Y-105009235D02*
G01*
X4317041Y-105033328D01*
X4414384Y-105079584D01*
X4441567Y-105117560D01*
X4477900Y-105236010D01*
X4494881Y-105391372D01*
X4492060Y-105554248D01*
X4468984Y-105695244D01*
X4425204Y-105784964D01*
X4394573Y-105806085D01*
X4279834Y-105839693D01*
X4126080Y-105853884D01*
X3962950Y-105848807D01*
X3820087Y-105824613D01*
X3727132Y-105781450D01*
X3707053Y-105756798D01*
X3666530Y-105645483D01*
X3647233Y-105493182D01*
X3649476Y-105329548D01*
X3673569Y-105184234D01*
X3719825Y-105086891D01*
X3744477Y-105066812D01*
X3855792Y-105026289D01*
X4008093Y-105006993D01*
X4171727Y-105009235D01*
G37*
G36*
X4237812Y-100263219D02*
G01*
X4370954Y-100280969D01*
X4440824Y-100308464D01*
X4468328Y-100364513D01*
X4488640Y-100487697D01*
X4493380Y-100643099D01*
X4483300Y-100802672D01*
X4459153Y-100938373D01*
X4421691Y-101022156D01*
X4400313Y-101038337D01*
X4296201Y-101072433D01*
X4139599Y-101094993D01*
X3952775Y-101105867D01*
X3757999Y-101104903D01*
X3577541Y-101091948D01*
X3433670Y-101066852D01*
X3348655Y-101029463D01*
X3301651Y-100970890D01*
X3276425Y-100858156D01*
X3313080Y-100749922D01*
X3401254Y-100668568D01*
X3530587Y-100636477D01*
X3579751Y-100634242D01*
X3636978Y-100605585D01*
X3650228Y-100524143D01*
X3650576Y-100504390D01*
X3676465Y-100386790D01*
X3751115Y-100310883D01*
X3885325Y-100270132D01*
X4089891Y-100258000D01*
X4237812Y-100263219D01*
G37*
G36*
X6782849Y-98303378D02*
G01*
X6859161Y-98396600D01*
X6888308Y-98541866D01*
X6890106Y-98585610D01*
X6917431Y-98645688D01*
X6996205Y-98659987D01*
X7086119Y-98664399D01*
X7179148Y-98693690D01*
X7234051Y-98763057D01*
X7260155Y-98886972D01*
X7266784Y-99079907D01*
X7264588Y-99229499D01*
X7254036Y-99349047D01*
X7231439Y-99418283D01*
X7193192Y-99455625D01*
X7084047Y-99493829D01*
X6964284Y-99473707D01*
X6878848Y-99389203D01*
X6846255Y-99251227D01*
X6838789Y-99180280D01*
X6796468Y-99134304D01*
X6694594Y-99108964D01*
X6567310Y-99071090D01*
X6484155Y-98995375D01*
X6440425Y-98867775D01*
X6427062Y-98673553D01*
X6428239Y-98564166D01*
X6440536Y-98456228D01*
X6472857Y-98386821D01*
X6533541Y-98328965D01*
X6555481Y-98313127D01*
X6676059Y-98272215D01*
X6782849Y-98303378D01*
G37*
G36*
X3444484Y-101435693D02*
G01*
X3687902Y-101439519D01*
X3863642Y-101452621D01*
X3982723Y-101480676D01*
X4056163Y-101529365D01*
X4094979Y-101604364D01*
X4110189Y-101711355D01*
X4112811Y-101856014D01*
X4111929Y-101902057D01*
X4091273Y-102069877D01*
X4047347Y-102183080D01*
X3971682Y-102250878D01*
X3864255Y-102271233D01*
X3760111Y-102233010D01*
X3681389Y-102145428D01*
X3650228Y-102017708D01*
X3650228Y-101898067D01*
X3154949Y-101898067D01*
X3109357Y-101897988D01*
X2888311Y-101894030D01*
X2733935Y-101882906D01*
X2631483Y-101862977D01*
X2566208Y-101832603D01*
X2493166Y-101747868D01*
X2479814Y-101630697D01*
X2542342Y-101512388D01*
X2546515Y-101507904D01*
X2582111Y-101480181D01*
X2635928Y-101460510D01*
X2721142Y-101447547D01*
X2850927Y-101439950D01*
X3038459Y-101436377D01*
X3296911Y-101435484D01*
X3444484Y-101435693D01*
G37*
G36*
X538273Y-102235365D02*
G01*
X703497Y-102245979D01*
X812239Y-102278722D01*
X875756Y-102345991D01*
X905306Y-102460179D01*
X912145Y-102633683D01*
X907531Y-102878897D01*
X902703Y-103067280D01*
X895730Y-103222063D01*
X884273Y-103321383D01*
X865133Y-103380658D01*
X835115Y-103415310D01*
X791019Y-103440759D01*
X775193Y-103448387D01*
X684817Y-103471283D01*
X601780Y-103436950D01*
X601451Y-103436731D01*
X557945Y-103395150D01*
X530540Y-103328014D01*
X514495Y-103215813D01*
X505067Y-103039037D01*
X492853Y-102697073D01*
X188514Y-102697073D01*
X153529Y-102696851D01*
X-58773Y-102680770D01*
X-199952Y-102636148D01*
X-278461Y-102558627D01*
X-302752Y-102443850D01*
X-299671Y-102396399D01*
X-272959Y-102327685D01*
X-209082Y-102281047D01*
X-96367Y-102252576D01*
X76861Y-102238360D01*
X322274Y-102234491D01*
X538273Y-102235365D01*
G37*
G36*
X4507605Y-103832594D02*
G01*
X4668693Y-103839978D01*
X4780268Y-103868218D01*
X4851349Y-103929941D01*
X4890955Y-104037773D01*
X4908105Y-104204341D01*
X4911817Y-104442272D01*
X4910284Y-104587793D01*
X4900422Y-104765467D01*
X4879756Y-104883988D01*
X4846353Y-104958577D01*
X4770497Y-105028451D01*
X4662484Y-105052093D01*
X4558474Y-105015458D01*
X4480160Y-104927385D01*
X4449235Y-104796719D01*
X4449235Y-104673563D01*
X4143194Y-104673563D01*
X3938943Y-104662752D01*
X3774999Y-104622373D01*
X3680534Y-104549712D01*
X3650228Y-104442272D01*
X3652047Y-104418539D01*
X3704752Y-104315030D01*
X3813137Y-104239943D01*
X3953956Y-104210981D01*
X4022320Y-104205193D01*
X4062261Y-104167590D01*
X4070758Y-104072206D01*
X4073408Y-104009764D01*
X4099659Y-103919380D01*
X4165908Y-103865412D01*
X4286626Y-103839305D01*
X4476287Y-103832504D01*
X4507605Y-103832594D01*
G37*
G36*
X7862595Y-96683521D02*
G01*
X7933763Y-96689416D01*
X7986090Y-96713325D01*
X8022453Y-96766261D01*
X8045728Y-96859237D01*
X8058792Y-97003265D01*
X8064521Y-97209358D01*
X8065791Y-97488530D01*
X8065500Y-97708277D01*
X8063492Y-97907345D01*
X8058183Y-98046093D01*
X8047993Y-98137531D01*
X8031340Y-98194671D01*
X8006645Y-98230523D01*
X7972328Y-98258099D01*
X7903638Y-98301971D01*
X7855526Y-98323563D01*
X7815640Y-98306582D01*
X7738724Y-98258099D01*
X7709582Y-98235495D01*
X7683344Y-98201993D01*
X7665421Y-98149443D01*
X7654231Y-98064833D01*
X7648194Y-97935151D01*
X7645731Y-97747387D01*
X7645261Y-97488530D01*
X7645267Y-97461466D01*
X7646807Y-97188989D01*
X7653052Y-96988646D01*
X7666878Y-96849425D01*
X7691162Y-96760312D01*
X7728781Y-96710295D01*
X7782610Y-96688361D01*
X7855526Y-96683497D01*
X7862595Y-96683521D01*
G37*
G36*
X7862595Y-101057030D02*
G01*
X7933763Y-101062926D01*
X7986090Y-101086835D01*
X8022453Y-101139771D01*
X8045728Y-101232747D01*
X8058792Y-101376775D01*
X8064521Y-101582868D01*
X8065791Y-101862040D01*
X8065500Y-102081787D01*
X8063492Y-102280855D01*
X8058183Y-102419603D01*
X8047993Y-102511041D01*
X8031340Y-102568181D01*
X8006645Y-102604033D01*
X7972328Y-102631609D01*
X7903638Y-102675481D01*
X7855526Y-102697073D01*
X7815640Y-102680092D01*
X7738724Y-102631609D01*
X7709582Y-102609005D01*
X7683344Y-102575503D01*
X7665421Y-102522953D01*
X7654231Y-102438343D01*
X7648194Y-102308661D01*
X7645731Y-102120897D01*
X7645261Y-101862040D01*
X7645267Y-101834976D01*
X7646807Y-101562499D01*
X7653052Y-101362156D01*
X7666878Y-101222935D01*
X7691162Y-101133822D01*
X7728781Y-101083805D01*
X7782610Y-101061871D01*
X7855526Y-101057007D01*
X7862595Y-101057030D01*
G37*
G36*
X-1376337Y-97066516D02*
G01*
X-1206728Y-97106702D01*
X-1098036Y-97184056D01*
X-1059706Y-97293265D01*
X-1065738Y-97329337D01*
X-1126562Y-97421684D01*
X-1229047Y-97494839D01*
X-1343563Y-97524653D01*
X-1396275Y-97527782D01*
X-1448756Y-97560271D01*
X-1463629Y-97649674D01*
X-1480562Y-97750558D01*
X-1521345Y-97838817D01*
X-1522951Y-97840698D01*
X-1584756Y-97877088D01*
X-1700111Y-97896987D01*
X-1883919Y-97903034D01*
X-1929849Y-97902934D01*
X-2075161Y-97898807D01*
X-2164100Y-97884060D01*
X-2218972Y-97852492D01*
X-2262083Y-97797901D01*
X-2299381Y-97734658D01*
X-2306578Y-97669942D01*
X-2262083Y-97587636D01*
X-2254998Y-97577179D01*
X-2171612Y-97503341D01*
X-2046981Y-97482504D01*
X-2039031Y-97482494D01*
X-1944983Y-97474718D01*
X-1907511Y-97434987D01*
X-1900765Y-97337703D01*
X-1883282Y-97225416D01*
X-1811211Y-97131382D01*
X-1676263Y-97078518D01*
X-1470878Y-97061974D01*
X-1376337Y-97066516D01*
G37*
G36*
X6767839Y-93490793D02*
G01*
X7002467Y-93521312D01*
X7159918Y-93583862D01*
X7240662Y-93678593D01*
X7245986Y-93700515D01*
X7256639Y-93800719D01*
X7264023Y-93951497D01*
X7266784Y-94129508D01*
X7266403Y-94220406D01*
X7261272Y-94378527D01*
X7247014Y-94482312D01*
X7219686Y-94552462D01*
X7175348Y-94609677D01*
X7131084Y-94650948D01*
X7074349Y-94681012D01*
X6991185Y-94697915D01*
X6862376Y-94705349D01*
X6668704Y-94707007D01*
X6638089Y-94706994D01*
X6456085Y-94705183D01*
X6335912Y-94697360D01*
X6257969Y-94679315D01*
X6202655Y-94646843D01*
X6150372Y-94595734D01*
X6118465Y-94559012D01*
X6080393Y-94496411D01*
X6058906Y-94415031D01*
X6049394Y-94293111D01*
X6047248Y-94108890D01*
X6048468Y-93941978D01*
X6055940Y-93817810D01*
X6075097Y-93735830D01*
X6111365Y-93674028D01*
X6170172Y-93610395D01*
X6210817Y-93571305D01*
X6274195Y-93525161D01*
X6350089Y-93500015D01*
X6462353Y-93489555D01*
X6634843Y-93487471D01*
X6767839Y-93490793D01*
G37*
G36*
X2522830Y-94286836D02*
G01*
X2703816Y-94300212D01*
X2817478Y-94337934D01*
X2876427Y-94406867D01*
X2893274Y-94513874D01*
X2893473Y-94539142D01*
X2905323Y-94618436D01*
X2952882Y-94657677D01*
X3060159Y-94680891D01*
X3087718Y-94685778D01*
X3200460Y-94725101D01*
X3269575Y-94799473D01*
X3304284Y-94924737D01*
X3313804Y-95116735D01*
X3313449Y-95152099D01*
X3293136Y-95337322D01*
X3238589Y-95455289D01*
X3145592Y-95516008D01*
X3074124Y-95525379D01*
X2962202Y-95484888D01*
X2881945Y-95386177D01*
X2851221Y-95245658D01*
X2848089Y-95189931D01*
X2816242Y-95138888D01*
X2728066Y-95127537D01*
X2603598Y-95102026D01*
X2507155Y-95013769D01*
X2472745Y-94872215D01*
X2469957Y-94816258D01*
X2440071Y-94761092D01*
X2357099Y-94747723D01*
X2274508Y-94737267D01*
X2156673Y-94679152D01*
X2086559Y-94586501D01*
X2075335Y-94478100D01*
X2134170Y-94372734D01*
X2137382Y-94369562D01*
X2210876Y-94318950D01*
X2314772Y-94293482D01*
X2475509Y-94286477D01*
X2522830Y-94286836D01*
G37*
G36*
X6827430Y-103833732D02*
G01*
X6960759Y-103840553D01*
X7047788Y-103857088D01*
X7108671Y-103887443D01*
X7163563Y-103935725D01*
X7206862Y-103983824D01*
X7239238Y-104042853D01*
X7257280Y-104125501D01*
X7265093Y-104251922D01*
X7266784Y-104442272D01*
X7265556Y-104612686D01*
X7258735Y-104746014D01*
X7242200Y-104833043D01*
X7211846Y-104893927D01*
X7163563Y-104948819D01*
X7123476Y-104985765D01*
X7064579Y-105021422D01*
X6984453Y-105041393D01*
X6862149Y-105050119D01*
X6676719Y-105052040D01*
X6496793Y-105050643D01*
X6374755Y-105042899D01*
X6294055Y-105023563D01*
X6233070Y-104987384D01*
X6170172Y-104929116D01*
X6112966Y-104867549D01*
X6076343Y-104806760D01*
X6056680Y-104726751D01*
X6048731Y-104605896D01*
X6047248Y-104422569D01*
X6048093Y-104284413D01*
X6054346Y-104145639D01*
X6070532Y-104055231D01*
X6101093Y-103992242D01*
X6150469Y-103935725D01*
X6198569Y-103892426D01*
X6257597Y-103860050D01*
X6340245Y-103842009D01*
X6466667Y-103834195D01*
X6657016Y-103832504D01*
X6827430Y-103833732D01*
G37*
G36*
X3146442Y-92710193D02*
G01*
X3229698Y-92772570D01*
X3262423Y-92811812D01*
X3294142Y-92885745D01*
X3309682Y-92998295D01*
X3313804Y-93172073D01*
X3313804Y-93487471D01*
X3436959Y-93487471D01*
X3536413Y-93504540D01*
X3626198Y-93553554D01*
X3666718Y-93608390D01*
X3689423Y-93723545D01*
X3650697Y-93834128D01*
X3561663Y-93917258D01*
X3433445Y-93950053D01*
X3384281Y-93952289D01*
X3327054Y-93980946D01*
X3313804Y-94062388D01*
X3298246Y-94150169D01*
X3244207Y-94251626D01*
X3182065Y-94298312D01*
X3078380Y-94328530D01*
X2988552Y-94307266D01*
X2910849Y-94221557D01*
X2865776Y-94065850D01*
X2851221Y-93835564D01*
X2851221Y-93529524D01*
X2712447Y-93529524D01*
X2587401Y-93511973D01*
X2500459Y-93443721D01*
X2472745Y-93319259D01*
X2492753Y-93209569D01*
X2570559Y-93133305D01*
X2712447Y-93108994D01*
X2797867Y-93103463D01*
X2842228Y-93069336D01*
X2851221Y-92982835D01*
X2856102Y-92935265D01*
X2904832Y-92817206D01*
X2987788Y-92725413D01*
X3082513Y-92688464D01*
X3146442Y-92710193D01*
G37*
G36*
X-3569484Y-93487922D02*
G01*
X-3416567Y-93493452D01*
X-3314870Y-93508949D01*
X-3242174Y-93538967D01*
X-3176260Y-93588062D01*
X-3162848Y-93599796D01*
X-3106877Y-93659981D01*
X-3073349Y-93732121D01*
X-3054650Y-93840267D01*
X-3043165Y-94008467D01*
X-3040647Y-94063277D01*
X-3038884Y-94275440D01*
X-3056348Y-94427271D01*
X-3096656Y-94537279D01*
X-3163424Y-94623971D01*
X-3188340Y-94646245D01*
X-3245660Y-94677529D01*
X-3330836Y-94695995D01*
X-3462593Y-94704776D01*
X-3659660Y-94707007D01*
X-3676202Y-94707003D01*
X-3862619Y-94705331D01*
X-3986029Y-94697785D01*
X-4066092Y-94680223D01*
X-4122466Y-94648504D01*
X-4174809Y-94598487D01*
X-4214287Y-94552334D01*
X-4247809Y-94490900D01*
X-4266643Y-94407118D01*
X-4274918Y-94280413D01*
X-4276759Y-94090210D01*
X-4276750Y-94062178D01*
X-4275042Y-93884373D01*
X-4267095Y-93768139D01*
X-4248204Y-93693485D01*
X-4213663Y-93640422D01*
X-4158768Y-93588962D01*
X-4125493Y-93561853D01*
X-4058993Y-93522417D01*
X-3975255Y-93499938D01*
X-3852011Y-93489822D01*
X-3666990Y-93487471D01*
X-3569484Y-93487922D01*
G37*
G36*
X6332379Y-101460119D02*
G01*
X6374662Y-101477909D01*
X6435471Y-101538058D01*
X6459347Y-101649386D01*
X6462364Y-101681056D01*
X6482684Y-101762654D01*
X6536278Y-101806612D01*
X6648116Y-101837858D01*
X6721516Y-101857439D01*
X6814446Y-101908119D01*
X6863969Y-101991412D01*
X6877015Y-102056576D01*
X6846975Y-102169211D01*
X6753164Y-102247318D01*
X6608445Y-102276543D01*
X6605873Y-102276545D01*
X6512371Y-102284074D01*
X6474731Y-102323703D01*
X6467778Y-102421344D01*
X6449038Y-102539532D01*
X6374315Y-102631609D01*
X6332725Y-102653800D01*
X6232870Y-102679127D01*
X6079706Y-102692908D01*
X5858010Y-102697073D01*
X5665236Y-102692928D01*
X5469259Y-102672419D01*
X5340453Y-102631801D01*
X5269789Y-102567821D01*
X5248241Y-102477222D01*
X5249203Y-102449127D01*
X5279827Y-102347186D01*
X5361154Y-102281005D01*
X5503541Y-102245226D01*
X5717342Y-102234491D01*
X6047248Y-102234491D01*
X6047248Y-101904584D01*
X6050012Y-101742113D01*
X6062137Y-101625077D01*
X6088168Y-101550701D01*
X6132627Y-101497411D01*
X6143318Y-101488005D01*
X6228806Y-101443185D01*
X6332379Y-101460119D01*
G37*
G36*
X2388821Y-95119713D02*
G01*
X2479495Y-95214080D01*
X2514798Y-95344319D01*
X2517033Y-95393484D01*
X2545690Y-95450711D01*
X2627132Y-95463961D01*
X2718245Y-95471098D01*
X2793925Y-95503440D01*
X2844517Y-95572807D01*
X2874772Y-95690915D01*
X2889441Y-95869477D01*
X2893274Y-96120210D01*
X2893244Y-96161261D01*
X2891279Y-96369849D01*
X2884865Y-96511379D01*
X2872078Y-96600503D01*
X2850992Y-96651870D01*
X2819682Y-96680129D01*
X2714912Y-96717259D01*
X2598332Y-96695273D01*
X2511017Y-96604179D01*
X2465750Y-96452206D01*
X2454729Y-96390133D01*
X2412604Y-96334224D01*
X2315593Y-96312910D01*
X2190344Y-96271327D01*
X2089857Y-96167183D01*
X2052215Y-96022319D01*
X2051551Y-96002306D01*
X2024257Y-95942167D01*
X1939880Y-95926543D01*
X1808626Y-95893721D01*
X1711471Y-95808151D01*
X1673738Y-95691119D01*
X1675481Y-95669623D01*
X1726919Y-95569932D01*
X1829636Y-95494095D01*
X1956439Y-95463961D01*
X2030004Y-95444083D01*
X2052215Y-95368185D01*
X2054161Y-95337120D01*
X2095963Y-95215995D01*
X2175859Y-95122780D01*
X2272066Y-95085484D01*
X2388821Y-95119713D01*
G37*
G36*
X1435872Y-101059887D02*
G01*
X1580038Y-101078806D01*
X1665101Y-101123523D01*
X1705530Y-101203347D01*
X1715791Y-101327587D01*
X1717760Y-101367545D01*
X1747674Y-101422423D01*
X1833912Y-101435484D01*
X1834029Y-101435484D01*
X1977006Y-101464952D01*
X2068816Y-101539651D01*
X2107299Y-101639162D01*
X2090295Y-101743065D01*
X2015643Y-101830941D01*
X1881184Y-101882369D01*
X1877247Y-101883002D01*
X1771734Y-101907491D01*
X1725823Y-101948460D01*
X1715791Y-102026597D01*
X1699629Y-102119720D01*
X1649708Y-102210460D01*
X1586057Y-102255195D01*
X1472300Y-102271030D01*
X1364744Y-102225914D01*
X1284633Y-102131214D01*
X1253208Y-101998295D01*
X1251675Y-101970634D01*
X1234302Y-101935097D01*
X1183701Y-101913645D01*
X1082920Y-101900934D01*
X915008Y-101891614D01*
X767684Y-101882296D01*
X627444Y-101859579D01*
X545489Y-101817125D01*
X506935Y-101745862D01*
X496899Y-101636715D01*
X521921Y-101538163D01*
X614006Y-101462068D01*
X766834Y-101435484D01*
X793165Y-101434707D01*
X858549Y-101408833D01*
X874731Y-101327587D01*
X879207Y-101237114D01*
X908611Y-101144354D01*
X978109Y-101089622D01*
X1102171Y-101063609D01*
X1295261Y-101057007D01*
X1435872Y-101059887D01*
G37*
G36*
X-4029117Y-99843682D02*
G01*
X-3936357Y-99905703D01*
X-3864234Y-100011283D01*
X-3835202Y-100131842D01*
X-3829118Y-100209497D01*
X-3791578Y-100249824D01*
X-3696428Y-100258000D01*
X-3691711Y-100258016D01*
X-3554382Y-100282024D01*
X-3479444Y-100358529D01*
X-3456726Y-100497702D01*
X-3456726Y-100636477D01*
X-3134126Y-100636477D01*
X-3095254Y-100636642D01*
X-2919000Y-100644563D01*
X-2804841Y-100666653D01*
X-2734623Y-100706074D01*
X-2679166Y-100780194D01*
X-2664533Y-100901931D01*
X-2727316Y-101022156D01*
X-2760487Y-101050979D01*
X-2818784Y-101075531D01*
X-2911739Y-101090166D01*
X-3055818Y-101097227D01*
X-3267487Y-101099060D01*
X-3438415Y-101097389D01*
X-3623254Y-101086239D01*
X-3746856Y-101059437D01*
X-3822621Y-101011042D01*
X-3863952Y-100935115D01*
X-3884250Y-100825716D01*
X-3898282Y-100699557D01*
X-4422140Y-100687679D01*
X-4550369Y-100684203D01*
X-4748072Y-100674646D01*
X-4883031Y-100659951D01*
X-4969415Y-100638223D01*
X-5021395Y-100607569D01*
X-5070372Y-100550380D01*
X-5090547Y-100446346D01*
X-5027195Y-100334904D01*
X-4992941Y-100305193D01*
X-4921262Y-100276374D01*
X-4806268Y-100261944D01*
X-4627691Y-100258000D01*
X-4297785Y-100258000D01*
X-4297785Y-100131842D01*
X-4292905Y-100084272D01*
X-4244174Y-99966213D01*
X-4161219Y-99874420D01*
X-4066494Y-99837471D01*
X-4029117Y-99843682D01*
G37*
G36*
X-1386248Y-92693270D02*
G01*
X-1208493Y-92732569D01*
X-1097817Y-92809036D01*
X-1059706Y-92919755D01*
X-1065743Y-92955851D01*
X-1126579Y-93048195D01*
X-1229064Y-93121309D01*
X-1343563Y-93151047D01*
X-1361965Y-93151217D01*
X-1426961Y-93163178D01*
X-1453890Y-93211213D01*
X-1459209Y-93319259D01*
X-1459209Y-93487471D01*
X-736799Y-93487471D01*
X-725032Y-93487472D01*
X-438057Y-93489326D01*
X-224210Y-93496518D01*
X-72929Y-93511775D01*
X26348Y-93537821D01*
X84184Y-93577380D01*
X111140Y-93633179D01*
X117778Y-93707941D01*
X117473Y-93723818D01*
X90066Y-93830684D01*
X11200Y-93900515D01*
X-129101Y-93938581D01*
X-340809Y-93950149D01*
X-660202Y-93950245D01*
X-664623Y-94075171D01*
X-681555Y-94176054D01*
X-722338Y-94264314D01*
X-723412Y-94265583D01*
X-784879Y-94302316D01*
X-899952Y-94322417D01*
X-1083497Y-94328530D01*
X-1085509Y-94328530D01*
X-1248808Y-94325421D01*
X-1350408Y-94312492D01*
X-1412387Y-94284217D01*
X-1456824Y-94235067D01*
X-1498178Y-94154357D01*
X-1522288Y-94045829D01*
X-1522952Y-94025816D01*
X-1550247Y-93965677D01*
X-1634623Y-93950053D01*
X-1705400Y-93946045D01*
X-1789238Y-93918551D01*
X-1845629Y-93854721D01*
X-1879637Y-93742691D01*
X-1896327Y-93570595D01*
X-1900765Y-93326566D01*
X-1900456Y-93222912D01*
X-1894260Y-93007977D01*
X-1874007Y-92859908D01*
X-1831814Y-92766314D01*
X-1759796Y-92714803D01*
X-1650067Y-92692984D01*
X-1494744Y-92688464D01*
X-1386248Y-92693270D01*
G37*
G36*
X-769031Y-99897205D02*
G01*
X-700463Y-99993670D01*
X-656345Y-100116588D01*
X-640992Y-100180998D01*
X-600077Y-100242755D01*
X-522161Y-100258000D01*
X-504753Y-100258692D01*
X-388365Y-100295474D01*
X-297511Y-100371685D01*
X-261343Y-100464270D01*
X-274619Y-100541594D01*
X-348599Y-100626998D01*
X-493446Y-100673925D01*
X-584702Y-100694587D01*
X-642441Y-100737205D01*
X-663656Y-100819773D01*
X-689272Y-100916875D01*
X-748444Y-101019524D01*
X-800728Y-101063930D01*
X-905844Y-101091666D01*
X-1002870Y-101052940D01*
X-1074083Y-100957921D01*
X-1101759Y-100816780D01*
X-1102345Y-100764373D01*
X-1115937Y-100702025D01*
X-1165875Y-100682024D01*
X-1275899Y-100686626D01*
X-1320254Y-100690258D01*
X-1409503Y-100708006D01*
X-1449244Y-100752836D01*
X-1465525Y-100846742D01*
X-1467232Y-100860812D01*
X-1515177Y-100996570D01*
X-1599894Y-101073538D01*
X-1701097Y-101093002D01*
X-1798500Y-101056244D01*
X-1871818Y-100964548D01*
X-1900765Y-100819198D01*
X-1900770Y-100813957D01*
X-1908576Y-100722169D01*
X-1948711Y-100685302D01*
X-2046981Y-100678530D01*
X-2061635Y-100678363D01*
X-2180819Y-100653193D01*
X-2262083Y-100573398D01*
X-2299381Y-100510155D01*
X-2306578Y-100445439D01*
X-2262083Y-100363133D01*
X-2258818Y-100358166D01*
X-2227617Y-100316630D01*
X-2188672Y-100288528D01*
X-2126713Y-100271237D01*
X-2026465Y-100262135D01*
X-1872657Y-100258597D01*
X-1650017Y-100258000D01*
X-1106836Y-100258000D01*
X-1093784Y-100101623D01*
X-1090367Y-100069489D01*
X-1053362Y-99955900D01*
X-967960Y-99882240D01*
X-901650Y-99849229D01*
X-838255Y-99846525D01*
X-769031Y-99897205D01*
G37*
G36*
X3312585Y-102614757D02*
G01*
X3538591Y-102619191D01*
X3732779Y-102626956D01*
X3878545Y-102638086D01*
X3959289Y-102652611D01*
X3965100Y-102654893D01*
X4065815Y-102732807D01*
X4096748Y-102845146D01*
X4052249Y-102972477D01*
X4033655Y-102999172D01*
X3990258Y-103040634D01*
X3925708Y-103063608D01*
X3819033Y-103073459D01*
X3649259Y-103075550D01*
X3313804Y-103075550D01*
X3313804Y-103454027D01*
X3313804Y-103832504D01*
X3452579Y-103832504D01*
X3577625Y-103850055D01*
X3664567Y-103918306D01*
X3692281Y-104042769D01*
X3680676Y-104123934D01*
X3641817Y-104202570D01*
X3627734Y-104211887D01*
X3529183Y-104234762D01*
X3347527Y-104248469D01*
X3082513Y-104253034D01*
X2867193Y-104251081D01*
X2692018Y-104241627D01*
X2577425Y-104220358D01*
X2510976Y-104182986D01*
X2480229Y-104125219D01*
X2472745Y-104042769D01*
X2492753Y-103933079D01*
X2570559Y-103856815D01*
X2712447Y-103832504D01*
X2761159Y-103831814D01*
X2823362Y-103817353D01*
X2847267Y-103765849D01*
X2851126Y-103653779D01*
X2850712Y-103603329D01*
X2840654Y-103516067D01*
X2804587Y-103479846D01*
X2726104Y-103470633D01*
X2590384Y-103442738D01*
X2501633Y-103359313D01*
X2472745Y-103217586D01*
X2472738Y-103211469D01*
X2464916Y-103119236D01*
X2424786Y-103082291D01*
X2326529Y-103075550D01*
X2322296Y-103075526D01*
X2185643Y-103042950D01*
X2101414Y-102963183D01*
X2075144Y-102857750D01*
X2112370Y-102748176D01*
X2218626Y-102655984D01*
X2286308Y-102641440D01*
X2422391Y-102629697D01*
X2609662Y-102621126D01*
X2831519Y-102615757D01*
X3071360Y-102613623D01*
X3312585Y-102614757D01*
G37*
G36*
X-1624700Y-95098698D02*
G01*
X-1546802Y-95135362D01*
X-1493399Y-95211985D01*
X-1461275Y-95339401D01*
X-1447214Y-95528446D01*
X-1448001Y-95789954D01*
X-1459209Y-96263133D01*
X-1280484Y-96263050D01*
X-1228742Y-96262630D01*
X-1142585Y-96252689D01*
X-1108062Y-96217132D01*
X-1101759Y-96139812D01*
X-1101570Y-96128809D01*
X-1066396Y-96001973D01*
X-985730Y-95919795D01*
X-881631Y-95889220D01*
X-776162Y-95917190D01*
X-691380Y-96010649D01*
X-690950Y-96011482D01*
X-664900Y-96108727D01*
X-649816Y-96260772D01*
X-645097Y-96444521D01*
X-650147Y-96636877D01*
X-664366Y-96814743D01*
X-687156Y-96955020D01*
X-717918Y-97034613D01*
X-734406Y-97051074D01*
X-836243Y-97095913D01*
X-956423Y-97097570D01*
X-1051295Y-97053563D01*
X-1052422Y-97052402D01*
X-1087305Y-96975759D01*
X-1101759Y-96864325D01*
X-1101759Y-96725550D01*
X-1831168Y-96725550D01*
X-1952563Y-96725410D01*
X-2209812Y-96722639D01*
X-2398548Y-96713613D01*
X-2529977Y-96694834D01*
X-2615306Y-96662802D01*
X-2665743Y-96614019D01*
X-2692494Y-96544987D01*
X-2706767Y-96452206D01*
X-2714375Y-96404082D01*
X-2753728Y-96337306D01*
X-2846957Y-96311812D01*
X-2967867Y-96284266D01*
X-3052461Y-96215296D01*
X-3078249Y-96098017D01*
X-3078198Y-96088493D01*
X-3069772Y-96009150D01*
X-3038400Y-95953387D01*
X-2971861Y-95917122D01*
X-2857935Y-95896272D01*
X-2684402Y-95886756D01*
X-2439043Y-95884491D01*
X-1900765Y-95884491D01*
X-1900765Y-95551070D01*
X-1899170Y-95452094D01*
X-1880663Y-95269471D01*
X-1837224Y-95155341D01*
X-1763627Y-95099991D01*
X-1654648Y-95093714D01*
X-1624700Y-95098698D01*
G37*
G36*
X7838262Y-99469593D02*
G01*
X7971595Y-99507903D01*
X8043974Y-99579747D01*
X8065791Y-99690904D01*
X8064383Y-99710854D01*
X8014167Y-99813391D01*
X7911499Y-99890897D01*
X7783090Y-99921577D01*
X7709525Y-99941454D01*
X7687314Y-100017352D01*
X7687314Y-100017799D01*
X7651499Y-100164271D01*
X7554549Y-100263524D01*
X7411585Y-100300053D01*
X7410154Y-100300054D01*
X7313245Y-100307244D01*
X7274085Y-100345232D01*
X7266784Y-100438828D01*
X7266772Y-100441940D01*
X7251586Y-100553054D01*
X7216321Y-100628067D01*
X7159073Y-100660171D01*
X7056519Y-100678530D01*
X6946830Y-100658522D01*
X6870565Y-100580715D01*
X6846255Y-100438828D01*
X6845106Y-100380385D01*
X6828379Y-100324572D01*
X6773308Y-100303387D01*
X6657016Y-100300053D01*
X6577320Y-100300896D01*
X6501212Y-100313162D01*
X6472323Y-100353547D01*
X6467778Y-100438828D01*
X6450227Y-100563874D01*
X6381975Y-100650816D01*
X6257513Y-100678530D01*
X6147823Y-100658522D01*
X6071559Y-100580715D01*
X6047248Y-100438828D01*
X6047248Y-100300053D01*
X5724649Y-100300053D01*
X5690160Y-100299852D01*
X5482823Y-100285248D01*
X5346279Y-100244250D01*
X5271196Y-100172247D01*
X5248241Y-100064629D01*
X5249898Y-100043911D01*
X5300729Y-99944480D01*
X5401977Y-99868038D01*
X5525686Y-99837471D01*
X5542313Y-99836720D01*
X5606787Y-99802863D01*
X5642738Y-99704806D01*
X5678107Y-99584834D01*
X5750976Y-99489013D01*
X5860155Y-99458994D01*
X5967179Y-99485651D01*
X6056155Y-99576261D01*
X6089301Y-99714315D01*
X6089301Y-99837471D01*
X6657016Y-99837471D01*
X7224731Y-99837471D01*
X7224731Y-99725136D01*
X7245974Y-99599503D01*
X7316914Y-99517165D01*
X7447774Y-99472467D01*
X7648775Y-99458994D01*
X7838262Y-99469593D01*
G37*
G36*
X-1804286Y-98242624D02*
G01*
X-1624929Y-98280919D01*
X-1516576Y-98362162D01*
X-1480235Y-98485749D01*
X-1501206Y-98602244D01*
X-1578721Y-98678123D01*
X-1719937Y-98702040D01*
X-1858712Y-98702040D01*
X-1858712Y-99080517D01*
X-1858712Y-99458994D01*
X-1690500Y-99458994D01*
X-1522288Y-99458994D01*
X-1522288Y-99152954D01*
X-1520755Y-99060122D01*
X-1500396Y-98869508D01*
X-1451777Y-98746195D01*
X-1369098Y-98679811D01*
X-1246560Y-98659987D01*
X-1238686Y-98659978D01*
X-1145548Y-98652125D01*
X-1108439Y-98612006D01*
X-1101759Y-98513771D01*
X-1084792Y-98410898D01*
X-1018696Y-98308609D01*
X-920210Y-98260351D01*
X-808195Y-98281078D01*
X-781003Y-98299097D01*
X-703829Y-98391000D01*
X-656676Y-98505254D01*
X-657166Y-98604160D01*
X-659814Y-98613059D01*
X-636071Y-98648918D01*
X-539241Y-98659987D01*
X-483884Y-98664067D01*
X-357029Y-98714161D01*
X-283416Y-98809028D01*
X-277916Y-98933124D01*
X-318192Y-99014180D01*
X-411251Y-99077028D01*
X-564670Y-99111842D01*
X-789099Y-99122570D01*
X-1059706Y-99122570D01*
X-1059706Y-99429930D01*
X-1065203Y-99594952D01*
X-1091322Y-99745694D01*
X-1143789Y-99839973D01*
X-1227918Y-99892393D01*
X-1257202Y-99899501D01*
X-1372912Y-99911428D01*
X-1541783Y-99918074D01*
X-1744213Y-99919802D01*
X-1960596Y-99916977D01*
X-2171331Y-99909962D01*
X-2356815Y-99899121D01*
X-2497443Y-99884818D01*
X-2573613Y-99867416D01*
X-2586569Y-99860467D01*
X-2672867Y-99774584D01*
X-2694849Y-99669503D01*
X-2659470Y-99567215D01*
X-2573685Y-99489715D01*
X-2444450Y-99458994D01*
X-2321295Y-99458994D01*
X-2321295Y-98952447D01*
X-2320929Y-98798326D01*
X-2317698Y-98630318D01*
X-2308684Y-98517800D01*
X-2290999Y-98443721D01*
X-2261758Y-98391031D01*
X-2218074Y-98342678D01*
X-2139677Y-98280495D01*
X-2040159Y-98247961D01*
X-1891007Y-98239457D01*
X-1804286Y-98242624D01*
G37*
G36*
X1666737Y-97557960D02*
G01*
X1792651Y-97576438D01*
X1908387Y-97611657D01*
X2041595Y-97668344D01*
X2237712Y-97777285D01*
X2487244Y-97992192D01*
X2678941Y-98263528D01*
X2810342Y-98586323D01*
X2878984Y-98955605D01*
X2882407Y-99366402D01*
X2875703Y-99444656D01*
X2803265Y-99822576D01*
X2669629Y-100148311D01*
X2477225Y-100418281D01*
X2228481Y-100628904D01*
X1925829Y-100776598D01*
X1765991Y-100817232D01*
X1506388Y-100844870D01*
X1227155Y-100841782D01*
X961244Y-100808797D01*
X741607Y-100746748D01*
X598682Y-100682432D01*
X361412Y-100536508D01*
X198930Y-100367821D01*
X105584Y-100169479D01*
X75725Y-99934590D01*
X78515Y-99792402D01*
X93153Y-99709649D01*
X129000Y-99663421D01*
X195418Y-99629884D01*
X204932Y-99626076D01*
X367675Y-99600914D01*
X511657Y-99649166D01*
X617242Y-99764564D01*
X708343Y-99911112D01*
X854892Y-100084392D01*
X1003811Y-100196431D01*
X1040458Y-100212293D01*
X1198986Y-100246891D01*
X1389058Y-100255485D01*
X1573642Y-100238151D01*
X1715705Y-100194965D01*
X1841417Y-100104298D01*
X1980429Y-99927034D01*
X2084514Y-99700143D01*
X2149793Y-99440514D01*
X2172390Y-99165036D01*
X2148428Y-98890596D01*
X2074029Y-98634084D01*
X2040086Y-98561364D01*
X1894012Y-98356297D01*
X1705862Y-98211397D01*
X1488668Y-98134625D01*
X1255461Y-98133944D01*
X1245074Y-98135761D01*
X1031897Y-98207089D01*
X849335Y-98343241D01*
X684356Y-98553795D01*
X602789Y-98668439D01*
X479789Y-98783505D01*
X351679Y-98825916D01*
X206491Y-98801886D01*
X170021Y-98787216D01*
X121083Y-98746817D01*
X96156Y-98671653D01*
X83816Y-98537057D01*
X82933Y-98389511D01*
X117052Y-98215253D01*
X203755Y-98062104D01*
X355008Y-97902049D01*
X454107Y-97815920D01*
X638988Y-97689945D01*
X835899Y-97609276D01*
X1067973Y-97565832D01*
X1358341Y-97551534D01*
X1502995Y-97551496D01*
X1666737Y-97557960D01*
G37*
G36*
X5171385Y-100288679D02*
G01*
X5257949Y-100376380D01*
X5290294Y-100513322D01*
X5293299Y-100571425D01*
X5323844Y-100624642D01*
X5408416Y-100636477D01*
X5543005Y-100661038D01*
X5643330Y-100741228D01*
X5679284Y-100867769D01*
X5650521Y-100982693D01*
X5556610Y-101068359D01*
X5408416Y-101099060D01*
X5387926Y-101099255D01*
X5322458Y-101111269D01*
X5295528Y-101159280D01*
X5290294Y-101267272D01*
X5290431Y-101296451D01*
X5298868Y-101389681D01*
X5332582Y-101428031D01*
X5408416Y-101435484D01*
X5408532Y-101435484D01*
X5551509Y-101464952D01*
X5643320Y-101539651D01*
X5681802Y-101639162D01*
X5664798Y-101743065D01*
X5590146Y-101830941D01*
X5455687Y-101882369D01*
X5451750Y-101883002D01*
X5346238Y-101907491D01*
X5300326Y-101948460D01*
X5290294Y-102026597D01*
X5264856Y-102146860D01*
X5176154Y-102242223D01*
X5034973Y-102276543D01*
X4911817Y-102276543D01*
X4911817Y-102582584D01*
X4909627Y-102691080D01*
X4889225Y-102871702D01*
X4846353Y-102982087D01*
X4770689Y-103049885D01*
X4663262Y-103070240D01*
X4559118Y-103032016D01*
X4480395Y-102944435D01*
X4449235Y-102816715D01*
X4448055Y-102780649D01*
X4423783Y-102713966D01*
X4353459Y-102697073D01*
X4329010Y-102695925D01*
X4203345Y-102654951D01*
X4108357Y-102571177D01*
X4070758Y-102466401D01*
X4097103Y-102357882D01*
X4187446Y-102267868D01*
X4326080Y-102234491D01*
X4378070Y-102232130D01*
X4435740Y-102204229D01*
X4449235Y-102126593D01*
X4466314Y-102002243D01*
X4542024Y-101890106D01*
X4681037Y-101832117D01*
X4703559Y-101827766D01*
X4787371Y-101801154D01*
X4821336Y-101748585D01*
X4827712Y-101641069D01*
X4827609Y-101615775D01*
X4819249Y-101522734D01*
X4784348Y-101484776D01*
X4704556Y-101477537D01*
X4582440Y-101450925D01*
X4486870Y-101379320D01*
X4449235Y-101282530D01*
X4467086Y-101181866D01*
X4546303Y-101089433D01*
X4682006Y-101057007D01*
X4827712Y-101057007D01*
X4828331Y-100773149D01*
X4836931Y-100588123D01*
X4873691Y-100414434D01*
X4941871Y-100309257D01*
X5044177Y-100266231D01*
X5046311Y-100265990D01*
X5171385Y-100288679D01*
G37*
G36*
X1357767Y-95884908D02*
G01*
X1521190Y-95896350D01*
X1625753Y-95934251D01*
X1684408Y-96012947D01*
X1710104Y-96146776D01*
X1715791Y-96350077D01*
X1715791Y-96683497D01*
X2049211Y-96683497D01*
X2172090Y-96685807D01*
X2340727Y-96704825D01*
X2445745Y-96748774D01*
X2499612Y-96824493D01*
X2514798Y-96938819D01*
X2515038Y-96963472D01*
X2527139Y-97029941D01*
X2575108Y-97056902D01*
X2683010Y-97061974D01*
X2683400Y-97061974D01*
X2792089Y-97055718D01*
X2840302Y-97028193D01*
X2851221Y-96966199D01*
X2866033Y-96884550D01*
X2916686Y-96776960D01*
X2960347Y-96728411D01*
X3022226Y-96699714D01*
X3123614Y-96686615D01*
X3286752Y-96683497D01*
X3437902Y-96688762D01*
X3571807Y-96706478D01*
X3641817Y-96733961D01*
X3669322Y-96790010D01*
X3689633Y-96913194D01*
X3694373Y-97068595D01*
X3684294Y-97228169D01*
X3660147Y-97363870D01*
X3622684Y-97447653D01*
X3609170Y-97461220D01*
X3541998Y-97499514D01*
X3434573Y-97519073D01*
X3265234Y-97524557D01*
X3197049Y-97524413D01*
X3073151Y-97520554D01*
X3007592Y-97506281D01*
X2981845Y-97474827D01*
X2977380Y-97419424D01*
X2977380Y-97314292D01*
X2514798Y-97314292D01*
X2052215Y-97314292D01*
X2052215Y-97209159D01*
X2052215Y-97104027D01*
X1295261Y-97104027D01*
X538308Y-97104027D01*
X538308Y-97209159D01*
X534518Y-97261665D01*
X508455Y-97297139D01*
X439482Y-97311563D01*
X307016Y-97314292D01*
X191505Y-97312569D01*
X113462Y-97300723D01*
X81729Y-97269371D01*
X75725Y-97209159D01*
X70498Y-97152821D01*
X32807Y-97113054D01*
X-63050Y-97104027D01*
X-188096Y-97086476D01*
X-275038Y-97018224D01*
X-302752Y-96893762D01*
X-297255Y-96823963D01*
X-263680Y-96752919D01*
X-187532Y-96710089D01*
X-55127Y-96689080D01*
X147215Y-96683497D01*
X496255Y-96683497D01*
X496255Y-96539315D01*
X524429Y-96392854D01*
X611137Y-96296317D01*
X751576Y-96262967D01*
X812151Y-96259667D01*
X863561Y-96227833D01*
X874731Y-96139812D01*
X875077Y-96119556D01*
X899027Y-96005910D01*
X969132Y-95933652D01*
X1097255Y-95895580D01*
X1295261Y-95884491D01*
X1357767Y-95884908D01*
G37*
G36*
X8060944Y-94332910D02*
G01*
X8055769Y-94585127D01*
X8043675Y-94772867D01*
X8025031Y-94886429D01*
X8004004Y-94945011D01*
X7890622Y-95136183D01*
X7727716Y-95306900D01*
X7540489Y-95428943D01*
X7519904Y-95438143D01*
X7448367Y-95463849D01*
X7363510Y-95481771D01*
X7251185Y-95492923D01*
X7097244Y-95498324D01*
X6887536Y-95498989D01*
X6607915Y-95495935D01*
X5843914Y-95484987D01*
X5661723Y-95358568D01*
X5518082Y-95231088D01*
X5363887Y-95004090D01*
X5346038Y-94968538D01*
X5306322Y-94881592D01*
X5279120Y-94797981D01*
X5262071Y-94700219D01*
X5252814Y-94570817D01*
X5248991Y-94392288D01*
X5248241Y-94147143D01*
X5249301Y-93955866D01*
X5257440Y-93692821D01*
X5276798Y-93489931D01*
X5288322Y-93437007D01*
X5710824Y-93437007D01*
X5710824Y-94087362D01*
X5710840Y-94132911D01*
X5712048Y-94371305D01*
X5716376Y-94542589D01*
X5725513Y-94661400D01*
X5741146Y-94742374D01*
X5764960Y-94800150D01*
X5798643Y-94849361D01*
X5891561Y-94942743D01*
X6006820Y-95023245D01*
X6012020Y-95025849D01*
X6098733Y-95053655D01*
X6231675Y-95072072D01*
X6423401Y-95082247D01*
X6686468Y-95085327D01*
X6848054Y-95083878D01*
X7118045Y-95068719D01*
X7319755Y-95029018D01*
X7462932Y-94954944D01*
X7557323Y-94836663D01*
X7612676Y-94664344D01*
X7638740Y-94428156D01*
X7645261Y-94118265D01*
X7644740Y-94019174D01*
X7635516Y-93766166D01*
X7611726Y-93576912D01*
X7569413Y-93436466D01*
X7504621Y-93329882D01*
X7413395Y-93242213D01*
X7400510Y-93232288D01*
X7350170Y-93200162D01*
X7289382Y-93177807D01*
X7203416Y-93163471D01*
X7077540Y-93155400D01*
X6897024Y-93151843D01*
X6647140Y-93151047D01*
X5996784Y-93151047D01*
X5853804Y-93294027D01*
X5710824Y-93437007D01*
X5288322Y-93437007D01*
X5311126Y-93332283D01*
X5364177Y-93204965D01*
X5439700Y-93093065D01*
X5541448Y-92981671D01*
X5608540Y-92917730D01*
X5718439Y-92832045D01*
X5837721Y-92770352D01*
X5981298Y-92728899D01*
X6164083Y-92703934D01*
X6400986Y-92691706D01*
X6706921Y-92688464D01*
X6804113Y-92688529D01*
X7023217Y-92690115D01*
X7182012Y-92695625D01*
X7297987Y-92707420D01*
X7388630Y-92727859D01*
X7471427Y-92759302D01*
X7563867Y-92804110D01*
X7740248Y-92915774D01*
X7918345Y-93101935D01*
X8044765Y-93284115D01*
X8058467Y-94006074D01*
X8058832Y-94025916D01*
X8059467Y-94118265D01*
X8060944Y-94332910D01*
G37*
G36*
X8058467Y-104533437D02*
G01*
X8044765Y-105255396D01*
X7918345Y-105437576D01*
X7790837Y-105581233D01*
X7563867Y-105735401D01*
X7501003Y-105766604D01*
X7420313Y-105801157D01*
X7337763Y-105824673D01*
X7236904Y-105839240D01*
X7101288Y-105846946D01*
X6914466Y-105849878D01*
X6659989Y-105850123D01*
X6495049Y-105849137D01*
X6228747Y-105841539D01*
X6024139Y-105823431D01*
X5866502Y-105791222D01*
X5741114Y-105741322D01*
X5633252Y-105670138D01*
X5528194Y-105574082D01*
X5490457Y-105535434D01*
X5412413Y-105447174D01*
X5355229Y-105359699D01*
X5315678Y-105258862D01*
X5290533Y-105130517D01*
X5276568Y-104960518D01*
X5270555Y-104734720D01*
X5269268Y-104438974D01*
X5269268Y-104405534D01*
X5710824Y-104405534D01*
X5711001Y-104487793D01*
X5715778Y-104747210D01*
X5729785Y-104940294D01*
X5756640Y-105080973D01*
X5799961Y-105183172D01*
X5863368Y-105260820D01*
X5950479Y-105327842D01*
X5996345Y-105353501D01*
X6077656Y-105380385D01*
X6193303Y-105398394D01*
X6359870Y-105409826D01*
X6593937Y-105416978D01*
X6864110Y-105418750D01*
X7127698Y-105403828D01*
X7324970Y-105361892D01*
X7465316Y-105284235D01*
X7558128Y-105162150D01*
X7612796Y-104986933D01*
X7638710Y-104749875D01*
X7645261Y-104442272D01*
X7644230Y-104295124D01*
X7631206Y-104020245D01*
X7595916Y-103814235D01*
X7529217Y-103666889D01*
X7421970Y-103568000D01*
X7265034Y-103507363D01*
X7049268Y-103474771D01*
X6765532Y-103460020D01*
X6621638Y-103456937D01*
X6363454Y-103460342D01*
X6168098Y-103480100D01*
X6021576Y-103519289D01*
X5909893Y-103580988D01*
X5819056Y-103668278D01*
X5800750Y-103690347D01*
X5763742Y-103742112D01*
X5738592Y-103800075D01*
X5723012Y-103879818D01*
X5714716Y-103996921D01*
X5711416Y-104166965D01*
X5710824Y-104405534D01*
X5269268Y-104405534D01*
X5269268Y-103678723D01*
X5396076Y-103473615D01*
X5421938Y-103433554D01*
X5560976Y-103274300D01*
X5747815Y-103151002D01*
X5825085Y-103111763D01*
X5901673Y-103079455D01*
X5982924Y-103057585D01*
X6084727Y-103044150D01*
X6222971Y-103037147D01*
X6413543Y-103034571D01*
X6672332Y-103034421D01*
X6934786Y-103036755D01*
X7184662Y-103046790D01*
X7376379Y-103068205D01*
X7524027Y-103104697D01*
X7641698Y-103159962D01*
X7743484Y-103237697D01*
X7843477Y-103341596D01*
X7911588Y-103425946D01*
X7972383Y-103526516D01*
X8015351Y-103642390D01*
X8042968Y-103787294D01*
X8057709Y-103974954D01*
X8062050Y-104219093D01*
X8059506Y-104442272D01*
X8058467Y-104533437D01*
G37*
G36*
X-2243541Y-94262198D02*
G01*
X-2250579Y-94496847D01*
X-2259613Y-94669779D01*
X-2273417Y-94793669D01*
X-2294892Y-94886207D01*
X-2326941Y-94965080D01*
X-2372465Y-95047978D01*
X-2444267Y-95156381D01*
X-2606794Y-95320647D01*
X-2825931Y-95450032D01*
X-2832647Y-95452831D01*
X-2931638Y-95472707D01*
X-3106125Y-95487947D01*
X-3348547Y-95498072D01*
X-3651342Y-95502598D01*
X-3929640Y-95502131D01*
X-4170829Y-95495275D01*
X-4354458Y-95478866D01*
X-4494440Y-95449919D01*
X-4604688Y-95405450D01*
X-4699116Y-95342476D01*
X-4791636Y-95258011D01*
X-4858366Y-95188218D01*
X-4940958Y-95083367D01*
X-4999834Y-94970894D01*
X-5038873Y-94835525D01*
X-5061955Y-94661985D01*
X-5072959Y-94434998D01*
X-5075765Y-94139292D01*
X-5075709Y-94116196D01*
X-4634209Y-94116196D01*
X-4630750Y-94375733D01*
X-4616765Y-94584166D01*
X-4587937Y-94736702D01*
X-4539959Y-94847755D01*
X-4468528Y-94931742D01*
X-4369336Y-95003080D01*
X-4350519Y-95014096D01*
X-4282011Y-95044874D01*
X-4196062Y-95065424D01*
X-4076013Y-95077691D01*
X-3905209Y-95083624D01*
X-3666990Y-95085169D01*
X-3606056Y-95085100D01*
X-3383792Y-95082648D01*
X-3225329Y-95075292D01*
X-3114143Y-95061135D01*
X-3033711Y-95038278D01*
X-2967511Y-95004824D01*
X-2908626Y-94967458D01*
X-2826128Y-94902441D01*
X-2768683Y-94826952D01*
X-2731809Y-94726273D01*
X-2711021Y-94585686D01*
X-2701837Y-94390471D01*
X-2699772Y-94125910D01*
X-2702901Y-93845306D01*
X-2719771Y-93601066D01*
X-2760318Y-93421860D01*
X-2834452Y-93297679D01*
X-2952083Y-93218515D01*
X-3123120Y-93174361D01*
X-3357474Y-93155207D01*
X-3665054Y-93151047D01*
X-3922793Y-93153807D01*
X-4171624Y-93170236D01*
X-4354697Y-93210395D01*
X-4482027Y-93284256D01*
X-4563629Y-93401794D01*
X-4609517Y-93572981D01*
X-4629705Y-93807790D01*
X-4634209Y-94116196D01*
X-5075709Y-94116196D01*
X-5075520Y-94038160D01*
X-5070428Y-93754684D01*
X-5056578Y-93536223D01*
X-5031119Y-93368250D01*
X-4991203Y-93236237D01*
X-4933979Y-93125654D01*
X-4856597Y-93021976D01*
X-4828271Y-92989194D01*
X-4724794Y-92888068D01*
X-4610807Y-92813638D01*
X-4471620Y-92761550D01*
X-4292542Y-92727450D01*
X-4058883Y-92706985D01*
X-3755953Y-92695802D01*
X-3499827Y-92691805D01*
X-3241341Y-92695908D01*
X-3040628Y-92713368D01*
X-2883186Y-92747591D01*
X-2754514Y-92801985D01*
X-2640111Y-92879957D01*
X-2525476Y-92984914D01*
X-2469142Y-93044597D01*
X-2379607Y-93164107D01*
X-2314874Y-93298740D01*
X-2271921Y-93462182D01*
X-2247728Y-93668116D01*
X-2239275Y-93930226D01*
X-2241790Y-94125910D01*
X-2243541Y-94262198D01*
G37*
G36*
X2136321Y-93718762D02*
G01*
X2135738Y-93807129D01*
X2125255Y-94025252D01*
X2097657Y-94175046D01*
X2047786Y-94267920D01*
X1970483Y-94315279D01*
X1860592Y-94328530D01*
X1715791Y-94328530D01*
X1715791Y-94846155D01*
X1715136Y-94974381D01*
X1708370Y-95184925D01*
X1691558Y-95331157D01*
X1661372Y-95426330D01*
X1614488Y-95483699D01*
X1547579Y-95516520D01*
X1487458Y-95521646D01*
X1380469Y-95477587D01*
X1296225Y-95381656D01*
X1276168Y-95312120D01*
X1259578Y-95181214D01*
X1253208Y-95025169D01*
X1253208Y-94749060D01*
X1084996Y-94749060D01*
X916784Y-94749060D01*
X916784Y-95084514D01*
X916409Y-95176717D01*
X911282Y-95312797D01*
X895762Y-95396149D01*
X864376Y-95447820D01*
X811652Y-95488854D01*
X748409Y-95526153D01*
X683693Y-95533349D01*
X601387Y-95488854D01*
X590929Y-95481770D01*
X517092Y-95398384D01*
X496255Y-95273753D01*
X496255Y-95273237D01*
X489236Y-95175156D01*
X452598Y-95135157D01*
X362894Y-95127537D01*
X357388Y-95127516D01*
X222724Y-95106254D01*
X135975Y-95037613D01*
X89517Y-94910624D01*
X75725Y-94714314D01*
X75781Y-94698232D01*
X91054Y-94502174D01*
X138152Y-94375269D01*
X224016Y-94306907D01*
X355587Y-94286477D01*
X496255Y-94286477D01*
X496255Y-93908000D01*
X496255Y-93529524D01*
X916784Y-93529524D01*
X916784Y-93908000D01*
X916784Y-94286477D01*
X1084996Y-94286477D01*
X1085387Y-94286477D01*
X1194076Y-94280221D01*
X1242289Y-94252696D01*
X1253208Y-94190702D01*
X1283302Y-94062270D01*
X1380355Y-93947401D01*
X1527761Y-93883973D01*
X1549778Y-93879721D01*
X1633410Y-93853153D01*
X1667348Y-93800587D01*
X1673738Y-93693055D01*
X1673738Y-93529524D01*
X1295261Y-93529524D01*
X916784Y-93529524D01*
X496255Y-93529524D01*
X352073Y-93529524D01*
X284198Y-93523691D01*
X161577Y-93473742D01*
X89981Y-93387205D01*
X79896Y-93281758D01*
X141808Y-93175077D01*
X152205Y-93165823D01*
X225268Y-93132473D01*
X349595Y-93114419D01*
X541311Y-93108994D01*
X874731Y-93108994D01*
X874731Y-92964193D01*
X894450Y-92845594D01*
X968361Y-92754912D01*
X1104800Y-92704229D01*
X1311820Y-92688464D01*
X1482860Y-92699763D01*
X1618597Y-92745627D01*
X1693075Y-92832955D01*
X1715791Y-92968326D01*
X1715792Y-92970899D01*
X1723321Y-93064400D01*
X1762950Y-93102041D01*
X1860592Y-93108994D01*
X1900550Y-93110282D01*
X1999182Y-93133465D01*
X2066918Y-93194498D01*
X2108914Y-93304787D01*
X2130329Y-93475739D01*
X2135687Y-93693055D01*
X2136321Y-93718762D01*
G37*
G36*
X4449198Y-92689184D02*
G01*
X4642003Y-92698839D01*
X4772064Y-92729925D01*
X4851728Y-92794976D01*
X4893343Y-92906527D01*
X4909257Y-93077110D01*
X4911817Y-93319259D01*
X4910765Y-93436216D01*
X4898515Y-93651177D01*
X4868304Y-93798799D01*
X4814887Y-93890324D01*
X4733017Y-93936995D01*
X4617447Y-93950053D01*
X4491288Y-93950053D01*
X4491288Y-94307504D01*
X4492150Y-94468336D01*
X4497897Y-94579309D01*
X4513160Y-94637979D01*
X4542568Y-94660983D01*
X4590749Y-94664954D01*
X4693429Y-94690510D01*
X4801014Y-94752112D01*
X4911817Y-94839270D01*
X4911817Y-95478682D01*
X4911805Y-95505732D01*
X4909746Y-95759823D01*
X4903350Y-95944258D01*
X4891438Y-96072230D01*
X4872832Y-96156932D01*
X4846353Y-96211557D01*
X4788101Y-96266882D01*
X4678954Y-96304489D01*
X4569729Y-96290457D01*
X4492767Y-96223679D01*
X4466414Y-96152273D01*
X4449235Y-96034441D01*
X4446541Y-95988891D01*
X4414693Y-95938366D01*
X4326080Y-95926543D01*
X4206605Y-95902614D01*
X4107505Y-95820555D01*
X4070758Y-95694633D01*
X4072166Y-95674683D01*
X4122382Y-95572146D01*
X4225050Y-95494640D01*
X4353459Y-95463961D01*
X4353682Y-95463961D01*
X4415566Y-95452973D01*
X4443018Y-95404630D01*
X4449235Y-95295749D01*
X4449235Y-95127537D01*
X4281023Y-95127537D01*
X4251844Y-95127674D01*
X4158613Y-95136111D01*
X4120264Y-95169825D01*
X4112811Y-95245658D01*
X4088250Y-95380248D01*
X4008061Y-95480572D01*
X3881519Y-95516527D01*
X3819511Y-95512634D01*
X3754957Y-95489694D01*
X3709045Y-95436588D01*
X3678694Y-95342543D01*
X3660827Y-95196781D01*
X3652365Y-94988528D01*
X3650228Y-94707007D01*
X3651703Y-94444088D01*
X3658736Y-94236644D01*
X3674908Y-94090834D01*
X3703796Y-93995115D01*
X3748980Y-93937945D01*
X3814037Y-93907782D01*
X3902546Y-93893083D01*
X3903605Y-93892970D01*
X4001891Y-93873460D01*
X4049981Y-93825010D01*
X4075363Y-93720103D01*
X4075396Y-93719899D01*
X4117624Y-93581591D01*
X4198031Y-93509412D01*
X4333589Y-93488115D01*
X4351640Y-93487850D01*
X4416832Y-93475544D01*
X4443877Y-93427357D01*
X4449235Y-93319259D01*
X4449235Y-93151047D01*
X4281023Y-93151047D01*
X4280632Y-93151047D01*
X4171943Y-93157303D01*
X4123730Y-93184828D01*
X4112811Y-93246822D01*
X4110865Y-93277887D01*
X4069062Y-93399013D01*
X3989167Y-93492228D01*
X3892959Y-93529524D01*
X3794332Y-93512864D01*
X3711089Y-93442502D01*
X3664647Y-93309287D01*
X3650228Y-93104861D01*
X3650591Y-93049845D01*
X3660198Y-92906014D01*
X3692179Y-92806314D01*
X3758860Y-92742727D01*
X3872570Y-92707235D01*
X4045634Y-92691820D01*
X4290380Y-92688464D01*
X4449198Y-92689184D01*
G37*
G36*
X-4216136Y-95886310D02*
G01*
X-4053312Y-95899926D01*
X-3945079Y-95937387D01*
X-3880294Y-96010744D01*
X-3847815Y-96132047D01*
X-3836498Y-96313347D01*
X-3835202Y-96566695D01*
X-3835202Y-97061974D01*
X-3712047Y-97061974D01*
X-3644662Y-97066186D01*
X-3552184Y-97100865D01*
X-3494593Y-97181009D01*
X-3465053Y-97319085D01*
X-3456726Y-97527561D01*
X-3456726Y-97860981D01*
X-3311925Y-97860981D01*
X-3171032Y-97896529D01*
X-3072682Y-97994595D01*
X-3036196Y-98138425D01*
X-3035445Y-98155052D01*
X-3001588Y-98219526D01*
X-2903532Y-98255477D01*
X-2783559Y-98290846D01*
X-2687738Y-98363716D01*
X-2657719Y-98472894D01*
X-2684376Y-98579918D01*
X-2774986Y-98668895D01*
X-2913041Y-98702040D01*
X-2937693Y-98702281D01*
X-3004163Y-98714382D01*
X-3031124Y-98762350D01*
X-3036196Y-98870252D01*
X-3036196Y-98870642D01*
X-3029940Y-98979332D01*
X-3002414Y-99027545D01*
X-2940420Y-99038464D01*
X-2851529Y-99051311D01*
X-2739731Y-99115178D01*
X-2673630Y-99214224D01*
X-2664547Y-99327726D01*
X-2723802Y-99434964D01*
X-2767732Y-99464165D01*
X-2883173Y-99492263D01*
X-3067428Y-99501047D01*
X-3259581Y-99488994D01*
X-3398551Y-99445523D01*
X-3475242Y-99365087D01*
X-3498779Y-99242211D01*
X-3499958Y-99206145D01*
X-3524230Y-99139463D01*
X-3594554Y-99122570D01*
X-3602766Y-99122460D01*
X-3740682Y-99085130D01*
X-3839467Y-98994230D01*
X-3877255Y-98869347D01*
X-3852349Y-98765036D01*
X-3761104Y-98686763D01*
X-3606676Y-98659987D01*
X-3595021Y-98659899D01*
X-3531402Y-98648174D01*
X-3504397Y-98600046D01*
X-3498779Y-98491775D01*
X-3498779Y-98491385D01*
X-3505035Y-98382695D01*
X-3532560Y-98334483D01*
X-3594554Y-98323563D01*
X-3676202Y-98308752D01*
X-3783792Y-98258099D01*
X-3798088Y-98247637D01*
X-3840050Y-98203361D01*
X-3863976Y-98137680D01*
X-3874750Y-98029718D01*
X-3877255Y-97858596D01*
X-3877255Y-97524557D01*
X-4402918Y-97524557D01*
X-4494965Y-97524408D01*
X-4690557Y-97521846D01*
X-4824085Y-97514381D01*
X-4911588Y-97499802D01*
X-4969109Y-97475896D01*
X-5012686Y-97440451D01*
X-5068953Y-97367887D01*
X-5096792Y-97293265D01*
X-5090581Y-97255889D01*
X-5028560Y-97163129D01*
X-4922980Y-97091005D01*
X-4802421Y-97061974D01*
X-4724766Y-97055890D01*
X-4684438Y-97018350D01*
X-4676262Y-96923199D01*
X-4676246Y-96918482D01*
X-4652238Y-96781153D01*
X-4575734Y-96706216D01*
X-4436560Y-96683497D01*
X-4378116Y-96682349D01*
X-4322303Y-96665622D01*
X-4301119Y-96610551D01*
X-4297785Y-96494259D01*
X-4297785Y-96305020D01*
X-4465997Y-96305020D01*
X-4502117Y-96305219D01*
X-4591570Y-96314324D01*
X-4627566Y-96350285D01*
X-4634209Y-96431179D01*
X-4639089Y-96478749D01*
X-4687820Y-96596808D01*
X-4770775Y-96688601D01*
X-4865500Y-96725550D01*
X-4918681Y-96717475D01*
X-5014089Y-96646036D01*
X-5075231Y-96508521D01*
X-5096792Y-96314377D01*
X-5096461Y-96257006D01*
X-5087385Y-96107850D01*
X-5056498Y-96004829D01*
X-4991358Y-95939461D01*
X-4879523Y-95903269D01*
X-4708550Y-95887772D01*
X-4465997Y-95884491D01*
X-4444693Y-95884488D01*
X-4216136Y-95886310D01*
G37*
G36*
X6888451Y-97310266D02*
G01*
X6888038Y-97516010D01*
X6878097Y-97667778D01*
X6847982Y-97773751D01*
X6787049Y-97842109D01*
X6684653Y-97881036D01*
X6530150Y-97898711D01*
X6312895Y-97903316D01*
X6022242Y-97903034D01*
X5295371Y-97903034D01*
X5282320Y-98059411D01*
X5277416Y-98102362D01*
X5239024Y-98209011D01*
X5151167Y-98280189D01*
X5132151Y-98290452D01*
X5057932Y-98320157D01*
X5002625Y-98301773D01*
X4930388Y-98226599D01*
X4920913Y-98215274D01*
X4854784Y-98106298D01*
X4827712Y-98005821D01*
X4827673Y-97998830D01*
X4816186Y-97936016D01*
X4767979Y-97908881D01*
X4659500Y-97903034D01*
X4491288Y-97903034D01*
X4491288Y-98681014D01*
X4491288Y-99458994D01*
X4659500Y-99458994D01*
X4827712Y-99458994D01*
X4828331Y-99175136D01*
X4836931Y-98990110D01*
X4873691Y-98816421D01*
X4941871Y-98711243D01*
X5044177Y-98668217D01*
X5046311Y-98667977D01*
X5171385Y-98690666D01*
X5257949Y-98778367D01*
X5290294Y-98915309D01*
X5293592Y-98975861D01*
X5325414Y-99027287D01*
X5413401Y-99038464D01*
X5504399Y-99055185D01*
X5621316Y-99146280D01*
X5637155Y-99168221D01*
X5678066Y-99288798D01*
X5646903Y-99395588D01*
X5553681Y-99471901D01*
X5408416Y-99501047D01*
X5336389Y-99507513D01*
X5298268Y-99546285D01*
X5290294Y-99643083D01*
X5290210Y-99653620D01*
X5266179Y-99779682D01*
X5189222Y-99858374D01*
X5044482Y-99905557D01*
X5004890Y-99914848D01*
X4931344Y-99955709D01*
X4911817Y-100031966D01*
X4891181Y-100117955D01*
X4827712Y-100215947D01*
X4753707Y-100271975D01*
X4673324Y-100300053D01*
X4667728Y-100299953D01*
X4560522Y-100258774D01*
X4480624Y-100160493D01*
X4449323Y-100030705D01*
X4449411Y-99900550D01*
X4186492Y-99914108D01*
X4035338Y-99916364D01*
X3846946Y-99892121D01*
X3726295Y-99831404D01*
X3667445Y-99732131D01*
X3660605Y-99684833D01*
X3692368Y-99569527D01*
X3787082Y-99489167D01*
X3930090Y-99458994D01*
X3968567Y-99458641D01*
X4038843Y-99446391D01*
X4066155Y-99398511D01*
X4070758Y-99290782D01*
X4070758Y-99122570D01*
X3764718Y-99122570D01*
X3725948Y-99122300D01*
X3514445Y-99105993D01*
X3373930Y-99061318D01*
X3295875Y-98983897D01*
X3271751Y-98869347D01*
X3276050Y-98816055D01*
X3312471Y-98739932D01*
X3396029Y-98692032D01*
X3538734Y-98667127D01*
X3752596Y-98659987D01*
X4070758Y-98659987D01*
X4070758Y-98281510D01*
X4070758Y-97903034D01*
X3937397Y-97903034D01*
X3911571Y-97901977D01*
X3783731Y-97866087D01*
X3687942Y-97792655D01*
X3650228Y-97700075D01*
X3665223Y-97644082D01*
X3719825Y-97559408D01*
X3724893Y-97553993D01*
X3766625Y-97522850D01*
X3830334Y-97502157D01*
X3931545Y-97489886D01*
X4085781Y-97484011D01*
X4308567Y-97482504D01*
X4827712Y-97482504D01*
X4827712Y-97293265D01*
X4827035Y-97224194D01*
X4816186Y-97142232D01*
X4780306Y-97109778D01*
X4704556Y-97104027D01*
X5290294Y-97104027D01*
X5290294Y-97293265D01*
X5290294Y-97482504D01*
X5458506Y-97482504D01*
X5626718Y-97482504D01*
X5626718Y-97293265D01*
X5626718Y-97104027D01*
X5458506Y-97104027D01*
X5290294Y-97104027D01*
X4704556Y-97104027D01*
X4654010Y-97100140D01*
X4535358Y-97051551D01*
X4465451Y-96963367D01*
X4455150Y-96855928D01*
X4515318Y-96749580D01*
X4540292Y-96730545D01*
X4604056Y-96707524D01*
X4708813Y-96693093D01*
X4868909Y-96685625D01*
X5098685Y-96683497D01*
X5615969Y-96683497D01*
X5642655Y-96516612D01*
X5688681Y-96376516D01*
X5785317Y-96290108D01*
X5939351Y-96262967D01*
X6003289Y-96256213D01*
X6039340Y-96216028D01*
X6047248Y-96117261D01*
X6064372Y-96001956D01*
X6128589Y-95928023D01*
X6184829Y-95911492D01*
X6311906Y-95895875D01*
X6480615Y-95886802D01*
X6670033Y-95884142D01*
X6859236Y-95887760D01*
X7027301Y-95897524D01*
X7153304Y-95913300D01*
X7216321Y-95934954D01*
X7240459Y-95990766D01*
X7259728Y-96116783D01*
X7266784Y-96289401D01*
X7266039Y-96354795D01*
X7249695Y-96535238D01*
X7206562Y-96649072D01*
X7129524Y-96708457D01*
X7011463Y-96725550D01*
X6888308Y-96725550D01*
X6888308Y-97237388D01*
X6888418Y-97293265D01*
X6888451Y-97310266D01*
G37*
G36*
X-2657719Y-102234491D02*
G01*
X-2090004Y-102234491D01*
X-1522288Y-102234491D01*
X-1522288Y-102066279D01*
X-1522289Y-102065888D01*
X-1528545Y-101957199D01*
X-1556070Y-101908986D01*
X-1618064Y-101898067D01*
X-1685283Y-101891523D01*
X-1806319Y-101836531D01*
X-1878245Y-101741859D01*
X-1890162Y-101627234D01*
X-1831168Y-101512388D01*
X-1826101Y-101506973D01*
X-1784368Y-101475830D01*
X-1720659Y-101455137D01*
X-1619448Y-101442867D01*
X-1465212Y-101436992D01*
X-1242426Y-101435484D01*
X-723282Y-101435484D01*
X-723282Y-101312329D01*
X-717706Y-101229688D01*
X-688793Y-101154424D01*
X-624234Y-101104436D01*
X-511961Y-101074812D01*
X-339906Y-101060640D01*
X-96001Y-101057007D01*
X-26803Y-101057091D01*
X166687Y-101059391D01*
X297358Y-101066724D01*
X381746Y-101081597D01*
X436391Y-101106515D01*
X477829Y-101143987D01*
X520426Y-101196951D01*
X532475Y-101257643D01*
X493388Y-101343739D01*
X470013Y-101382182D01*
X428879Y-101423767D01*
X364478Y-101447918D01*
X256533Y-101460837D01*
X84766Y-101468724D01*
X-260699Y-101480938D01*
X-260699Y-101809144D01*
X-262688Y-101921862D01*
X-281411Y-102089209D01*
X-326676Y-102195568D01*
X-406739Y-102255493D01*
X-529859Y-102283538D01*
X-607278Y-102300676D01*
X-645338Y-102347899D01*
X-656018Y-102451602D01*
X-656553Y-102474884D01*
X-649057Y-102565407D01*
X-606198Y-102607850D01*
X-503831Y-102630612D01*
X-376658Y-102672812D01*
X-288853Y-102770275D01*
X-260699Y-102925600D01*
X-255315Y-102984843D01*
X-217645Y-103024613D01*
X-121924Y-103033497D01*
X7180Y-103052420D01*
X91272Y-103122364D01*
X116525Y-103243762D01*
X117778Y-103249788D01*
X117466Y-103260768D01*
X73465Y-103377820D01*
X-28514Y-103463096D01*
X-164924Y-103496080D01*
X-165146Y-103496080D01*
X-227031Y-103507068D01*
X-254482Y-103555411D01*
X-260699Y-103664292D01*
X-260415Y-103709167D01*
X-250316Y-103793828D01*
X-210810Y-103826870D01*
X-121924Y-103832504D01*
X-25526Y-103839854D01*
X48456Y-103874341D01*
X91984Y-103950190D01*
X112583Y-104081525D01*
X117778Y-104282471D01*
X117778Y-104631510D01*
X307016Y-104631510D01*
X496255Y-104631510D01*
X496255Y-104282471D01*
X498823Y-104133101D01*
X514512Y-103981067D01*
X550096Y-103889411D01*
X611967Y-103844450D01*
X706519Y-103832504D01*
X816209Y-103852512D01*
X892473Y-103930319D01*
X916784Y-104072206D01*
X916784Y-104210981D01*
X1239384Y-104210981D01*
X1323672Y-104211605D01*
X1502603Y-104224029D01*
X1617117Y-104263143D01*
X1681378Y-104342892D01*
X1709548Y-104477223D01*
X1715791Y-104680081D01*
X1715791Y-105009987D01*
X2233416Y-105009987D01*
X2253541Y-105009998D01*
X2495820Y-105013290D01*
X2667582Y-105025740D01*
X2781424Y-105052108D01*
X2849948Y-105097152D01*
X2885751Y-105165632D01*
X2901434Y-105262305D01*
X2903792Y-105287285D01*
X2922711Y-105370901D01*
X2973292Y-105410509D01*
X3081688Y-105430517D01*
X3162515Y-105444764D01*
X3243828Y-105485835D01*
X3289110Y-105565916D01*
X3293947Y-105580325D01*
X3304271Y-105679317D01*
X3251877Y-105765667D01*
X3235353Y-105782529D01*
X3167761Y-105824640D01*
X3065867Y-105845456D01*
X2905019Y-105851047D01*
X2821214Y-105849991D01*
X2649353Y-105834644D01*
X2542613Y-105795553D01*
X2488056Y-105725753D01*
X2472745Y-105618276D01*
X2472373Y-105575962D01*
X2460104Y-105504523D01*
X2412238Y-105477058D01*
X2304533Y-105472570D01*
X2304142Y-105472570D01*
X2195453Y-105478826D01*
X2147240Y-105506351D01*
X2136321Y-105568345D01*
X2135172Y-105592795D01*
X2094198Y-105718460D01*
X2010425Y-105813448D01*
X1905649Y-105851047D01*
X1797129Y-105824701D01*
X1707115Y-105734358D01*
X1673738Y-105595725D01*
X1673738Y-105472570D01*
X1367698Y-105472570D01*
X1188755Y-105464406D01*
X1012126Y-105426521D01*
X908537Y-105356442D01*
X874731Y-105252719D01*
X908961Y-105135964D01*
X1003327Y-105045290D01*
X1133567Y-105009987D01*
X1155325Y-105009778D01*
X1221090Y-104997734D01*
X1248025Y-104949737D01*
X1253208Y-104841775D01*
X1253208Y-104673563D01*
X1084996Y-104673563D01*
X1040121Y-104673847D01*
X955461Y-104683946D01*
X922418Y-104723452D01*
X916784Y-104812338D01*
X916769Y-104817055D01*
X892761Y-104954384D01*
X816256Y-105029322D01*
X677082Y-105052040D01*
X538308Y-105052040D01*
X538308Y-105358080D01*
X530144Y-105537024D01*
X492258Y-105713652D01*
X422180Y-105817241D01*
X318456Y-105851047D01*
X201701Y-105816818D01*
X111027Y-105722451D01*
X75725Y-105592211D01*
X73067Y-105538946D01*
X42539Y-105484703D01*
X-43916Y-105472570D01*
X-130348Y-105464814D01*
X-202526Y-105430618D01*
X-252202Y-105358386D01*
X-283944Y-105236628D01*
X-302321Y-105053853D01*
X-311901Y-104798569D01*
X-323779Y-104275360D01*
X-485857Y-104249078D01*
X-494408Y-104247653D01*
X-630901Y-104204760D01*
X-701818Y-104124584D01*
X-722638Y-103990202D01*
X-723282Y-103874557D01*
X-1091245Y-103874653D01*
X-1459209Y-103874749D01*
X-1463629Y-103999674D01*
X-1491524Y-104135394D01*
X-1574949Y-104224145D01*
X-1716676Y-104253034D01*
X-1777870Y-104254192D01*
X-1834233Y-104270923D01*
X-1855455Y-104325988D01*
X-1858712Y-104442272D01*
X-1857870Y-104521968D01*
X-1845604Y-104598077D01*
X-1805218Y-104626965D01*
X-1719937Y-104631510D01*
X-1594891Y-104649061D01*
X-1507950Y-104717313D01*
X-1480235Y-104841775D01*
X-1500244Y-104951465D01*
X-1578050Y-105027729D01*
X-1719937Y-105052040D01*
X-1777566Y-105053142D01*
X-1833916Y-105069663D01*
X-1855330Y-105124414D01*
X-1858712Y-105240330D01*
X-1858712Y-105428620D01*
X-1092221Y-105440082D01*
X-325730Y-105451543D01*
X-285544Y-105565916D01*
X-280509Y-105580880D01*
X-270262Y-105679513D01*
X-322626Y-105765667D01*
X-332630Y-105776297D01*
X-361784Y-105799980D01*
X-403190Y-105818057D01*
X-467113Y-105831282D01*
X-563818Y-105840410D01*
X-703570Y-105846196D01*
X-896632Y-105849394D01*
X-1153270Y-105850759D01*
X-1483749Y-105851047D01*
X-1534413Y-105851043D01*
X-1875256Y-105850361D01*
X-2142203Y-105847179D01*
X-2344276Y-105839602D01*
X-2490502Y-105825734D01*
X-2589905Y-105803681D01*
X-2651508Y-105771549D01*
X-2684338Y-105727442D01*
X-2697417Y-105669466D01*
X-2699772Y-105595725D01*
X-2703072Y-105535151D01*
X-2734907Y-105483741D01*
X-2822927Y-105472570D01*
X-2946924Y-105447241D01*
X-3043654Y-105359376D01*
X-3078249Y-105218728D01*
X-3053332Y-105114924D01*
X-2962006Y-105036766D01*
X-2807669Y-105009987D01*
X-2762120Y-105007293D01*
X-2711594Y-104975446D01*
X-2699772Y-104886832D01*
X-2674261Y-104762364D01*
X-2586004Y-104665921D01*
X-2444450Y-104631510D01*
X-2399499Y-104630471D01*
X-2346159Y-104613800D01*
X-2325038Y-104558668D01*
X-2321295Y-104442272D01*
X-2321295Y-104253034D01*
X-2678745Y-104253034D01*
X-3036196Y-104253034D01*
X-3036196Y-104379192D01*
X-3041076Y-104426762D01*
X-3089807Y-104544821D01*
X-3172762Y-104636614D01*
X-3267487Y-104673563D01*
X-3304864Y-104667352D01*
X-3397624Y-104605331D01*
X-3469747Y-104499751D01*
X-3498779Y-104379192D01*
X-3504863Y-104301537D01*
X-3542402Y-104261210D01*
X-3637553Y-104253034D01*
X-3642270Y-104253018D01*
X-3779599Y-104229010D01*
X-3854537Y-104152505D01*
X-3877255Y-104013332D01*
X-3878404Y-103954888D01*
X-3895131Y-103899075D01*
X-3950202Y-103877890D01*
X-4066494Y-103874557D01*
X-4255732Y-103874557D01*
X-4255732Y-104042769D01*
X-4255533Y-104078889D01*
X-4246428Y-104168342D01*
X-4210467Y-104204338D01*
X-4129573Y-104210981D01*
X-4025391Y-104231778D01*
X-3919308Y-104295087D01*
X-3863718Y-104381873D01*
X-3835202Y-104505351D01*
X-3829118Y-104583006D01*
X-3791578Y-104623334D01*
X-3696428Y-104631510D01*
X-3571381Y-104649061D01*
X-3484440Y-104717313D01*
X-3456726Y-104841775D01*
X-3476734Y-104951465D01*
X-3554540Y-105027729D01*
X-3696428Y-105052040D01*
X-3752663Y-105053067D01*
X-3809930Y-105069243D01*
X-3831737Y-105123458D01*
X-3835202Y-105238740D01*
X-3834352Y-105316919D01*
X-3821070Y-105393758D01*
X-3776527Y-105426055D01*
X-3681763Y-105438492D01*
X-3645903Y-105442680D01*
X-3518817Y-105489494D01*
X-3463269Y-105579796D01*
X-3480310Y-105712156D01*
X-3521692Y-105830020D01*
X-4040498Y-105841865D01*
X-4272819Y-105844828D01*
X-4450281Y-105838705D01*
X-4567273Y-105819325D01*
X-4635878Y-105782928D01*
X-4668180Y-105725754D01*
X-4676262Y-105644043D01*
X-4655723Y-105530657D01*
X-4578075Y-105454610D01*
X-4436560Y-105430517D01*
X-4297785Y-105430517D01*
X-4297785Y-105052040D01*
X-4297785Y-105047818D01*
X-4298903Y-104870007D01*
X-4304952Y-104759831D01*
X-4320019Y-104701135D01*
X-4348193Y-104677764D01*
X-4393561Y-104673563D01*
X-4394007Y-104673563D01*
X-4540480Y-104637749D01*
X-4639733Y-104540799D01*
X-4676262Y-104397834D01*
X-4683089Y-104301209D01*
X-4719619Y-104260776D01*
X-4809623Y-104253034D01*
X-4943638Y-104233868D01*
X-5033761Y-104166941D01*
X-5082293Y-104041550D01*
X-5096792Y-103847013D01*
X-5085090Y-103675242D01*
X-5035346Y-103524735D01*
X-4942560Y-103439103D01*
X-4802421Y-103411974D01*
X-4737156Y-103408287D01*
X-4687034Y-103376123D01*
X-4676262Y-103288819D01*
X-4650751Y-103164350D01*
X-4562494Y-103067907D01*
X-4420940Y-103033497D01*
X-4368950Y-103031137D01*
X-4311280Y-103003235D01*
X-4297785Y-102925600D01*
X-4274390Y-102780387D01*
X-4206316Y-102697073D01*
X-3036196Y-102697073D01*
X-3036196Y-103264789D01*
X-3036196Y-103832504D01*
X-2468481Y-103832504D01*
X-1900765Y-103832504D01*
X-1900765Y-103411974D01*
X-1059706Y-103411974D01*
X-891494Y-103411974D01*
X-723282Y-103411974D01*
X-723282Y-103243762D01*
X-723282Y-103075550D01*
X-891494Y-103075550D01*
X-1059706Y-103075550D01*
X-1059706Y-103243762D01*
X-1059706Y-103264789D01*
X-1059706Y-103411974D01*
X-1900765Y-103411974D01*
X-1900765Y-103264789D01*
X-1900765Y-102697073D01*
X-2468481Y-102697073D01*
X-3036196Y-102697073D01*
X-4206316Y-102697073D01*
X-4192378Y-102680015D01*
X-4044140Y-102628904D01*
X-3999340Y-102621407D01*
X-3915482Y-102596160D01*
X-3882803Y-102544589D01*
X-3877255Y-102439381D01*
X-3877255Y-102276543D01*
X-4066494Y-102276543D01*
X-4149494Y-102277434D01*
X-4223774Y-102290238D01*
X-4251557Y-102332370D01*
X-4255732Y-102421344D01*
X-4255732Y-102421780D01*
X-4292453Y-102564640D01*
X-4391854Y-102661445D01*
X-4538434Y-102697073D01*
X-4558446Y-102697737D01*
X-4618585Y-102725031D01*
X-4634209Y-102809408D01*
X-4667031Y-102940662D01*
X-4752602Y-103037817D01*
X-4869634Y-103075550D01*
X-4920958Y-103068475D01*
X-5016661Y-102998801D01*
X-5076264Y-102859148D01*
X-5096792Y-102655020D01*
X-5087146Y-102496921D01*
X-5041506Y-102346579D01*
X-4954302Y-102261376D01*
X-4821063Y-102234491D01*
X-4676262Y-102234491D01*
X-4676262Y-101898067D01*
X-3456726Y-101898067D01*
X-3456726Y-102066279D01*
X-3456726Y-102234491D01*
X-3267487Y-102234491D01*
X-3078249Y-102234491D01*
X-3078249Y-102066279D01*
X-3078249Y-101898067D01*
X-3267487Y-101898067D01*
X-3456726Y-101898067D01*
X-4676262Y-101898067D01*
X-4676262Y-101856014D01*
X-4676262Y-101477537D01*
X-4809623Y-101477537D01*
X-4835449Y-101476480D01*
X-4963289Y-101440591D01*
X-5059078Y-101367159D01*
X-5096792Y-101274579D01*
X-5081797Y-101218586D01*
X-5027195Y-101133911D01*
X-4987086Y-101100895D01*
X-4926135Y-101078432D01*
X-4829032Y-101065079D01*
X-4679805Y-101058663D01*
X-4462483Y-101057007D01*
X-4259448Y-101059276D01*
X-4074539Y-101071045D01*
X-3951727Y-101097323D01*
X-3878946Y-101143021D01*
X-3844127Y-101213052D01*
X-3835202Y-101312329D01*
X-3835202Y-101435484D01*
X-3323365Y-101435484D01*
X-3128593Y-101436442D01*
X-2933902Y-101445083D01*
X-2801955Y-101470018D01*
X-2720559Y-101519841D01*
X-2677518Y-101603147D01*
X-2660636Y-101728530D01*
X-2657719Y-101904584D01*
X-2657719Y-102066279D01*
X-2657719Y-102234491D01*
G37*
G36*
X46192969Y-33840206D02*
G01*
X46434954Y-33850000D01*
X46443607Y-35525000D01*
X46452260Y-37200000D01*
X46201622Y-37200000D01*
X45950985Y-37200000D01*
X45950985Y-35515206D01*
X45950985Y-33830412D01*
X46192969Y-33840206D01*
G37*
G36*
X55029566Y-45515206D02*
G01*
X55029566Y-47200000D01*
X54778929Y-47200000D01*
X54528292Y-47200000D01*
X54536945Y-45525000D01*
X54545598Y-43850000D01*
X54787582Y-43840206D01*
X55029566Y-43830412D01*
X55029566Y-45515206D01*
G37*
G36*
X56464783Y-34584793D02*
G01*
X56464783Y-34836253D01*
X56222799Y-34826460D01*
X55980814Y-34816666D01*
X55971008Y-34575000D01*
X55961201Y-34333333D01*
X56212992Y-34333333D01*
X56464783Y-34333333D01*
X56464783Y-34584793D01*
G37*
G36*
X65009330Y-30350000D02*
G01*
X65009330Y-31766666D01*
X64792378Y-31766666D01*
X64575427Y-31766666D01*
X64575427Y-30350000D01*
X64575427Y-28933333D01*
X64792378Y-28933333D01*
X65009330Y-28933333D01*
X65009330Y-30350000D01*
G37*
G36*
X53620844Y-44091666D02*
G01*
X53630651Y-44333333D01*
X53378860Y-44333333D01*
X53127069Y-44333333D01*
X53127069Y-45766666D01*
X53127069Y-47200000D01*
X52876741Y-47200000D01*
X52626412Y-47200000D01*
X52626412Y-45766666D01*
X52626412Y-44333333D01*
X52391310Y-44333333D01*
X52156208Y-44333333D01*
X52166014Y-44091666D01*
X52175821Y-43850000D01*
X52893429Y-43850000D01*
X53611038Y-43850000D01*
X53620844Y-44091666D01*
G37*
G36*
X58126888Y-29141666D02*
G01*
X58116951Y-29350000D01*
X57908344Y-29359923D01*
X57699737Y-29369847D01*
X57699737Y-30568257D01*
X57699737Y-31766666D01*
X57499474Y-31766666D01*
X57299211Y-31766666D01*
X57299211Y-30566666D01*
X57299211Y-29366666D01*
X57098948Y-29366666D01*
X56898686Y-29366666D01*
X56898686Y-29150000D01*
X56898686Y-28933333D01*
X57517755Y-28933333D01*
X58136825Y-28933333D01*
X58126888Y-29141666D01*
G37*
G36*
X63774376Y-29150000D02*
G01*
X63774376Y-29366666D01*
X63574113Y-29366666D01*
X63373850Y-29366666D01*
X63373850Y-30566666D01*
X63373850Y-31766666D01*
X63156899Y-31766666D01*
X62939947Y-31766666D01*
X62939947Y-30568330D01*
X62939947Y-29369993D01*
X62748029Y-29359996D01*
X62556110Y-29350000D01*
X62546173Y-29141666D01*
X62536236Y-28933333D01*
X63155306Y-28933333D01*
X63774376Y-28933333D01*
X63774376Y-29150000D01*
G37*
G36*
X52184474Y-35525000D02*
G01*
X52193127Y-37200000D01*
X51942490Y-37200000D01*
X51691853Y-37200000D01*
X51691853Y-36483333D01*
X51691853Y-35766666D01*
X51207884Y-35766666D01*
X50723916Y-35766666D01*
X50723916Y-35516666D01*
X50723916Y-35266666D01*
X51208826Y-35266666D01*
X51693736Y-35266666D01*
X51684450Y-34808333D01*
X51675164Y-34350000D01*
X51198096Y-34340742D01*
X50721028Y-34331485D01*
X50730816Y-34090742D01*
X50740604Y-33850000D01*
X51458213Y-33850000D01*
X52175821Y-33850000D01*
X52184474Y-35525000D01*
G37*
G36*
X47386202Y-40516666D02*
G01*
X47386202Y-42200000D01*
X46668594Y-42200000D01*
X45950985Y-42200000D01*
X45950985Y-41950000D01*
X45950985Y-41700000D01*
X46418265Y-41700000D01*
X46885545Y-41700000D01*
X46885545Y-41233333D01*
X46885545Y-40766666D01*
X46418265Y-40766666D01*
X45950985Y-40766666D01*
X45950985Y-40516666D01*
X45950985Y-40266666D01*
X46418265Y-40266666D01*
X46885545Y-40266666D01*
X46885545Y-39800000D01*
X46885545Y-39333333D01*
X46418265Y-39333333D01*
X45950985Y-39333333D01*
X45950985Y-39083333D01*
X45950985Y-38833333D01*
X46668594Y-38833333D01*
X47386202Y-38833333D01*
X47386202Y-40516666D01*
G37*
G36*
X52651754Y-40525000D02*
G01*
X52660407Y-42200000D01*
X51924339Y-42200000D01*
X51188271Y-42200000D01*
X51198078Y-41958333D01*
X51207884Y-41716666D01*
X51683508Y-41707418D01*
X52159132Y-41698169D01*
X52159132Y-41232418D01*
X52159132Y-40766666D01*
X51673702Y-40766666D01*
X51188271Y-40766666D01*
X51198078Y-40525000D01*
X51207884Y-40283333D01*
X51683508Y-40274084D01*
X52159132Y-40264836D01*
X52159132Y-39799084D01*
X52159132Y-39333333D01*
X51673702Y-39333333D01*
X51188271Y-39333333D01*
X51198078Y-39091666D01*
X51207884Y-38850000D01*
X51925492Y-38850000D01*
X52643101Y-38850000D01*
X52651754Y-40525000D01*
G37*
G36*
X55029566Y-40516666D02*
G01*
X55029566Y-42200000D01*
X54311958Y-42200000D01*
X53594349Y-42200000D01*
X53594349Y-41950000D01*
X53594349Y-41700000D01*
X54061629Y-41700000D01*
X54528909Y-41700000D01*
X54528909Y-41233333D01*
X54528909Y-40766666D01*
X54061629Y-40766666D01*
X53594349Y-40766666D01*
X53594349Y-40516666D01*
X53594349Y-40266666D01*
X54061629Y-40266666D01*
X54528909Y-40266666D01*
X54528909Y-39800000D01*
X54528909Y-39333333D01*
X54061629Y-39333333D01*
X53594349Y-39333333D01*
X53594349Y-39083333D01*
X53594349Y-38833333D01*
X54311958Y-38833333D01*
X55029566Y-38833333D01*
X55029566Y-40516666D01*
G37*
G36*
X56464783Y-36233333D02*
G01*
X56464783Y-36700000D01*
X56932063Y-36700000D01*
X57399343Y-36700000D01*
X57399343Y-36466666D01*
X57399343Y-36233333D01*
X57649671Y-36233333D01*
X57900000Y-36233333D01*
X57900000Y-36483333D01*
X57900000Y-36733333D01*
X57666360Y-36733333D01*
X57432720Y-36733333D01*
X57432720Y-36966666D01*
X57432720Y-37200000D01*
X56948751Y-37200000D01*
X56464783Y-37200000D01*
X56464783Y-36966666D01*
X56464783Y-36733333D01*
X56214454Y-36733333D01*
X55964126Y-36733333D01*
X55964126Y-36250000D01*
X55964126Y-35766666D01*
X56214454Y-35766666D01*
X56464783Y-35766666D01*
X56464783Y-36233333D01*
G37*
G36*
X56940407Y-33840751D02*
G01*
X57416031Y-33850000D01*
X57425838Y-34091666D01*
X57435644Y-34333333D01*
X57667822Y-34333333D01*
X57900000Y-34333333D01*
X57900000Y-34816666D01*
X57900000Y-35300000D01*
X57666360Y-35300000D01*
X57432720Y-35300000D01*
X57432720Y-35533333D01*
X57432720Y-35766666D01*
X56948751Y-35766666D01*
X56464783Y-35766666D01*
X56464783Y-35516666D01*
X56464783Y-35266666D01*
X56932063Y-35266666D01*
X57399343Y-35266666D01*
X57399343Y-34800000D01*
X57399343Y-34333333D01*
X56932063Y-34333333D01*
X56464783Y-34333333D01*
X56464783Y-34082418D01*
X56464783Y-33831502D01*
X56940407Y-33840751D01*
G37*
G36*
X69448489Y-30350000D02*
G01*
X69448489Y-31766666D01*
X68831012Y-31766666D01*
X68213535Y-31766666D01*
X68213535Y-31566666D01*
X68213535Y-31366666D01*
X68614060Y-31366666D01*
X69014586Y-31366666D01*
X69014586Y-30966666D01*
X69014586Y-30566666D01*
X68614060Y-30566666D01*
X68213535Y-30566666D01*
X68213535Y-30350000D01*
X68213535Y-30133333D01*
X68614060Y-30133333D01*
X69014586Y-30133333D01*
X69014586Y-29750000D01*
X69014586Y-29366666D01*
X68614060Y-29366666D01*
X68213535Y-29366666D01*
X68213535Y-29150000D01*
X68213535Y-28933333D01*
X68831012Y-28933333D01*
X69448489Y-28933333D01*
X69448489Y-30350000D01*
G37*
G36*
X67412483Y-31766666D02*
G01*
X66795006Y-31766666D01*
X66177529Y-31766666D01*
X66177529Y-31566666D01*
X66177529Y-31366666D01*
X65977266Y-31366666D01*
X65777004Y-31366666D01*
X65777004Y-30350000D01*
X65777004Y-29366666D01*
X66210906Y-29366666D01*
X66210906Y-30366666D01*
X66210906Y-31366666D01*
X66594743Y-31366666D01*
X66978581Y-31366666D01*
X66978581Y-30366666D01*
X66978581Y-29366666D01*
X66594743Y-29366666D01*
X66210906Y-29366666D01*
X65777004Y-29366666D01*
X65777004Y-29333333D01*
X65977266Y-29333333D01*
X66177529Y-29333333D01*
X66177529Y-29133333D01*
X66177529Y-28933333D01*
X66795006Y-28933333D01*
X67412483Y-28933333D01*
X67412483Y-30350000D01*
X67412483Y-30366666D01*
X67412483Y-31766666D01*
G37*
G36*
X50256636Y-40516666D02*
G01*
X50256636Y-42200000D01*
X50006307Y-42200000D01*
X49755979Y-42200000D01*
X49755979Y-41483333D01*
X49755979Y-40766666D01*
X49288699Y-40766666D01*
X48821419Y-40766666D01*
X48821419Y-40533333D01*
X48821419Y-40300000D01*
X48571090Y-40300000D01*
X48320762Y-40300000D01*
X48320762Y-39816666D01*
X48320762Y-39333333D01*
X48571090Y-39333333D01*
X48821419Y-39333333D01*
X48854796Y-39333333D01*
X48854796Y-39800000D01*
X48854796Y-40266666D01*
X49305387Y-40266666D01*
X49755979Y-40266666D01*
X49755979Y-39800000D01*
X49755979Y-39333333D01*
X49305387Y-39333333D01*
X48854796Y-39333333D01*
X48821419Y-39333333D01*
X48821419Y-39083333D01*
X48821419Y-38833333D01*
X49539027Y-38833333D01*
X50256636Y-38833333D01*
X50256636Y-39800000D01*
X50256636Y-40516666D01*
G37*
G36*
X48821419Y-46733333D02*
G01*
X48587779Y-46733333D01*
X48354139Y-46733333D01*
X48354139Y-46966666D01*
X48354139Y-47200000D01*
X47870171Y-47200000D01*
X47386202Y-47200000D01*
X47386202Y-46966666D01*
X47386202Y-46733333D01*
X47135874Y-46733333D01*
X46885545Y-46733333D01*
X46885545Y-45533333D01*
X46885545Y-44366666D01*
X47386202Y-44366666D01*
X47386202Y-45533333D01*
X47386202Y-46700000D01*
X47853482Y-46700000D01*
X48320762Y-46700000D01*
X48320762Y-45533333D01*
X48320762Y-44366666D01*
X47853482Y-44366666D01*
X47386202Y-44366666D01*
X46885545Y-44366666D01*
X46885545Y-44333333D01*
X47135874Y-44333333D01*
X47386202Y-44333333D01*
X47386202Y-44082418D01*
X47386202Y-43831502D01*
X47861826Y-43840751D01*
X48337450Y-43850000D01*
X48347257Y-44091666D01*
X48357063Y-44333333D01*
X48589241Y-44333333D01*
X48821419Y-44333333D01*
X48821419Y-45533333D01*
X48821419Y-46733333D01*
G37*
G36*
X56097634Y-31366666D02*
G01*
X55897372Y-31366666D01*
X55697109Y-31366666D01*
X55697109Y-31566666D01*
X55697109Y-31766666D01*
X55279895Y-31766666D01*
X54862680Y-31766666D01*
X54862680Y-31566666D01*
X54862680Y-31366666D01*
X54662418Y-31366666D01*
X54462155Y-31366666D01*
X54462155Y-30350000D01*
X54462155Y-29366666D01*
X54862680Y-29366666D01*
X54862680Y-30350000D01*
X54862680Y-31333333D01*
X55263206Y-31333333D01*
X55663732Y-31333333D01*
X55663732Y-30350000D01*
X55663732Y-29366666D01*
X55263206Y-29366666D01*
X54862680Y-29366666D01*
X54462155Y-29366666D01*
X54462155Y-29333333D01*
X54662418Y-29333333D01*
X54862680Y-29333333D01*
X54862680Y-29133333D01*
X54862680Y-28933333D01*
X55279895Y-28933333D01*
X55697109Y-28933333D01*
X55697109Y-29133333D01*
X55697109Y-29333333D01*
X55897372Y-29333333D01*
X56097634Y-29333333D01*
X56097634Y-30350000D01*
X56097634Y-31366666D01*
G37*
G36*
X57900000Y-44082822D02*
G01*
X57900000Y-44333333D01*
X57432720Y-44333333D01*
X56965440Y-44333333D01*
X56965440Y-44800000D01*
X56965440Y-45266666D01*
X57199080Y-45266666D01*
X57432720Y-45266666D01*
X57432720Y-45750000D01*
X57432720Y-46233333D01*
X57666360Y-46233333D01*
X57900000Y-46233333D01*
X57900000Y-46716666D01*
X57900000Y-47200000D01*
X56930601Y-47200000D01*
X55961201Y-47200000D01*
X55971008Y-46958333D01*
X55980814Y-46716666D01*
X56690079Y-46707670D01*
X57399343Y-46698674D01*
X57399343Y-46482670D01*
X57399343Y-46266666D01*
X57165703Y-46266666D01*
X56932063Y-46266666D01*
X56932063Y-45783333D01*
X56932063Y-45300000D01*
X56698423Y-45300000D01*
X56464783Y-45300000D01*
X56464783Y-44816666D01*
X56464783Y-44333333D01*
X56212992Y-44333333D01*
X55961201Y-44333333D01*
X55971008Y-44091666D01*
X55980814Y-43850000D01*
X56940407Y-43841155D01*
X57900000Y-43832310D01*
X57900000Y-44082822D01*
G37*
G36*
X45008390Y-40525000D02*
G01*
X45017043Y-42200000D01*
X44766406Y-42200000D01*
X44515768Y-42200000D01*
X44515768Y-41483333D01*
X44515768Y-40766666D01*
X44048489Y-40766666D01*
X43581209Y-40766666D01*
X43581209Y-41483333D01*
X43581209Y-42200000D01*
X43330880Y-42200000D01*
X43080552Y-42200000D01*
X43080552Y-41483333D01*
X43080552Y-40766666D01*
X43314192Y-40766666D01*
X43547831Y-40766666D01*
X43547831Y-40533333D01*
X43547831Y-40300000D01*
X43314192Y-40300000D01*
X43080552Y-40300000D01*
X43080552Y-39816666D01*
X43080552Y-39333333D01*
X43312729Y-39333333D01*
X43544907Y-39333333D01*
X43581209Y-39333333D01*
X43581209Y-39800000D01*
X43581209Y-40266666D01*
X44048489Y-40266666D01*
X44515768Y-40266666D01*
X44515768Y-39800000D01*
X44515768Y-39333333D01*
X44048489Y-39333333D01*
X43581209Y-39333333D01*
X43544907Y-39333333D01*
X43554714Y-39091666D01*
X43564520Y-38850000D01*
X44282128Y-38850000D01*
X44999737Y-38850000D01*
X45004645Y-39800000D01*
X45008390Y-40525000D01*
G37*
G36*
X71885019Y-30350000D02*
G01*
X71885019Y-31766666D01*
X71668068Y-31766666D01*
X71451117Y-31766666D01*
X71451117Y-31166666D01*
X71451117Y-30566666D01*
X71050591Y-30566666D01*
X70650065Y-30566666D01*
X70650065Y-31166666D01*
X70650065Y-31766666D01*
X70432361Y-31766666D01*
X70214657Y-31766666D01*
X70223754Y-31158333D01*
X70232851Y-30550000D01*
X70441458Y-30540076D01*
X70650065Y-30530152D01*
X70650065Y-30350000D01*
X70650065Y-30169847D01*
X70441458Y-30159923D01*
X70232851Y-30150000D01*
X70232851Y-29750000D01*
X70232851Y-29366666D01*
X70650065Y-29366666D01*
X70650065Y-29750000D01*
X70650065Y-30133333D01*
X71050591Y-30133333D01*
X71451117Y-30133333D01*
X71451117Y-29750000D01*
X71451117Y-29366666D01*
X71050591Y-29366666D01*
X70650065Y-29366666D01*
X70232851Y-29366666D01*
X70232851Y-29350000D01*
X70441458Y-29340076D01*
X70650065Y-29330152D01*
X70650065Y-29131742D01*
X70650065Y-28933333D01*
X71267542Y-28933333D01*
X71885019Y-28933333D01*
X71885019Y-29750000D01*
X71885019Y-30350000D01*
G37*
G36*
X49789356Y-35515206D02*
G01*
X49789356Y-37200000D01*
X49539027Y-37200000D01*
X49288699Y-37200000D01*
X49288699Y-36250000D01*
X49288699Y-35300000D01*
X49055059Y-35300000D01*
X48821419Y-35300000D01*
X48821419Y-35784793D01*
X48821419Y-36269587D01*
X48579435Y-36259793D01*
X48337450Y-36250000D01*
X48328190Y-35775000D01*
X48318929Y-35300000D01*
X48102894Y-35300000D01*
X47886859Y-35300000D01*
X47886859Y-36250000D01*
X47886859Y-37200000D01*
X47636531Y-37200000D01*
X47386202Y-37200000D01*
X47386202Y-35515206D01*
X47386202Y-33830412D01*
X47628186Y-33840206D01*
X47870171Y-33850000D01*
X47879977Y-34091666D01*
X47889784Y-34333333D01*
X48121961Y-34333333D01*
X48354139Y-34333333D01*
X48354139Y-34800000D01*
X48354139Y-35266666D01*
X48587779Y-35266666D01*
X48821419Y-35266666D01*
X48821419Y-34800000D01*
X48821419Y-34333333D01*
X49053597Y-34333333D01*
X49285774Y-34333333D01*
X49295581Y-34091666D01*
X49305387Y-33850000D01*
X49547372Y-33840206D01*
X49789356Y-33830412D01*
X49789356Y-35515206D01*
G37*
G36*
X73887648Y-29133333D02*
G01*
X73887648Y-29333333D01*
X74087910Y-29333333D01*
X74288173Y-29333333D01*
X74288173Y-30350000D01*
X74288173Y-31366666D01*
X74087910Y-31366666D01*
X73887648Y-31366666D01*
X73887648Y-31566666D01*
X73887648Y-31766666D01*
X73470433Y-31766666D01*
X73053219Y-31766666D01*
X73053219Y-31566666D01*
X73053219Y-31366666D01*
X72851364Y-31366666D01*
X72649508Y-31366666D01*
X72659445Y-31158333D01*
X72669382Y-30950000D01*
X72877989Y-30940076D01*
X73086596Y-30930152D01*
X73086596Y-31149467D01*
X73086596Y-31368782D01*
X73478778Y-31359391D01*
X73870959Y-31350000D01*
X73879800Y-30358333D01*
X73888641Y-29366666D01*
X73487619Y-29366666D01*
X73086596Y-29366666D01*
X73086596Y-29566666D01*
X73086596Y-29766666D01*
X72869645Y-29766666D01*
X72652694Y-29766666D01*
X72652694Y-29550000D01*
X72652694Y-29333333D01*
X72852956Y-29333333D01*
X73053219Y-29333333D01*
X73053219Y-29133333D01*
X73053219Y-28933333D01*
X73470433Y-28933333D01*
X73887648Y-28933333D01*
X73887648Y-29133333D01*
G37*
G36*
X55029566Y-35533333D02*
G01*
X55029566Y-36733333D01*
X54795926Y-36733333D01*
X54562286Y-36733333D01*
X54562286Y-36966666D01*
X54562286Y-37200000D01*
X53826527Y-37200000D01*
X53090768Y-37200000D01*
X53100574Y-36958333D01*
X53110381Y-36716666D01*
X53352365Y-36706873D01*
X53594349Y-36697079D01*
X53594349Y-36483333D01*
X53594349Y-36269587D01*
X53352365Y-36259793D01*
X53110381Y-36250000D01*
X53101525Y-35291666D01*
X53092668Y-34333333D01*
X53343509Y-34333333D01*
X53594349Y-34333333D01*
X53627726Y-34333333D01*
X53627726Y-35283333D01*
X53627726Y-36233333D01*
X53861366Y-36233333D01*
X54095006Y-36233333D01*
X54095006Y-36466666D01*
X54095006Y-36700000D01*
X54311958Y-36700000D01*
X54528909Y-36700000D01*
X54528909Y-35516666D01*
X54528909Y-34333333D01*
X54078318Y-34333333D01*
X53627726Y-34333333D01*
X53594349Y-34333333D01*
X53594349Y-34082418D01*
X53594349Y-33831502D01*
X54069973Y-33840751D01*
X54545598Y-33850000D01*
X54555404Y-34091666D01*
X54565211Y-34333333D01*
X54797388Y-34333333D01*
X55029566Y-34333333D01*
X55029566Y-35516666D01*
X55029566Y-35533333D01*
G37*
G36*
X57900000Y-40516666D02*
G01*
X57900000Y-41233333D01*
X57900000Y-42200000D01*
X57182391Y-42200000D01*
X56464783Y-42200000D01*
X56464783Y-41966666D01*
X56464783Y-41733333D01*
X56214454Y-41733333D01*
X55964126Y-41733333D01*
X55964126Y-41250000D01*
X55964126Y-40766666D01*
X56214454Y-40766666D01*
X56464783Y-40766666D01*
X56498160Y-40766666D01*
X56498160Y-41233333D01*
X56498160Y-41700000D01*
X56948751Y-41700000D01*
X57399343Y-41700000D01*
X57399343Y-41233333D01*
X57399343Y-40766666D01*
X56948751Y-40766666D01*
X56498160Y-40766666D01*
X56464783Y-40766666D01*
X56464783Y-40533333D01*
X56464783Y-40300000D01*
X56214454Y-40300000D01*
X55964126Y-40300000D01*
X55964126Y-39816666D01*
X55964126Y-39333333D01*
X56214454Y-39333333D01*
X56464783Y-39333333D01*
X56498160Y-39333333D01*
X56498160Y-39800000D01*
X56498160Y-40266666D01*
X56948751Y-40266666D01*
X57399343Y-40266666D01*
X57399343Y-39800000D01*
X57399343Y-39333333D01*
X56948751Y-39333333D01*
X56498160Y-39333333D01*
X56464783Y-39333333D01*
X56464783Y-39083333D01*
X56464783Y-38833333D01*
X57182391Y-38833333D01*
X57900000Y-38833333D01*
X57900000Y-39800000D01*
X57900000Y-40516666D01*
G37*
G36*
X51224573Y-45750000D02*
G01*
X51224573Y-46700000D01*
X51458213Y-46700000D01*
X51691853Y-46700000D01*
X51691853Y-46950000D01*
X51691853Y-47200000D01*
X51441524Y-47200000D01*
X51191195Y-47200000D01*
X51191195Y-46966666D01*
X51191195Y-46733333D01*
X50957556Y-46733333D01*
X50723916Y-46733333D01*
X50723916Y-46500000D01*
X50723916Y-46266666D01*
X50490276Y-46266666D01*
X50256636Y-46266666D01*
X50256636Y-46500000D01*
X50256636Y-46733333D01*
X50022996Y-46733333D01*
X49789356Y-46733333D01*
X49789356Y-46966666D01*
X49789356Y-47200000D01*
X49539027Y-47200000D01*
X49288699Y-47200000D01*
X49288699Y-46950000D01*
X49288699Y-46700000D01*
X49521819Y-46700000D01*
X49754939Y-46700000D01*
X49763803Y-45758333D01*
X49772510Y-44833333D01*
X50256636Y-44833333D01*
X50256636Y-45300000D01*
X50256636Y-45766666D01*
X50490276Y-45766666D01*
X50723916Y-45766666D01*
X50723916Y-45300000D01*
X50723916Y-44833333D01*
X50490276Y-44833333D01*
X50256636Y-44833333D01*
X49772510Y-44833333D01*
X49772667Y-44816666D01*
X50014651Y-44806873D01*
X50256636Y-44797079D01*
X50256636Y-44313746D01*
X50256636Y-43830412D01*
X50498620Y-43840206D01*
X50740604Y-43850000D01*
X50749865Y-44325000D01*
X50759126Y-44800000D01*
X50991849Y-44800000D01*
X51224573Y-44800000D01*
X51224573Y-45300000D01*
X51224573Y-45750000D01*
G37*
G36*
X61337845Y-29133333D02*
G01*
X61337845Y-29333333D01*
X61555823Y-29333333D01*
X61773802Y-29333333D01*
X61764430Y-29741666D01*
X61755059Y-30150000D01*
X61546452Y-30159923D01*
X61337845Y-30169847D01*
X61337845Y-30368257D01*
X61337845Y-30566666D01*
X60937319Y-30566666D01*
X60536793Y-30566666D01*
X60536793Y-30966666D01*
X60536793Y-31366666D01*
X60937319Y-31366666D01*
X61337845Y-31366666D01*
X61337845Y-31148409D01*
X61337845Y-30930152D01*
X61546452Y-30940076D01*
X61755059Y-30950000D01*
X61764996Y-31158333D01*
X61774933Y-31366666D01*
X61556389Y-31366666D01*
X61337845Y-31366666D01*
X61337845Y-31566666D01*
X61337845Y-31766666D01*
X60937319Y-31766666D01*
X60536793Y-31766666D01*
X60536793Y-31566666D01*
X60536793Y-31366666D01*
X60318815Y-31366666D01*
X60100836Y-31366666D01*
X60110208Y-30958333D01*
X60119579Y-30550000D01*
X60328186Y-30540076D01*
X60536793Y-30530152D01*
X60536793Y-30331742D01*
X60536793Y-30133333D01*
X60937319Y-30133333D01*
X61337845Y-30133333D01*
X61337845Y-29750000D01*
X61337845Y-29366666D01*
X60937319Y-29366666D01*
X60536793Y-29366666D01*
X60536793Y-29568257D01*
X60536793Y-29769847D01*
X60328186Y-29759923D01*
X60119579Y-29750000D01*
X60119579Y-29550000D01*
X60119579Y-29350000D01*
X60328186Y-29340076D01*
X60536793Y-29330152D01*
X60536793Y-29131742D01*
X60536793Y-28933333D01*
X60937319Y-28933333D01*
X61337845Y-28933333D01*
X61337845Y-29133333D01*
G37*
%TD*%
D12*
%TO.C,J4*%
X76252160Y-57578894D03*
D13*
X76252160Y-60118894D03*
X73712160Y-57578894D03*
X73712160Y-60118894D03*
X71172160Y-57578894D03*
X71172160Y-60118894D03*
X68632160Y-57578894D03*
X68632160Y-60118894D03*
X66092160Y-57578894D03*
X66092160Y-60118894D03*
X63552160Y-57578894D03*
X63552160Y-60118894D03*
X61012160Y-57578894D03*
X61012160Y-60118894D03*
X58472160Y-57578894D03*
X58472160Y-60118894D03*
X55932160Y-57578894D03*
X55932160Y-60118894D03*
X53392160Y-57578894D03*
X53392160Y-60118894D03*
X50852160Y-57578894D03*
X50852160Y-60118894D03*
X48312160Y-57578894D03*
X48312160Y-60118894D03*
X45772160Y-57578894D03*
X45772160Y-60118894D03*
X43232160Y-57578894D03*
X43232160Y-60118894D03*
X40692160Y-57578894D03*
X40692160Y-60118894D03*
X38152160Y-57578894D03*
X38152160Y-60118894D03*
X35612160Y-57578894D03*
X35612160Y-60118894D03*
X33072160Y-57578894D03*
X33072160Y-60118894D03*
X30532160Y-57578894D03*
X30532160Y-60118894D03*
X27992160Y-57578894D03*
X27992160Y-60118894D03*
%TD*%
D14*
%TO.C,H9*%
X80385000Y-46368399D03*
%TD*%
D15*
%TO.C,H2*%
X-3841057Y-59687059D03*
%TD*%
D16*
%TO.C,H8*%
X12600000Y-120500000D03*
%TD*%
D14*
%TO.C,H6*%
X22385000Y-46368399D03*
%TD*%
D15*
%TO.C,H1*%
X87357421Y-9686584D03*
%TD*%
D14*
%TO.C,H5*%
X22385000Y-23368399D03*
%TD*%
D15*
%TO.C,H3*%
X87352711Y-59692007D03*
%TD*%
%TO.C,H4*%
X-3951523Y-9688820D03*
%TD*%
D12*
%TO.C,J2*%
X12540000Y-12800000D03*
D13*
X12540000Y-10260000D03*
X15080000Y-12800000D03*
X15080000Y-10260000D03*
X17619999Y-12800000D03*
X17620000Y-10260000D03*
X20160000Y-12800000D03*
X20160000Y-10260000D03*
X22700000Y-12800000D03*
X22700000Y-10260000D03*
X25240000Y-12800000D03*
X25240000Y-10260000D03*
X27780000Y-12800000D03*
X27780000Y-10260000D03*
X30320001Y-12800000D03*
X30320000Y-10260000D03*
X32860000Y-12800000D03*
X32860000Y-10260000D03*
X35400000Y-12800000D03*
X35400000Y-10260000D03*
X37940000Y-12800000D03*
X37940000Y-10260000D03*
X40479999Y-12800000D03*
X40480000Y-10260000D03*
X43020000Y-12800000D03*
X43020000Y-10260000D03*
X45560000Y-12800000D03*
X45560000Y-10260000D03*
X48100000Y-12800000D03*
X48100000Y-10260000D03*
X50639999Y-12800000D03*
X50640000Y-10260000D03*
X53180001Y-12800000D03*
X53180000Y-10260000D03*
X55720000Y-12800000D03*
X55720000Y-10260000D03*
X58260000Y-12800000D03*
X58260000Y-10260000D03*
X60800000Y-12800000D03*
X60800000Y-10260000D03*
%TD*%
D16*
%TO.C,H10*%
X70600000Y-120500000D03*
%TD*%
D14*
%TO.C,H7*%
X80385000Y-23368399D03*
%TD*%
D17*
%TO.C,R1*%
X13750000Y-47790000D03*
X12100000Y-47790000D03*
%TD*%
D18*
%TO.C,R54*%
X60250000Y-71300001D03*
X60250000Y-69650001D03*
%TD*%
D19*
%TO.C,R32*%
X48350000Y-100425000D03*
X48350000Y-102075000D03*
%TD*%
D20*
%TO.C,Q8*%
X56750000Y-73025000D03*
X58650000Y-73025000D03*
X57700000Y-74900000D03*
%TD*%
D21*
%TO.C,U14*%
X58250000Y-82137500D03*
X57300000Y-82137500D03*
X56350000Y-82137500D03*
X56350000Y-79862500D03*
X58250000Y-79862500D03*
%TD*%
D22*
%TO.C,Q4*%
X41737500Y-104925001D03*
X39837500Y-104925001D03*
X40787500Y-103050001D03*
%TD*%
D23*
%TO.C,U1*%
X21757500Y-113125000D03*
D24*
X24620000Y-110850000D03*
X24620000Y-111500000D03*
X24620000Y-112150000D03*
X24620000Y-112800000D03*
X24620000Y-113450000D03*
X24620000Y-114100000D03*
X24620000Y-114750000D03*
X24620000Y-115400000D03*
X18895000Y-115400000D03*
X18895000Y-114750000D03*
X18895000Y-114100000D03*
X18895000Y-113450000D03*
X18895000Y-112800000D03*
X18895000Y-112150000D03*
X18895000Y-111500000D03*
X18895000Y-110850000D03*
%TD*%
D18*
%TO.C,R37*%
X69150000Y-71275000D03*
X69150000Y-69625000D03*
%TD*%
%TO.C,R36*%
X67250000Y-71275000D03*
X67250000Y-69625000D03*
%TD*%
D19*
%TO.C,R35*%
X48350000Y-103575000D03*
X48350000Y-105225000D03*
%TD*%
D25*
%TO.C,U12*%
X51387500Y-104880000D03*
X51387500Y-103610000D03*
X51387500Y-102340000D03*
X51387500Y-101070000D03*
X58612500Y-101070000D03*
X58612500Y-102340000D03*
X58612500Y-103610000D03*
X58612500Y-104880000D03*
%TD*%
D18*
%TO.C,R33*%
X70800000Y-71300000D03*
X70800000Y-69650000D03*
%TD*%
D26*
%TO.C,C19*%
X22200000Y-99700000D03*
X22200000Y-98150000D03*
%TD*%
D27*
%TO.C,TP8*%
X36200000Y-47500000D03*
%TD*%
D28*
%TO.C,C3*%
X17025000Y-110650000D03*
X14075000Y-110650000D03*
%TD*%
D27*
%TO.C,TP5*%
X30100000Y-43600000D03*
%TD*%
D17*
%TO.C,R13*%
X27965000Y-115340000D03*
X26315000Y-115340000D03*
%TD*%
D29*
%TO.C,SW1*%
X86900000Y-77610000D03*
D30*
X89500000Y-78200000D03*
X89500000Y-73700000D03*
D29*
X86900000Y-74300000D03*
%TD*%
D18*
%TO.C,R58*%
X58650000Y-71300000D03*
X58650000Y-69650000D03*
%TD*%
D31*
%TO.C,C35*%
X56475000Y-77950000D03*
X58025000Y-77950000D03*
%TD*%
D32*
%TO.C,L1*%
X31982500Y-108095000D03*
X26532500Y-108095000D03*
%TD*%
D17*
%TO.C,R14*%
X17200000Y-113990000D03*
X15550000Y-113990000D03*
%TD*%
D33*
%TO.C,TP1*%
X8300000Y-32200000D03*
%TD*%
D34*
%TO.C,U7*%
X24000000Y-100312500D03*
X24950000Y-100312500D03*
X25900000Y-100312500D03*
X25900000Y-102587500D03*
X24000000Y-102587500D03*
%TD*%
D26*
%TO.C,C2*%
X26387500Y-113900000D03*
X26387500Y-112350000D03*
%TD*%
D35*
%TO.C,TP6*%
X43600000Y-47900000D03*
%TD*%
D18*
%TO.C,R50*%
X63750000Y-71300000D03*
X63750000Y-69650000D03*
%TD*%
D36*
%TO.C,C30*%
X65400000Y-100215000D03*
X65400000Y-101765000D03*
%TD*%
D22*
%TO.C,Q11*%
X45262500Y-104925001D03*
X43362500Y-104925001D03*
X44312500Y-103050001D03*
%TD*%
D37*
%TO.C,JP1*%
X5645000Y-52147500D03*
D38*
X6945000Y-52147500D03*
%TD*%
D19*
%TO.C,R60*%
X69860000Y-103820000D03*
X69860000Y-105470000D03*
%TD*%
D39*
%TO.C,R16*%
X26315000Y-116800000D03*
X27965000Y-116800000D03*
%TD*%
D36*
%TO.C,C31*%
X62300000Y-100220000D03*
X62300000Y-101770000D03*
%TD*%
D26*
%TO.C,C1*%
X27847500Y-113900000D03*
X27847500Y-112350000D03*
%TD*%
D39*
%TO.C,R28*%
X70715000Y-95510000D03*
X72365000Y-95510000D03*
%TD*%
D36*
%TO.C,C27*%
X66930000Y-98215000D03*
X66930000Y-99765000D03*
%TD*%
D22*
%TO.C,Q9*%
X55610000Y-87157500D03*
X53710000Y-87157500D03*
X54660000Y-85282500D03*
%TD*%
D39*
%TO.C,R12*%
X48063911Y-115816000D03*
X49713911Y-115816000D03*
%TD*%
D18*
%TO.C,R31*%
X57210000Y-86595000D03*
X57210000Y-84945000D03*
%TD*%
%TO.C,R51*%
X65650000Y-71300000D03*
X65650000Y-69650000D03*
%TD*%
D20*
%TO.C,Q6*%
X63750000Y-73000000D03*
X65650000Y-73000000D03*
X64700000Y-74875000D03*
%TD*%
D36*
%TO.C,C28*%
X63850000Y-100215000D03*
X63850000Y-101765000D03*
%TD*%
D20*
%TO.C,Q7*%
X60250000Y-73000000D03*
X62150000Y-73000000D03*
X61200000Y-74875000D03*
%TD*%
D18*
%TO.C,R4*%
X4560000Y-16050000D03*
X4560000Y-14400000D03*
%TD*%
D20*
%TO.C,Q10*%
X70750000Y-73025000D03*
X72650000Y-73025000D03*
X71700000Y-74900000D03*
%TD*%
D39*
%TO.C,R17*%
X54643911Y-115826000D03*
X56293911Y-115826000D03*
%TD*%
D21*
%TO.C,U2*%
X56198911Y-119743500D03*
X55248911Y-119743500D03*
X54298911Y-119743500D03*
X54298911Y-117468500D03*
X56198911Y-117468500D03*
%TD*%
D40*
%TO.C,J9*%
X14915001Y-67110001D03*
X16765000Y-67110000D03*
X14915001Y-57089999D03*
X16765001Y-57090001D03*
%TD*%
D18*
%TO.C,R52*%
X83390000Y-71585000D03*
X83390000Y-69935000D03*
%TD*%
D41*
%TO.C,D1*%
X1630000Y-12840000D03*
X3330000Y-12840000D03*
X3330000Y-11740000D03*
X1630000Y-11740000D03*
%TD*%
D12*
%TO.C,J1*%
X-4792463Y-46583919D03*
D13*
X-4792463Y-44043919D03*
X-4792463Y-41503919D03*
X-4792463Y-38963919D03*
X-4792463Y-36423919D03*
X-4792463Y-33883919D03*
X-4792463Y-31343919D03*
X-4792463Y-28803919D03*
X-4792463Y-26263919D03*
X-4792463Y-23723919D03*
%TD*%
D20*
%TO.C,Q5*%
X67250000Y-73000000D03*
X69150000Y-73000000D03*
X68200000Y-74875000D03*
%TD*%
D31*
%TO.C,C34*%
X63180000Y-88300000D03*
X64730000Y-88300000D03*
%TD*%
D17*
%TO.C,R8*%
X41612500Y-100950000D03*
X39962500Y-100950000D03*
%TD*%
D39*
%TO.C,R2*%
X12100000Y-50710000D03*
X13750000Y-50710000D03*
%TD*%
D31*
%TO.C,C26*%
X67755000Y-93520000D03*
X69305000Y-93520000D03*
%TD*%
D29*
%TO.C,SW3*%
X86900000Y-70300000D03*
D30*
X89500000Y-70890000D03*
X89500000Y-66390000D03*
D29*
X86900000Y-66990000D03*
%TD*%
D21*
%TO.C,U13*%
X62050000Y-82137500D03*
X61100000Y-82137500D03*
X60150000Y-82137500D03*
X60150000Y-79862500D03*
X62050000Y-79862500D03*
%TD*%
D42*
%TO.C,Y2*%
X61650000Y-86550000D03*
X59450000Y-86550000D03*
X59450000Y-84850000D03*
X61650000Y-84850000D03*
%TD*%
D43*
%TO.C,C5*%
X18762500Y-105412500D03*
X21837500Y-105412500D03*
%TD*%
D44*
%TO.C,C24*%
X55660000Y-93570000D03*
X54110000Y-93570000D03*
%TD*%
D12*
%TO.C,J5*%
X75530000Y-24620000D03*
D13*
X75530000Y-22080000D03*
X72990000Y-24620000D03*
X72990000Y-22080000D03*
X70450000Y-24620000D03*
X70450000Y-22080000D03*
X67910000Y-24620000D03*
X67910000Y-22080000D03*
X65370000Y-24620000D03*
X65370000Y-22080000D03*
X62830000Y-24620000D03*
X62830000Y-22080000D03*
X60290000Y-24620000D03*
X60290000Y-22080000D03*
X57750000Y-24620000D03*
X57750000Y-22080000D03*
X55210000Y-24620000D03*
X55210000Y-22080000D03*
X52670000Y-24620000D03*
X52670000Y-22080000D03*
X50130000Y-24620000D03*
X50130000Y-22080000D03*
X47590000Y-24620000D03*
X47590000Y-22080000D03*
X45050000Y-24620000D03*
X45050000Y-22080000D03*
X42510000Y-24620000D03*
X42510000Y-22080000D03*
X39970000Y-24620000D03*
X39970000Y-22080000D03*
X37430000Y-24620000D03*
X37430000Y-22080000D03*
X34890000Y-24620000D03*
X34890000Y-22080000D03*
X32350000Y-24620000D03*
X32350000Y-22080000D03*
X29810000Y-24620000D03*
X29810000Y-22080000D03*
X27270000Y-24620000D03*
X27270000Y-22080000D03*
%TD*%
D18*
%TO.C,R30*%
X74990000Y-94120000D03*
X74990000Y-92470000D03*
%TD*%
D17*
%TO.C,R29*%
X72350000Y-97210000D03*
X70700000Y-97210000D03*
%TD*%
D45*
%TO.C,J8*%
X61150000Y-122130000D03*
X63150000Y-122130000D03*
D46*
X58800000Y-116380000D03*
X65500000Y-116380000D03*
%TD*%
D17*
%TO.C,R9*%
X46255000Y-113360000D03*
X44605000Y-113360000D03*
%TD*%
D26*
%TO.C,C25*%
X61630000Y-89860000D03*
X61630000Y-88310000D03*
%TD*%
D17*
%TO.C,R19*%
X45137500Y-100950000D03*
X43487500Y-100950000D03*
%TD*%
D33*
%TO.C,TP2*%
X8300000Y-26900000D03*
%TD*%
D18*
%TO.C,R53*%
X81750000Y-71585000D03*
X81750000Y-69935000D03*
%TD*%
D35*
%TO.C,TP7*%
X41465683Y-47900000D03*
%TD*%
D47*
%TO.C,J7*%
X44480000Y-117760000D03*
X38700000Y-117760000D03*
D48*
X44840000Y-116315000D03*
X44040000Y-116315000D03*
D49*
X42840000Y-116315000D03*
X41840000Y-116315000D03*
X41340000Y-116315000D03*
X40340000Y-116315000D03*
D48*
X39140000Y-116315000D03*
X38340000Y-116315000D03*
X38340000Y-116315000D03*
X39140000Y-116315000D03*
D49*
X39840000Y-116315000D03*
X40840000Y-116315000D03*
X42340000Y-116315000D03*
X43340000Y-116315000D03*
D48*
X44040000Y-116315000D03*
X44840000Y-116315000D03*
D50*
X45910000Y-121410000D03*
D51*
X45910000Y-117230000D03*
D50*
X37270000Y-121410000D03*
D51*
X37270000Y-117230000D03*
%TD*%
D22*
%TO.C,Q2*%
X10695000Y-49912500D03*
X8795000Y-49912500D03*
X9745000Y-48037500D03*
%TD*%
D17*
%TO.C,R3*%
X13750000Y-49250000D03*
X12100000Y-49250000D03*
%TD*%
D39*
%TO.C,R56*%
X63130000Y-89860000D03*
X64780000Y-89860000D03*
%TD*%
D31*
%TO.C,C32*%
X60325000Y-77950000D03*
X61875000Y-77950000D03*
%TD*%
D22*
%TO.C,Q1*%
X7295000Y-49912500D03*
X5395000Y-49912500D03*
X6345000Y-48037500D03*
%TD*%
D26*
%TO.C,C29*%
X66360000Y-86605000D03*
X66360000Y-85055000D03*
%TD*%
D39*
%TO.C,R18*%
X18515000Y-116610000D03*
X20165000Y-116610000D03*
%TD*%
D33*
%TO.C,TP4*%
X8300000Y-24200000D03*
%TD*%
D18*
%TO.C,R55*%
X62150000Y-71300001D03*
X62150000Y-69650001D03*
%TD*%
D52*
%TO.C,Q3*%
X52566411Y-117306000D03*
X52566411Y-119206000D03*
X50691411Y-118256000D03*
%TD*%
D53*
%TO.C,D2*%
X48558911Y-120546000D03*
X48558911Y-117246000D03*
%TD*%
D43*
%TO.C,C4*%
X18765000Y-108722500D03*
X21840000Y-108722500D03*
%TD*%
D33*
%TO.C,TP3*%
X8307579Y-29587014D03*
%TD*%
D17*
%TO.C,R15*%
X17195000Y-115450000D03*
X15545000Y-115450000D03*
%TD*%
D12*
%TO.C,J3*%
X87731557Y-46273399D03*
D13*
X87731557Y-43733399D03*
X87731557Y-41193399D03*
X87731557Y-38653399D03*
X87731557Y-36113399D03*
X87731557Y-33573399D03*
X87731557Y-31033399D03*
X87731557Y-28493399D03*
X87731557Y-25953399D03*
X87731557Y-23413399D03*
%TD*%
D18*
%TO.C,R57*%
X56750000Y-71300000D03*
X56750000Y-69650000D03*
%TD*%
%TO.C,R5*%
X3100000Y-16050000D03*
X3100000Y-14400000D03*
%TD*%
D39*
%TO.C,R7*%
X53885000Y-89157500D03*
X55535000Y-89157500D03*
%TD*%
D18*
%TO.C,R6*%
X1640000Y-16050000D03*
X1640000Y-14400000D03*
%TD*%
%TO.C,R59*%
X68200000Y-105470000D03*
X68200000Y-103820000D03*
%TD*%
D54*
%TO.C,D4*%
X20200000Y-99750000D03*
X20200000Y-101850000D03*
%TD*%
D44*
%TO.C,C33*%
X60075000Y-88300000D03*
X58525000Y-88300000D03*
%TD*%
%TO.C,C23*%
X56740000Y-97920000D03*
X55190000Y-97920000D03*
%TD*%
D55*
%TO.C,SW2*%
X27870000Y-122410000D03*
X27870000Y-120200000D03*
D56*
X25720000Y-121310000D03*
X22720000Y-121310000D03*
D55*
X20570000Y-122410000D03*
X20570000Y-120200000D03*
D57*
X26470000Y-119550000D03*
X23470000Y-119550000D03*
X21970000Y-119550000D03*
%TD*%
D18*
%TO.C,R34*%
X72650000Y-71300000D03*
X72650000Y-69650000D03*
%TD*%
D58*
%TO.C,U8*%
X58362500Y-97612500D03*
X58362500Y-97212500D03*
X58362500Y-96812500D03*
X58362500Y-96412500D03*
X58362500Y-96012500D03*
X58362500Y-95612500D03*
X58362500Y-95212500D03*
X58362500Y-94812500D03*
X58362500Y-94412500D03*
X58362500Y-94012500D03*
X58362500Y-93612500D03*
X58362500Y-93212500D03*
X58362500Y-92812500D03*
X58362500Y-92412500D03*
D59*
X59200000Y-91575000D03*
X59600000Y-91575000D03*
X60000000Y-91575000D03*
X60400000Y-91575000D03*
X60800000Y-91575000D03*
X61200000Y-91575000D03*
X61600000Y-91575000D03*
X62000000Y-91575000D03*
X62400000Y-91575000D03*
X62800000Y-91575000D03*
X63200000Y-91575000D03*
X63600000Y-91575000D03*
X64000000Y-91575000D03*
X64400000Y-91575000D03*
D58*
X65237500Y-92412500D03*
X65237500Y-92812500D03*
X65237500Y-93212500D03*
X65237500Y-93612500D03*
X65237500Y-94012500D03*
X65237500Y-94412500D03*
X65237500Y-94812500D03*
X65237500Y-95212500D03*
X65237500Y-95612500D03*
X65237500Y-96012500D03*
X65237500Y-96412500D03*
X65237500Y-96812500D03*
X65237500Y-97212500D03*
X65237500Y-97612500D03*
D59*
X64400000Y-98450000D03*
X64000000Y-98450000D03*
X63600000Y-98450000D03*
X63200000Y-98450000D03*
X62800000Y-98450000D03*
X62400000Y-98450000D03*
X62000000Y-98450000D03*
X61600000Y-98450000D03*
X61200000Y-98450000D03*
X60800000Y-98450000D03*
X60400000Y-98450000D03*
X60000000Y-98450000D03*
X59600000Y-98450000D03*
X59200000Y-98450000D03*
D60*
X61800000Y-95012500D03*
%TD*%
D39*
%TO.C,R11*%
X36925000Y-113360000D03*
X38575000Y-113360000D03*
%TD*%
D17*
%TO.C,R10*%
X17200000Y-112530000D03*
X15550000Y-112530000D03*
%TD*%
D61*
%TO.C,J6*%
X35990000Y-86250000D03*
X35990000Y-90150000D03*
X37260000Y-86250000D03*
X37260000Y-90150000D03*
X38530000Y-86250000D03*
X38530000Y-90150000D03*
X39800000Y-86250000D03*
X39800000Y-90150000D03*
X41070000Y-86250000D03*
X41070000Y-90150000D03*
X42340000Y-86250000D03*
X42340000Y-90150000D03*
%TD*%
D36*
%TO.C,C20*%
X22200000Y-101250000D03*
X22200000Y-102800000D03*
%TD*%
M02*
