%TF.GenerationSoftware,KiCad,Pcbnew,8.0.4*%
%TF.CreationDate,2024-10-18T18:06:38+03:00*%
%TF.ProjectId,beepy,62656570-792e-46b6-9963-61645f706362,rev?*%
%TF.SameCoordinates,Original*%
%TF.FileFunction,Other,Comment*%
%FSLAX46Y46*%
G04 Gerber Fmt 4.6, Leading zero omitted, Abs format (unit mm)*
G04 Created by KiCad (PCBNEW 8.0.4) date 2024-10-18 18:06:38*
%MOMM*%
%LPD*%
G01*
G04 APERTURE LIST*
%ADD10C,0.150000*%
G04 APERTURE END LIST*
D10*
%TO.C,H9*%
X82885000Y-46368399D02*
G75*
G02*
X77885000Y-46368399I-2500000J0D01*
G01*
X77885000Y-46368399D02*
G75*
G02*
X82885000Y-46368399I2500000J0D01*
G01*
%TO.C,H2*%
X-1641057Y-59687059D02*
G75*
G02*
X-6041057Y-59687059I-2200000J0D01*
G01*
X-6041057Y-59687059D02*
G75*
G02*
X-1641057Y-59687059I2200000J0D01*
G01*
%TO.C,H8*%
X15300000Y-120500000D02*
G75*
G02*
X9900000Y-120500000I-2700000J0D01*
G01*
X9900000Y-120500000D02*
G75*
G02*
X15300000Y-120500000I2700000J0D01*
G01*
%TO.C,H6*%
X24885000Y-46368399D02*
G75*
G02*
X19885000Y-46368399I-2500000J0D01*
G01*
X19885000Y-46368399D02*
G75*
G02*
X24885000Y-46368399I2500000J0D01*
G01*
%TO.C,H1*%
X89557421Y-9686584D02*
G75*
G02*
X85157421Y-9686584I-2200000J0D01*
G01*
X85157421Y-9686584D02*
G75*
G02*
X89557421Y-9686584I2200000J0D01*
G01*
%TO.C,H5*%
X24885000Y-23368399D02*
G75*
G02*
X19885000Y-23368399I-2500000J0D01*
G01*
X19885000Y-23368399D02*
G75*
G02*
X24885000Y-23368399I2500000J0D01*
G01*
%TO.C,H3*%
X89552711Y-59692007D02*
G75*
G02*
X85152711Y-59692007I-2200000J0D01*
G01*
X85152711Y-59692007D02*
G75*
G02*
X89552711Y-59692007I2200000J0D01*
G01*
%TO.C,H4*%
X-1751523Y-9688820D02*
G75*
G02*
X-6151523Y-9688820I-2200000J0D01*
G01*
X-6151523Y-9688820D02*
G75*
G02*
X-1751523Y-9688820I2200000J0D01*
G01*
%TO.C,H10*%
X73300000Y-120500000D02*
G75*
G02*
X67900000Y-120500000I-2700000J0D01*
G01*
X67900000Y-120500000D02*
G75*
G02*
X73300000Y-120500000I2700000J0D01*
G01*
%TO.C,H7*%
X82885000Y-23368399D02*
G75*
G02*
X77885000Y-23368399I-2500000J0D01*
G01*
X77885000Y-23368399D02*
G75*
G02*
X82885000Y-23368399I2500000J0D01*
G01*
%TD*%
M02*
