M48
; DRILL file {KiCad 8.0.4} date 2024-10-18T18:06:38+0300
; FORMAT={-:-/ absolute / inch / decimal}
; #@! TF.CreationDate,2024-10-18T18:06:38+03:00
; #@! TF.GenerationSoftware,Kicad,Pcbnew,8.0.4
; #@! TF.FileFunction,Plated,1,4,PTH
FMAT,2
INCH
; #@! TA.AperFunction,Plated,PTH,ViaDrill
T1C0.0118
; #@! TA.AperFunction,Plated,PTH,ComponentDrill
T2C0.0118
; #@! TA.AperFunction,Plated,PTH,ViaDrill
T3C0.0157
; #@! TA.AperFunction,Plated,PTH,ComponentDrill
T4C0.0236
; #@! TA.AperFunction,Plated,PTH,ComponentDrill
T5C0.0276
; #@! TA.AperFunction,Plated,PTH,ComponentDrill
T6C0.0394
%
G90
G05
T1
X0.0646Y-0.6004
X0.0945Y-0.5033
X0.0984Y-0.464
X0.122Y-0.6004
X0.1417Y-0.5388
X0.1575Y-0.437
X0.1772Y-0.523
X0.1799Y-0.6015
X0.2224Y-2.122
X0.3445Y-2.0531
X0.3463Y-2.0246
X0.3583Y-0.5984
X0.3583Y-0.7205
X0.3661Y-2.0529
X0.5591Y-2.3917
X0.5591Y-2.4213
X0.5591Y-2.4528
X0.5756Y-4.5453
X0.5787Y-1.939
X0.5787Y-2.6181
X0.5823Y-1.8339
X0.5866Y-2.2697
X0.5866Y-2.6634
X0.5886Y-2.6909
X0.5965Y-1.778
X0.6094Y-2.4067
X0.6114Y-2.437
X0.6122Y-2.122
X0.6461Y-4.5453
X0.6594Y-2.6614
X0.6949Y-2.5866
X0.6961Y-2.3571
X0.6988Y-2.2461
X0.6988Y-2.2953
X0.7008Y-2.5354
X0.7244Y-2.9201
X0.7272Y-2.5598
X0.7795Y-2.0827
X0.7795Y-2.2047
X0.8106Y-3.9831
X0.8228Y-3.6457
X0.9823Y-3.8185
X0.9961Y-2.3346
X1.0827Y-1.4331
X1.1535Y-1.3346
X1.2047Y-1.4803
X1.2717Y-1.5394
X1.3268Y-0.7638
X1.3504Y-3.4748
X1.3504Y-3.7559
X1.3504Y-4.4732
X1.4173Y-3.3213
X1.4669Y-3.3236
X1.4906Y-3.4862
X1.5169Y-3.3244
X1.5236Y-0.7638
X1.5374Y-3.8898
X1.5646Y-3.3252
X1.5906Y-2.937
X1.6299Y-2.937
X1.6673Y-2.9409
X1.7809Y-3.5002
X1.7894Y-3.4677
X1.8165Y-3.4
X1.8398Y-4.2012
X1.9016Y-4.1846
X1.9299Y-3.7823
X1.939Y-3.628
X1.9449Y-3.5374
X1.9449Y-3.565
X1.9449Y-3.5906
X1.9602Y-2.4555
X1.9606Y-3.8037
X1.9665Y-3.6693
X1.9882Y-2.8898
X1.9906Y-3.6965
X1.9909Y-3.7295
X2.0748Y-2.8071
X2.1142Y-2.8465
X2.1307Y-3.6441
X2.1732Y-3.8937
X2.1941Y-3.6429
X2.198Y-3.0063
X2.2193Y-3.4831
X2.2234Y-1.0551
X2.2335Y-3.9043
X2.2358Y-4.0386
X2.2362Y-3.1917
X2.2382Y-3.6654
X2.2559Y-3.2937
X2.2559Y-3.5906
X2.2559Y-3.685
X2.2587Y-3.6386
X2.2594Y-3.4835
X2.2638Y-2.7047
X2.2657Y-3.4583
X2.2717Y-2.7362
X2.2909Y-3.1917
X2.2953Y-0.5787
X2.3031Y-3.4075
X2.3228Y-0.5827
X2.3248Y-3.0689
X2.3335Y-3.6445
X2.3366Y-3.0236
X2.3374Y-3.8244
X2.3376Y-3.5681
X2.3631Y-3.5665
X2.3669Y-3.6425
X2.3677Y-3.1917
X2.3701Y-2.7043
X2.3937Y-3.6449
X2.3961Y-3.726
X2.3961Y-3.7654
X2.4055Y-3.2815
X2.4055Y-3.4469
X2.4094Y-2.7358
X2.4138Y-4.0063
X2.4354Y-3.726
X2.4354Y-3.7654
X2.4402Y-3.6559
X2.4437Y-3.1921
X2.4516Y-3.8394
X2.4685Y-3.0295
X2.4748Y-3.726
X2.4748Y-3.7654
X2.4764Y-3.3406
X2.4791Y-3.9122
X2.4835Y-3.8402
X2.487Y-3.6409
X2.5122Y-3.6451
X2.5128Y-2.7043
X2.5272Y-3.3804
X2.531Y-3.6624
X2.5327Y-3.7587
X2.5339Y-3.6878
X2.5465Y-3.1118
X2.5492Y-2.7358
X2.5587Y-3.8634
X2.5748Y-3.3488
X2.5858Y-3.4547
X2.6142Y-4.0067
X2.6217Y-3.7713
X2.6339Y-3.6823
X2.6354Y-3.9654
X2.6378Y-0.7126
X2.6467Y-2.7043
X2.6791Y-3.5913
X2.6843Y-3.8492
X2.685Y-4.1969
X2.685Y-4.363
X2.6861Y-2.7357
X2.7091Y-3.7909
X2.7673Y-3.663
X2.7854Y-2.7043
X2.7898Y-4.1528
X2.8083Y-3.7102
X2.8228Y-2.7358
X2.8378Y-3.7122
X2.8387Y-3.2648
X2.8425Y-3.0197
X2.8425Y-3.063
X2.8476Y-3.4232
X2.8524Y-2.4764
X2.8524Y-2.5118
X2.8543Y-2.9685
X2.8596Y-3.2857
X2.8882Y-3.7602
X2.8882Y-3.8272
X2.9016Y-2.0531
X2.9331Y-2.9685
X2.937Y-3.0197
X2.937Y-3.0591
X2.9531Y-3.6008
X2.9618Y-3.1012
X2.9622Y-3.2315
X3.1972Y-2.5591
X3.3004Y-2.5602
X3.3622Y-2.6339
X3.3622Y-3.0551
X3.4213Y-2.8622
T2
X0.8271Y-4.3947
X0.8271Y-4.4537
X0.8271Y-4.5128
X0.8861Y-4.3947
X0.8861Y-4.4537
X0.8861Y-4.5128
T3
X0.3268Y-0.8852
X0.5728Y-4.4878
X0.6004Y-4.3563
X0.61Y-3.8612
X0.6894Y-4.5909
X0.7945Y-4.0386
X0.874Y-3.8219
X1.1406Y-4.5984
X1.422Y-4.463
X1.4685Y-4.5386
X1.5657Y-3.624
X1.8Y-4.5449
X1.8606Y-4.463
X1.9567Y-4.4646
X2.0787Y-3.9783
X2.1732Y-4.6024
X2.1752Y-4.6654
X2.4862Y-4.7079
T5
X1.6325Y-1.8858
X1.7165Y-1.8858
T6
X-0.1887Y-0.934
X-0.1887Y-1.034
X-0.1887Y-1.134
X-0.1887Y-1.234
X-0.1887Y-1.334
X-0.1887Y-1.434
X-0.1887Y-1.534
X-0.1887Y-1.634
X-0.1887Y-1.734
X-0.1887Y-1.834
X0.4937Y-0.4039
X0.4937Y-0.5039
X0.5937Y-0.4039
X0.5937Y-0.5039
X0.6937Y-0.5039
X0.6937Y-0.4039
X0.7937Y-0.4039
X0.7937Y-0.5039
X0.8937Y-0.4039
X0.8937Y-0.5039
X0.9937Y-0.4039
X0.9937Y-0.5039
X1.0736Y-0.8693
X1.0736Y-0.9693
X1.0937Y-0.4039
X1.0937Y-0.5039
X1.1021Y-2.2669
X1.1021Y-2.3669
X1.1736Y-0.8693
X1.1736Y-0.9693
X1.185Y-1.7165
X1.1937Y-0.4039
X1.1937Y-0.5039
X1.2021Y-2.2669
X1.2021Y-2.3669
X1.2736Y-0.8693
X1.2736Y-0.9693
X1.2937Y-0.4039
X1.2937Y-0.5039
X1.3021Y-2.2669
X1.3021Y-2.3669
X1.3736Y-0.8693
X1.3736Y-0.9693
X1.3937Y-0.4039
X1.3937Y-0.5039
X1.4021Y-2.2669
X1.4021Y-2.3669
X1.4252Y-1.8701
X1.4736Y-0.8693
X1.4736Y-0.9693
X1.4937Y-0.4039
X1.4937Y-0.5039
X1.5021Y-2.2669
X1.5021Y-2.3669
X1.5736Y-0.8693
X1.5736Y-0.9693
X1.5937Y-0.5039
X1.5937Y-0.4039
X1.6021Y-2.2669
X1.6021Y-2.3669
X1.6736Y-0.8693
X1.6736Y-0.9693
X1.6937Y-0.4039
X1.6937Y-0.5039
X1.7021Y-2.2669
X1.7021Y-2.3669
X1.7736Y-0.8693
X1.7736Y-0.9693
X1.7937Y-0.4039
X1.7937Y-0.5039
X1.8021Y-2.2669
X1.8021Y-2.3669
X1.8736Y-0.8693
X1.8736Y-0.9693
X1.8937Y-0.4039
X1.8937Y-0.5039
X1.9021Y-2.2669
X1.9021Y-2.3669
X1.9736Y-0.8693
X1.9736Y-0.9693
X1.9937Y-0.5039
X1.9937Y-0.4039
X2.0021Y-2.2669
X2.0021Y-2.3669
X2.0736Y-0.8693
X2.0736Y-0.9693
X2.0937Y-0.4039
X2.0937Y-0.5039
X2.1021Y-2.2669
X2.1021Y-2.3669
X2.1736Y-0.8693
X2.1736Y-0.9693
X2.1937Y-0.4039
X2.1937Y-0.5039
X2.2021Y-2.2669
X2.2021Y-2.3669
X2.2736Y-0.8693
X2.2736Y-0.9693
X2.2937Y-0.4039
X2.2937Y-0.5039
X2.3021Y-2.2669
X2.3021Y-2.3669
X2.3736Y-0.8693
X2.3736Y-0.9693
X2.3937Y-0.4039
X2.3937Y-0.5039
X2.4021Y-2.2669
X2.4021Y-2.3669
X2.4736Y-0.8693
X2.4736Y-0.9693
X2.5021Y-2.2669
X2.5021Y-2.3669
X2.5736Y-0.8693
X2.5736Y-0.9693
X2.6021Y-2.2669
X2.6021Y-2.3669
X2.6736Y-0.8693
X2.6736Y-0.9693
X2.7021Y-2.2669
X2.7021Y-2.3669
X2.7736Y-0.8693
X2.7736Y-0.9693
X2.8021Y-2.2669
X2.8021Y-2.3669
X2.8736Y-0.8693
X2.8736Y-0.9693
X2.9021Y-2.2669
X2.9021Y-2.3669
X2.9736Y-0.8693
X2.9736Y-0.9693
X3.0021Y-2.2669
X3.0021Y-2.3669
X3.454Y-0.9218
X3.454Y-1.0218
X3.454Y-1.1218
X3.454Y-1.2218
X3.454Y-1.3218
X3.454Y-1.4218
X3.454Y-1.5218
X3.454Y-1.6218
X3.454Y-1.7218
X3.454Y-1.8218
T4
G00X1.4673Y-4.637
M15
G01X1.4673Y-4.5937
M16
G05
G00X1.4673Y-4.7917
M15
G01X1.4673Y-4.7681
M16
G05
G00X1.8075Y-4.637
M15
G01X1.8075Y-4.5937
M16
G05
G00X1.8075Y-4.7917
M15
G01X1.8075Y-4.7681
M16
G05
M30
