%TF.GenerationSoftware,KiCad,Pcbnew,8.0.4*%
%TF.CreationDate,2024-10-18T18:06:38+03:00*%
%TF.ProjectId,beepy,62656570-792e-46b6-9963-61645f706362,rev?*%
%TF.SameCoordinates,Original*%
%TF.FileFunction,Profile,NP*%
%FSLAX46Y46*%
G04 Gerber Fmt 4.6, Leading zero omitted, Abs format (unit mm)*
G04 Created by KiCad (PCBNEW 8.0.4) date 2024-10-18 18:06:38*
%MOMM*%
%LPD*%
G01*
G04 APERTURE LIST*
%TA.AperFunction,Profile*%
%ADD10C,0.100000*%
%TD*%
%TA.AperFunction,Profile*%
%ADD11C,0.200000*%
%TD*%
%TA.AperFunction,Profile*%
%ADD12C,0.120000*%
%TD*%
G04 APERTURE END LIST*
D10*
X15373117Y-3500000D02*
G75*
G02*
X9373117Y-3500000I-3000000J0D01*
G01*
X9373117Y-3500000D02*
G75*
G02*
X15373117Y-3500000I3000000J0D01*
G01*
X84153553Y-22053553D02*
G75*
G02*
X84653553Y-21553553I500047J-47D01*
G01*
X74400000Y-3500000D02*
G75*
G02*
X68400000Y-3500000I-3000000J0D01*
G01*
X68400000Y-3500000D02*
G75*
G02*
X74400000Y-3500000I3000000J0D01*
G01*
X13038013Y-54740000D02*
G75*
G02*
X13438000Y-55140000I-13J-400000D01*
G01*
X10138013Y-69440000D02*
G75*
G02*
X9738000Y-69040000I-13J400000D01*
G01*
D11*
X-2125000Y-119550000D02*
G75*
G02*
X-4175000Y-119550000I-1025000J0D01*
G01*
X-4175000Y-119550000D02*
G75*
G02*
X-2125000Y-119550000I1025000J0D01*
G01*
D10*
X65850000Y-53475000D02*
G75*
G02*
X65449999Y-53875000I-400000J0D01*
G01*
D11*
X87100000Y-4700000D02*
G75*
G02*
X85050000Y-4700000I-1025000J0D01*
G01*
X85050000Y-4700000D02*
G75*
G02*
X87100000Y-4700000I1025000J0D01*
G01*
D10*
X84653553Y-61553553D02*
G75*
G02*
X84153647Y-61053553I47J499953D01*
G01*
X62927843Y-32900000D02*
G75*
G02*
X63337842Y-32500044I404957J-5000D01*
G01*
X21176117Y-123146117D02*
G75*
G02*
X19926117Y-124396117I-1250017J17D01*
G01*
X-7500000Y-116900000D02*
X-7500000Y-7500000D01*
X19926117Y-124396117D02*
X0Y-124400000D01*
X83000000Y0D02*
X0Y0D01*
D11*
X-2125000Y-4700000D02*
G75*
G02*
X-4175000Y-4700000I-1025000J0D01*
G01*
X-4175000Y-4700000D02*
G75*
G02*
X-2125000Y-4700000I1025000J0D01*
G01*
D10*
X28463883Y-124396117D02*
X83000000Y-124400000D01*
X65450000Y-32500000D02*
G75*
G02*
X65850000Y-32900000I0J-400000D01*
G01*
X13438014Y-69040001D02*
G75*
G02*
X13038013Y-69440014I-400014J1D01*
G01*
X62927843Y-32900000D02*
X62927843Y-53475000D01*
X65450000Y-32500000D02*
X63337843Y-32500000D01*
X84153553Y-22053553D02*
X84153553Y-61053553D01*
X65449999Y-53874999D02*
X63327842Y-53874999D01*
X13038013Y-54740000D02*
X10148013Y-54740000D01*
D11*
X87100000Y-119550000D02*
G75*
G02*
X85050000Y-119550000I-1025000J0D01*
G01*
X85050000Y-119550000D02*
G75*
G02*
X87100000Y-119550000I1025000J0D01*
G01*
D10*
X13438013Y-55140000D02*
X13438013Y-69040000D01*
X27213883Y-123146117D02*
X21176117Y-123146117D01*
X13038013Y-69440000D02*
X10138013Y-69440000D01*
X63327842Y-53874999D02*
G75*
G02*
X62927801Y-53474999I-42J399999D01*
G01*
X-7500000Y-7500000D02*
G75*
G02*
X0Y0I7500000J0D01*
G01*
X90500000Y-116900000D02*
G75*
G02*
X83000000Y-124400000I-7500000J0D01*
G01*
X65850000Y-32900000D02*
X65850000Y-53475000D01*
X85153553Y-22053553D02*
X85153553Y-61053553D01*
X83000000Y0D02*
G75*
G02*
X90500000Y-7500000I0J-7500000D01*
G01*
X9738013Y-55140000D02*
G75*
G02*
X10148013Y-54740013I404987J-5000D01*
G01*
X84653553Y-21553553D02*
G75*
G02*
X85153647Y-22053553I47J-500047D01*
G01*
X90500000Y-7500000D02*
X90500000Y-116900000D01*
X0Y-124400000D02*
G75*
G02*
X-7500000Y-116900000I0J7500000D01*
G01*
X28463883Y-124396117D02*
G75*
G02*
X27213883Y-123146117I17J1250017D01*
G01*
X85153553Y-61053553D02*
G75*
G02*
X84653553Y-61553553I-499953J-47D01*
G01*
X9738013Y-55140000D02*
X9738013Y-69040000D01*
D12*
%TO.C,SW1*%
X89150000Y-75100000D02*
G75*
G02*
X88450000Y-75100000I-350000J0D01*
G01*
X88450000Y-75100000D02*
G75*
G02*
X89150000Y-75100000I350000J0D01*
G01*
X89150000Y-76800000D02*
G75*
G02*
X88450000Y-76800000I-350000J0D01*
G01*
X88450000Y-76800000D02*
G75*
G02*
X89150000Y-76800000I350000J0D01*
G01*
%TO.C,SW3*%
X89150000Y-67790000D02*
G75*
G02*
X88450000Y-67790000I-350000J0D01*
G01*
X88450000Y-67790000D02*
G75*
G02*
X89150000Y-67790000I350000J0D01*
G01*
X89150000Y-69490000D02*
G75*
G02*
X88450000Y-69490000I-350000J0D01*
G01*
X88450000Y-69490000D02*
G75*
G02*
X89150000Y-69490000I350000J0D01*
G01*
%TD*%
M02*
