%TF.GenerationSoftware,KiCad,Pcbnew,8.0.4*%
%TF.CreationDate,2024-10-18T18:06:38+03:00*%
%TF.ProjectId,beepy,62656570-792e-46b6-9963-61645f706362,rev?*%
%TF.SameCoordinates,Original*%
%TF.FileFunction,Copper,L3,Inr*%
%TF.FilePolarity,Positive*%
%FSLAX46Y46*%
G04 Gerber Fmt 4.6, Leading zero omitted, Abs format (unit mm)*
G04 Created by KiCad (PCBNEW 8.0.4) date 2024-10-18 18:06:38*
%MOMM*%
%LPD*%
G01*
G04 APERTURE LIST*
%TA.AperFunction,ComponentPad*%
%ADD10R,1.700000X1.700000*%
%TD*%
%TA.AperFunction,ComponentPad*%
%ADD11O,1.700000X1.700000*%
%TD*%
%TA.AperFunction,ComponentPad*%
%ADD12C,0.500000*%
%TD*%
%TA.AperFunction,ComponentPad*%
%ADD13C,2.000000*%
%TD*%
%TA.AperFunction,ComponentPad*%
%ADD14C,1.500000*%
%TD*%
%TA.AperFunction,ComponentPad*%
%ADD15O,1.000000X1.600000*%
%TD*%
%TA.AperFunction,ComponentPad*%
%ADD16O,1.000000X2.100000*%
%TD*%
%TA.AperFunction,ViaPad*%
%ADD17C,0.500000*%
%TD*%
%TA.AperFunction,ViaPad*%
%ADD18C,0.800000*%
%TD*%
%TA.AperFunction,Conductor*%
%ADD19C,0.400000*%
%TD*%
%TA.AperFunction,Conductor*%
%ADD20C,0.200000*%
%TD*%
%TA.AperFunction,Conductor*%
%ADD21C,0.127000*%
%TD*%
G04 APERTURE END LIST*
D10*
%TO.N,unconnected-(J4-3.3V-Pad1)*%
%TO.C,J4*%
X76252160Y-57578894D03*
D11*
%TO.N,Net-(JP1-B)*%
X76252160Y-60118894D03*
%TO.N,/Pi_SDA*%
X73712160Y-57578894D03*
%TO.N,Net-(JP1-B)*%
X73712160Y-60118894D03*
%TO.N,/Pi_SCL*%
X71172160Y-57578894D03*
%TO.N,GND*%
X71172160Y-60118894D03*
%TO.N,/Pi_INT*%
X68632160Y-57578894D03*
%TO.N,/Pi_GPIO14*%
X68632160Y-60118894D03*
%TO.N,GND*%
X66092160Y-57578894D03*
%TO.N,/Pi_GPIO15*%
X66092160Y-60118894D03*
%TO.N,unconnected-(J4-GPIO17-Pad11)*%
X63552160Y-57578894D03*
%TO.N,/Pi_GPIO18*%
X63552160Y-60118894D03*
%TO.N,/Pi_GPIO27*%
X61012160Y-57578894D03*
%TO.N,GND*%
X61012160Y-60118894D03*
%TO.N,/Pi_GPIO22*%
X58472160Y-57578894D03*
%TO.N,/DISP_EXTIN*%
X58472160Y-60118894D03*
%TO.N,unconnected-(J4-3.3V-Pad17)*%
X55932160Y-57578894D03*
%TO.N,/PI_HEADER_SWDIO*%
X55932160Y-60118894D03*
%TO.N,/DISP_SI*%
X53392160Y-57578894D03*
%TO.N,GND*%
X53392160Y-60118894D03*
%TO.N,/Pi_GPIO09*%
X50852160Y-57578894D03*
%TO.N,/PI_HEADER_SWCLK*%
X50852160Y-60118894D03*
%TO.N,/DISP_SCLK*%
X48312160Y-57578894D03*
%TO.N,/DISP_CS*%
X48312160Y-60118894D03*
%TO.N,GND*%
X45772160Y-57578894D03*
%TO.N,/LBO*%
X45772160Y-60118894D03*
%TO.N,/Pi_GPIO0*%
X43232160Y-57578894D03*
%TO.N,/Pi_GPIO1*%
X43232160Y-60118894D03*
%TO.N,/Pi_GPIO5*%
X40692160Y-57578894D03*
%TO.N,GND*%
X40692160Y-60118894D03*
%TO.N,/Pi_GPIO6*%
X38152160Y-57578894D03*
%TO.N,/Pi_GPIO12*%
X38152160Y-60118894D03*
%TO.N,/Pi_GPIO13*%
X35612160Y-57578894D03*
%TO.N,GND*%
X35612160Y-60118894D03*
%TO.N,/Pi_GPIO19*%
X33072160Y-57578894D03*
%TO.N,/Pi_GPIO16*%
X33072160Y-60118894D03*
%TO.N,/Pi_GPIO26*%
X30532160Y-57578894D03*
%TO.N,/Pi_GPIO20*%
X30532160Y-60118894D03*
%TO.N,GND*%
X27992160Y-57578894D03*
%TO.N,/Pi_GPIO21*%
X27992160Y-60118894D03*
%TD*%
D10*
%TO.N,unconnected-(J2-3.3V-Pad1)*%
%TO.C,J2*%
X12540000Y-12800000D03*
D11*
%TO.N,Net-(JP1-B)*%
X12540000Y-10260000D03*
%TO.N,/Pi_SDA*%
X15080000Y-12800000D03*
%TO.N,Net-(JP1-B)*%
X15080000Y-10260000D03*
%TO.N,/Pi_SCL*%
X17619999Y-12800000D03*
%TO.N,GND*%
X17620000Y-10260000D03*
%TO.N,/Pi_INT*%
X20160000Y-12800000D03*
%TO.N,/Pi_GPIO14*%
X20160000Y-10260000D03*
%TO.N,GND*%
X22700000Y-12800000D03*
%TO.N,/Pi_GPIO15*%
X22700000Y-10260000D03*
%TO.N,unconnected-(J2-GPIO17-Pad11)*%
X25240000Y-12800000D03*
%TO.N,/Pi_GPIO18*%
X25240000Y-10260000D03*
%TO.N,/Pi_GPIO27*%
X27780000Y-12800000D03*
%TO.N,GND*%
X27780000Y-10260000D03*
%TO.N,/Pi_GPIO22*%
X30320001Y-12800000D03*
%TO.N,/DISP_EXTIN*%
X30320000Y-10260000D03*
%TO.N,unconnected-(J2-3.3V-Pad17)*%
X32860000Y-12800000D03*
%TO.N,/PI_HEADER_SWDIO*%
X32860000Y-10260000D03*
%TO.N,/DISP_SI*%
X35400000Y-12800000D03*
%TO.N,GND*%
X35400000Y-10260000D03*
%TO.N,/Pi_GPIO09*%
X37940000Y-12800000D03*
%TO.N,/PI_HEADER_SWCLK*%
X37940000Y-10260000D03*
%TO.N,/DISP_SCLK*%
X40479999Y-12800000D03*
%TO.N,/DISP_CS*%
X40480000Y-10260000D03*
%TO.N,GND*%
X43020000Y-12800000D03*
%TO.N,/LBO*%
X43020000Y-10260000D03*
%TO.N,/Pi_GPIO0*%
X45560000Y-12800000D03*
%TO.N,/Pi_GPIO1*%
X45560000Y-10260000D03*
%TO.N,/Pi_GPIO5*%
X48100000Y-12800000D03*
%TO.N,GND*%
X48100000Y-10260000D03*
%TO.N,/Pi_GPIO6*%
X50639999Y-12800000D03*
%TO.N,/Pi_GPIO12*%
X50640000Y-10260000D03*
%TO.N,/Pi_GPIO13*%
X53180001Y-12800000D03*
%TO.N,GND*%
X53180000Y-10260000D03*
%TO.N,/Pi_GPIO19*%
X55720000Y-12800000D03*
%TO.N,/Pi_GPIO16*%
X55720000Y-10260000D03*
%TO.N,/Pi_GPIO26*%
X58260000Y-12800000D03*
%TO.N,/Pi_GPIO20*%
X58260000Y-10260000D03*
%TO.N,GND*%
X60800000Y-12800000D03*
%TO.N,/Pi_GPIO21*%
X60800000Y-10260000D03*
%TD*%
D12*
%TO.N,GND*%
%TO.C,U1*%
X22507500Y-114625000D03*
X22507500Y-113125000D03*
X22507500Y-111625000D03*
X21007500Y-114625000D03*
X21007500Y-113125000D03*
X21007500Y-111625000D03*
%TD*%
D13*
%TO.N,GND*%
%TO.C,TP8*%
X36200000Y-47500000D03*
%TD*%
%TO.N,+5V*%
%TO.C,TP5*%
X30100000Y-43600000D03*
%TD*%
D14*
%TO.N,USB_D-*%
%TO.C,TP6*%
X43600000Y-47900000D03*
%TD*%
D10*
%TO.N,/Pi_GPIO6*%
%TO.C,J1*%
X-4792463Y-46583919D03*
D11*
%TO.N,/Pi_GPIO13*%
X-4792463Y-44043919D03*
%TO.N,/Pi_GPIO19*%
X-4792463Y-41503919D03*
%TO.N,/Pi_GPIO26*%
X-4792463Y-38963919D03*
%TO.N,/Pi_GPIO21*%
X-4792463Y-36423919D03*
%TO.N,/Pi_GPIO20*%
X-4792463Y-33883919D03*
%TO.N,+3V3*%
X-4792463Y-31343919D03*
%TO.N,+5V*%
X-4792463Y-28803919D03*
%TO.N,GND*%
X-4792463Y-26263919D03*
X-4792463Y-23723919D03*
%TD*%
D10*
%TO.N,unconnected-(J5-3.3V-Pad1)*%
%TO.C,J5*%
X75530000Y-24620000D03*
D11*
%TO.N,Net-(JP1-B)*%
X75530000Y-22080000D03*
%TO.N,/Pi_SDA*%
X72990000Y-24620000D03*
%TO.N,Net-(JP1-B)*%
X72990000Y-22080000D03*
%TO.N,/Pi_SCL*%
X70450000Y-24620000D03*
%TO.N,GND*%
X70450000Y-22080000D03*
%TO.N,/Pi_INT*%
X67910000Y-24620000D03*
%TO.N,/Pi_GPIO14*%
X67910000Y-22080000D03*
%TO.N,GND*%
X65370000Y-24620000D03*
%TO.N,/Pi_GPIO15*%
X65370000Y-22080000D03*
%TO.N,unconnected-(J5-GPIO17-Pad11)*%
X62830000Y-24620000D03*
%TO.N,/Pi_GPIO18*%
X62830000Y-22080000D03*
%TO.N,/Pi_GPIO27*%
X60290000Y-24620000D03*
%TO.N,GND*%
X60290000Y-22080000D03*
%TO.N,/Pi_GPIO22*%
X57750000Y-24620000D03*
%TO.N,/DISP_EXTIN*%
X57750000Y-22080000D03*
%TO.N,unconnected-(J5-3.3V-Pad17)*%
X55210000Y-24620000D03*
%TO.N,/PI_HEADER_SWDIO*%
X55210000Y-22080000D03*
%TO.N,/DISP_SI*%
X52670000Y-24620000D03*
%TO.N,GND*%
X52670000Y-22080000D03*
%TO.N,/Pi_GPIO09*%
X50130000Y-24620000D03*
%TO.N,/PI_HEADER_SWCLK*%
X50130000Y-22080000D03*
%TO.N,/DISP_SCLK*%
X47590000Y-24620000D03*
%TO.N,/DISP_CS*%
X47590000Y-22080000D03*
%TO.N,GND*%
X45050000Y-24620000D03*
%TO.N,/LBO*%
X45050000Y-22080000D03*
%TO.N,/Pi_GPIO0*%
X42510000Y-24620000D03*
%TO.N,/Pi_GPIO1*%
X42510000Y-22080000D03*
%TO.N,/Pi_GPIO5*%
X39970000Y-24620000D03*
%TO.N,GND*%
X39970000Y-22080000D03*
%TO.N,/Pi_GPIO6*%
X37430000Y-24620000D03*
%TO.N,/Pi_GPIO12*%
X37430000Y-22080000D03*
%TO.N,/Pi_GPIO13*%
X34890000Y-24620000D03*
%TO.N,GND*%
X34890000Y-22080000D03*
%TO.N,/Pi_GPIO19*%
X32350000Y-24620000D03*
%TO.N,/Pi_GPIO16*%
X32350000Y-22080000D03*
%TO.N,/Pi_GPIO26*%
X29810000Y-24620000D03*
%TO.N,/Pi_GPIO20*%
X29810000Y-22080000D03*
%TO.N,GND*%
X27270000Y-24620000D03*
%TO.N,/Pi_GPIO21*%
X27270000Y-22080000D03*
%TD*%
D14*
%TO.N,USB_D+*%
%TO.C,TP7*%
X41465683Y-47900000D03*
%TD*%
D15*
%TO.N,GND*%
%TO.C,J7*%
X45910000Y-121410000D03*
D16*
X45910000Y-117230000D03*
D15*
X37270000Y-121410000D03*
D16*
X37270000Y-117230000D03*
%TD*%
D10*
%TO.N,/Pi_GPIO16*%
%TO.C,J3*%
X87731557Y-46273399D03*
D11*
%TO.N,/Pi_SCL*%
X87731557Y-43733399D03*
%TO.N,/Pi_SDA*%
X87731557Y-41193399D03*
%TO.N,/Pi_GPIO14*%
X87731557Y-38653399D03*
%TO.N,/Pi_GPIO15*%
X87731557Y-36113399D03*
%TO.N,/Pi_GPIO18*%
X87731557Y-33573399D03*
%TO.N,+5V*%
X87731557Y-31033399D03*
%TO.N,+3V3*%
X87731557Y-28493399D03*
%TO.N,GND*%
X87731557Y-25953399D03*
X87731557Y-23413399D03*
%TD*%
D17*
%TO.N,GND*%
X61100000Y-83350000D03*
X14200000Y-62300000D03*
D18*
X28970000Y-116800000D03*
D17*
X14900000Y-57650000D03*
X60800000Y-92580000D03*
X17750000Y-57050000D03*
X39050000Y-98800000D03*
X36000000Y-84360000D03*
X65400000Y-85060000D03*
X37860000Y-88550000D03*
X17650000Y-65700000D03*
X14900000Y-67650000D03*
X17800000Y-64400000D03*
X61100000Y-87550000D03*
X60860000Y-95640000D03*
X56370000Y-88470000D03*
X16750000Y-67600000D03*
D18*
X47260000Y-113360000D03*
D17*
X60860000Y-94640000D03*
X14700000Y-66500000D03*
D18*
X49700000Y-113400000D03*
X22200000Y-97075000D03*
D17*
X62900000Y-84850000D03*
D18*
X55200000Y-116900000D03*
D17*
X61860000Y-95640000D03*
D18*
X8300000Y-22485000D03*
X45720000Y-115440000D03*
D17*
X61860000Y-94640000D03*
X66400000Y-101770000D03*
X65680000Y-87750000D03*
X62860000Y-95640000D03*
X70290000Y-93040000D03*
X66940000Y-100720000D03*
X57550000Y-87840000D03*
X70860000Y-105480000D03*
D18*
X37300000Y-115280000D03*
X15250000Y-110650000D03*
D17*
X59050000Y-77950000D03*
X14200000Y-60750000D03*
X38530000Y-84440000D03*
X14200000Y-61500000D03*
X61310000Y-101760000D03*
D18*
X14550000Y-113990000D03*
D17*
X17750000Y-58300000D03*
X8795000Y-51425000D03*
X62700000Y-76950000D03*
D18*
X55250000Y-118500000D03*
D17*
X54120000Y-92560000D03*
X37260000Y-84420000D03*
X20590000Y-101170000D03*
D18*
X17510000Y-116610000D03*
X36120000Y-113360000D03*
X52800000Y-101050000D03*
X63150000Y-119580000D03*
D17*
X14700000Y-49250000D03*
X24950000Y-96990000D03*
X58500000Y-86550000D03*
X62860000Y-94640000D03*
X57300000Y-83660000D03*
X55200000Y-98900000D03*
%TO.N,+3V3*%
X61980000Y-92860000D03*
X62970000Y-99370000D03*
X56730000Y-99170000D03*
X73360000Y-95510000D03*
X67225000Y-68690000D03*
X73360000Y-97210000D03*
X14620000Y-115450000D03*
X62070000Y-81080000D03*
X19800000Y-52900000D03*
X55730000Y-92530000D03*
D18*
X20180000Y-102580000D03*
D17*
X63825000Y-68690000D03*
X66900000Y-93530000D03*
X60200000Y-68690000D03*
X56790000Y-102580000D03*
X58190000Y-81070000D03*
X48300000Y-106290000D03*
D18*
X39770000Y-92050000D03*
D17*
X18470000Y-65020000D03*
X56800000Y-81070000D03*
X64990000Y-98130000D03*
X17680000Y-59870000D03*
X60140000Y-81070000D03*
X46730000Y-106710000D03*
X19800000Y-56000000D03*
X4000000Y-11100000D03*
X39740000Y-84460000D03*
X57500000Y-68700000D03*
X70750000Y-68690000D03*
%TO.N,/Pi_SDA*%
X71330000Y-94240000D03*
%TO.N,/Pi_SCL*%
X72080000Y-94290000D03*
X72450000Y-62900000D03*
%TO.N,/Pi_GPIO20*%
X29300000Y-33900000D03*
%TO.N,/Pi_GPIO19*%
X33700000Y-19400000D03*
X32300000Y-39100000D03*
%TO.N,/Pi_GPIO21*%
X27500000Y-36400000D03*
%TO.N,+5V*%
X5650000Y-53900000D03*
X15150000Y-45160000D03*
X14790000Y-46580000D03*
X15550000Y-53900000D03*
D18*
X15495000Y-98075000D03*
D17*
%TO.N,/Pi_GPIO14*%
X67000000Y-18100000D03*
%TO.N,/Pi_INT*%
X72450000Y-63800000D03*
X68810000Y-96290000D03*
X75010000Y-91460000D03*
%TO.N,SWCLK*%
X64191860Y-85863010D03*
X46140000Y-86360000D03*
%TO.N,SWDIO*%
X63168645Y-92478087D03*
X45235000Y-88905000D03*
%TO.N,RUN*%
X45450000Y-88080000D03*
X63809122Y-92585987D03*
%TO.N,/ROW8*%
X49800000Y-96613500D03*
X64360000Y-93670000D03*
%TO.N,/COL8*%
X64288274Y-93024470D03*
X49020000Y-96070000D03*
%TO.N,/DISP_EXTIN*%
X56475000Y-26800000D03*
%TO.N,/KB_BL*%
X57390000Y-88480000D03*
X64330000Y-95470000D03*
%TO.N,+2V8*%
X15480000Y-61130000D03*
X55830000Y-76361250D03*
%TO.N,+1V8*%
X57700000Y-69500000D03*
X71700000Y-69490000D03*
X64750000Y-69490000D03*
X68226539Y-69485716D03*
X61200000Y-69490000D03*
X59350000Y-76800000D03*
X15530000Y-61900000D03*
%TO.N,/LED_R*%
X64680000Y-79040000D03*
X4569110Y-15277154D03*
%TO.N,BOOTSEL*%
X20900000Y-92600000D03*
X18400000Y-74170000D03*
X14950000Y-68350000D03*
%TO.N,/LED_G*%
X3100000Y-15250000D03*
X59270000Y-92570000D03*
%TO.N,/LED_B*%
X1640000Y-15250000D03*
X59370000Y-97140000D03*
%TO.N,/Pi_PWR*%
X50570000Y-94730000D03*
X60120000Y-92520000D03*
%TO.N,/D-*%
X63080000Y-97540000D03*
X72634416Y-83455916D03*
%TO.N,/D+*%
X62270000Y-97520000D03*
X72104084Y-82925584D03*
%TO.N,/LBO*%
X16410000Y-115450000D03*
X34300000Y-88260000D03*
X34300000Y-95400000D03*
X40400000Y-74600000D03*
X34300000Y-113620000D03*
%TO.N,+BATT*%
X68200000Y-106600000D03*
X68200000Y-110820000D03*
%TO.N,Net-(U8-GPIO26)*%
X66590000Y-95790000D03*
X68180000Y-97770000D03*
%TO.N,/COL1*%
X57300000Y-93600000D03*
X74600000Y-77700000D03*
X85400000Y-77600000D03*
X50500000Y-73400000D03*
X72200000Y-77800000D03*
X50560000Y-93890000D03*
%TO.N,/ROW6*%
X86900000Y-72700000D03*
X53700000Y-72300000D03*
X74600000Y-76700000D03*
X72200000Y-76700000D03*
%TO.N,/ROW4*%
X74500000Y-75400000D03*
X52700000Y-71300000D03*
X85400000Y-66900000D03*
X72500000Y-75400000D03*
%TO.N,/PI_HEADER_SWDIO*%
X41400000Y-74600000D03*
X49790000Y-62370000D03*
%TO.N,/PI_HEADER_SWCLK*%
X42350000Y-74700000D03*
%TO.N,/Pi_GPIO6*%
X25300000Y-59300000D03*
X38700000Y-19400000D03*
%TO.N,/Pi_GPIO26*%
X75230000Y-78770000D03*
X30600000Y-37600000D03*
X68050000Y-91220000D03*
X72330000Y-86950000D03*
X75240000Y-82080000D03*
X58300000Y-14700000D03*
%TO.N,/Pi_GPIO16*%
X81210000Y-65000000D03*
X59000000Y-14800000D03*
X83830000Y-65030000D03*
%TO.N,Net-(JP1-B)*%
X9100000Y-15200000D03*
X9300000Y-52142852D03*
X73700000Y-52150000D03*
X9100000Y-18300000D03*
X8750000Y-52150000D03*
%TO.N,/COL2*%
X56850000Y-93100000D03*
X49950000Y-93200000D03*
%TO.N,/COL6*%
X49250000Y-92150000D03*
X57370000Y-92420000D03*
%TO.N,Net-(D1-RK)*%
X2400000Y-12785000D03*
X4500000Y-13285000D03*
%TO.N,Net-(D1-GK)*%
X2500000Y-11785000D03*
X3600000Y-13685000D03*
%TO.N,/COL5*%
X57300000Y-91200000D03*
X49400000Y-91200000D03*
%TO.N,/COL4*%
X59375726Y-90629262D03*
X49400000Y-90550000D03*
%TO.N,/COL3*%
X49400000Y-89850000D03*
X60023996Y-90589265D03*
%TD*%
D19*
%TO.N,GND*%
X48003117Y-9996883D02*
X48000000Y-10000000D01*
%TO.N,+3V3*%
X38190000Y-105620000D02*
X39300000Y-106730000D01*
X55730000Y-92530000D02*
X55730000Y-95240000D01*
X62990000Y-99390000D02*
X64550000Y-99390000D01*
X57505000Y-68690000D02*
X57505000Y-68695000D01*
X64550000Y-99390000D02*
X64990000Y-98950000D01*
X55730000Y-95240000D02*
X56730000Y-96240000D01*
X73360000Y-95510000D02*
X73360000Y-68700000D01*
X90000000Y-21600000D02*
X85000000Y-16600000D01*
X19800000Y-56000000D02*
X19800000Y-59820000D01*
X67190000Y-93820000D02*
X66900000Y-93530000D01*
X87731557Y-28493399D02*
X89206601Y-28493399D01*
X66900000Y-93530000D02*
X66900000Y-90810000D01*
X20180000Y-102580000D02*
X15470000Y-102580000D01*
X53800000Y-102580000D02*
X55070000Y-102580000D01*
X19800000Y-59820000D02*
X19750000Y-59870000D01*
D20*
X4000000Y-11100000D02*
X6200000Y-11100000D01*
D19*
X56790000Y-102580000D02*
X69660000Y-102580000D01*
X73350000Y-68690000D02*
X73360000Y-68700000D01*
X66900000Y-82330000D02*
X65640000Y-81070000D01*
X39770000Y-93460000D02*
X38190000Y-95040000D01*
X3753386Y-31343919D02*
X15343919Y-31343919D01*
X12700000Y-105350000D02*
X12700000Y-114600000D01*
X70550000Y-63100000D02*
X73360000Y-65910000D01*
X15343919Y-31343919D02*
X17600000Y-33600000D01*
X23080000Y-102580000D02*
X23100000Y-102600000D01*
X57505000Y-68695000D02*
X57500000Y-68700000D01*
X19800000Y-59820000D02*
X19800000Y-61750000D01*
X85000000Y-16600000D02*
X6300000Y-16600000D01*
X53800000Y-102580000D02*
X56790000Y-102580000D01*
X19750000Y-59870000D02*
X17680000Y-59870000D01*
X90000000Y-27700000D02*
X90000000Y-21600000D01*
X39760000Y-84480000D02*
X39740000Y-84460000D01*
X38190000Y-102580000D02*
X38190000Y-105620000D01*
X56730000Y-96240000D02*
X56730000Y-99170000D01*
X64990000Y-98130000D02*
X65490000Y-97630000D01*
X38190000Y-102580000D02*
X53800000Y-102580000D01*
X67190000Y-96710000D02*
X67190000Y-93820000D01*
X20180000Y-102580000D02*
X23080000Y-102580000D01*
X65640000Y-81070000D02*
X60140000Y-81070000D01*
X17600000Y-33600000D02*
X17600000Y-50000000D01*
X21150000Y-63100000D02*
X70550000Y-63100000D01*
X66900000Y-90810000D02*
X66900000Y-82330000D01*
X66450000Y-90360000D02*
X66900000Y-90810000D01*
X23120000Y-102580000D02*
X38190000Y-102580000D01*
X15470000Y-102580000D02*
X12700000Y-105350000D01*
X6300000Y-16600000D02*
X6300000Y-11200000D01*
X65490000Y-97630000D02*
X66270000Y-97630000D01*
X58260000Y-99390000D02*
X62950000Y-99390000D01*
X56730000Y-100920000D02*
X56730000Y-99170000D01*
X39770000Y-92050000D02*
X39770000Y-93460000D01*
X17600000Y-50000000D02*
X19800000Y-52200000D01*
X56730000Y-100920000D02*
X58260000Y-99390000D01*
X69660000Y-102580000D02*
X73360000Y-98880000D01*
X39770000Y-92050000D02*
X39760000Y-92040000D01*
X70750000Y-68690000D02*
X73350000Y-68690000D01*
X47860000Y-106730000D02*
X48300000Y-106290000D01*
X66270000Y-97630000D02*
X67190000Y-96710000D01*
X62950000Y-99390000D02*
X62970000Y-99370000D01*
X12700000Y-114600000D02*
X13550000Y-115450000D01*
X61980000Y-92860000D02*
X61980000Y-92100000D01*
X13550000Y-115450000D02*
X14620000Y-115450000D01*
X39760000Y-92040000D02*
X39760000Y-84480000D01*
X55070000Y-102580000D02*
X56515000Y-101135000D01*
X73360000Y-97210000D02*
X73360000Y-95510000D01*
X39300000Y-106730000D02*
X47860000Y-106730000D01*
X38190000Y-95040000D02*
X38190000Y-102580000D01*
X19800000Y-52200000D02*
X19800000Y-52900000D01*
X-4792463Y-31343919D02*
X3753386Y-31343919D01*
X89206601Y-28493399D02*
X90000000Y-27700000D01*
X62970000Y-99370000D02*
X62990000Y-99390000D01*
X73360000Y-98880000D02*
X73360000Y-97210000D01*
X61980000Y-92100000D02*
X63720000Y-90360000D01*
X70625000Y-68690000D02*
X57505000Y-68690000D01*
X23100000Y-102600000D02*
X23120000Y-102580000D01*
X6300000Y-31300000D02*
X6300000Y-16600000D01*
X73360000Y-65910000D02*
X73360000Y-68700000D01*
X19800000Y-61750000D02*
X21150000Y-63100000D01*
X63720000Y-90360000D02*
X66450000Y-90360000D01*
X60140000Y-81070000D02*
X56800000Y-81070000D01*
X56515000Y-101135000D02*
X56730000Y-100920000D01*
X64990000Y-98950000D02*
X64990000Y-98130000D01*
D20*
X6200000Y-11100000D02*
X6300000Y-11200000D01*
D19*
%TO.N,+5V*%
X89333399Y-31033399D02*
X87731557Y-31033399D01*
X9010000Y-91590000D02*
X9010000Y-53900000D01*
X14790000Y-45520000D02*
X14790000Y-46580000D01*
X15495000Y-98075000D02*
X9010000Y-91590000D01*
X81050000Y-55250000D02*
X81700000Y-55900000D01*
X-6600000Y-49550000D02*
X-6600000Y-29850000D01*
X9010000Y-53900000D02*
X5650000Y-53900000D01*
X16900000Y-55250000D02*
X81050000Y-55250000D01*
X15150000Y-45160000D02*
X14790000Y-45520000D01*
X15550000Y-53900000D02*
X16900000Y-55250000D01*
X5650000Y-53900000D02*
X-2250000Y-53900000D01*
X-2250000Y-53900000D02*
X-6600000Y-49550000D01*
X-5553919Y-28803919D02*
X-4792463Y-28803919D01*
X90100000Y-61538000D02*
X90100000Y-31800000D01*
X81700000Y-55900000D02*
X81700000Y-61380000D01*
X-6600000Y-29850000D02*
X-5553919Y-28803919D01*
X90100000Y-31800000D02*
X89333399Y-31033399D01*
X88392000Y-63246000D02*
X90100000Y-61538000D01*
X81700000Y-61380000D02*
X83566000Y-63246000D01*
X9010000Y-53900000D02*
X11200000Y-53900000D01*
X83566000Y-63246000D02*
X88392000Y-63246000D01*
X11200000Y-53900000D02*
X15550000Y-53900000D01*
D20*
%TO.N,+2V8*%
X14900000Y-62400000D02*
X14750000Y-62250000D01*
X15480000Y-61170000D02*
X15480000Y-61130000D01*
X55830000Y-76361250D02*
X55830000Y-70920000D01*
X19040000Y-64220000D02*
X17220000Y-62400000D01*
X14750000Y-62250000D02*
X14750000Y-61900000D01*
X14750000Y-61900000D02*
X15480000Y-61170000D01*
X49130000Y-64220000D02*
X19040000Y-64220000D01*
X17220000Y-62400000D02*
X14900000Y-62400000D01*
X55830000Y-70920000D02*
X49130000Y-64220000D01*
%TO.N,+1V8*%
X57300000Y-76250000D02*
X57850000Y-76800000D01*
X56156520Y-75106520D02*
X57300000Y-76250000D01*
X56156520Y-74666520D02*
X56156520Y-75106520D01*
X57451270Y-69490000D02*
X56156520Y-70784750D01*
X15530000Y-61900000D02*
X17300000Y-61900000D01*
X57750000Y-69490000D02*
X57451270Y-69490000D01*
X17300000Y-61900000D02*
X19280000Y-63880000D01*
X56156520Y-74666520D02*
X56156520Y-70784750D01*
X71685000Y-69490000D02*
X57750000Y-69490000D01*
X19280000Y-63880000D02*
X49251770Y-63880000D01*
X49251770Y-63880000D02*
X56156520Y-70784750D01*
X57850000Y-76800000D02*
X59350000Y-76800000D01*
D21*
%TO.N,BOOTSEL*%
X18400000Y-90100000D02*
X18410000Y-74180000D01*
X18400000Y-90100000D02*
X20900000Y-92600000D01*
%TO.N,/LBO*%
X34300000Y-88260000D02*
X34300000Y-95400000D01*
D19*
%TO.N,Net-(JP1-B)*%
X73700000Y-52150000D02*
X71500000Y-54350000D01*
X73700000Y-30300000D02*
X77350000Y-26650000D01*
X77350000Y-22600000D02*
X76830000Y-22080000D01*
X26200000Y-54000000D02*
X26200000Y-54350000D01*
X77350000Y-26650000D02*
X77350000Y-22600000D01*
X76830000Y-22080000D02*
X72990000Y-22080000D01*
X25850000Y-54350000D02*
X26200000Y-54000000D01*
X26200000Y-36700000D02*
X26200000Y-54000000D01*
X9100000Y-18300000D02*
X9100000Y-19600000D01*
X9100000Y-11100000D02*
X9940000Y-10260000D01*
X71500000Y-54350000D02*
X26800000Y-54350000D01*
X9100000Y-15200000D02*
X9100000Y-11100000D01*
X25800000Y-54350000D02*
X17500000Y-54350000D01*
X15300000Y-52150000D02*
X8750000Y-52150000D01*
X17500000Y-54350000D02*
X15300000Y-52150000D01*
X26200000Y-54350000D02*
X25800000Y-54350000D01*
X26600000Y-54350000D02*
X26200000Y-54350000D01*
X26250000Y-54000000D02*
X26600000Y-54350000D01*
X26800000Y-54350000D02*
X26600000Y-54350000D01*
X9940000Y-10260000D02*
X15080000Y-10260000D01*
X73700000Y-52150000D02*
X73700000Y-30300000D01*
X26200000Y-54000000D02*
X26250000Y-54000000D01*
X25800000Y-54350000D02*
X25850000Y-54350000D01*
X9100000Y-19600000D02*
X26200000Y-36700000D01*
D21*
%TO.N,Net-(D1-RK)*%
X4000000Y-12785000D02*
X2400000Y-12785000D01*
X4500000Y-13285000D02*
X4000000Y-12785000D01*
%TD*%
M02*
